<svg width="214" height="214" viewBox="0 0 214 214" fill="none" xmlns="http://www.w3.org/2000/svg">
<g clip-path="url(#clip0_7_69)">
<path fill-rule="evenodd" clip-rule="evenodd" d="M209.096 53.0363C210.576 48.1678 209.096 44.5833 202.007 44.5833H178.601C172.644 44.5833 169.898 47.6774 168.409 51.0925C168.409 51.0925 156.505 79.5901 139.644 98.1011C134.187 103.469 131.708 105.172 128.73 105.172C127.241 105.172 125.003 103.469 125.003 98.5916V53.0363C125.003 47.187 123.362 44.5833 118.404 44.5833H81.5964C77.8782 44.5833 75.6401 47.294 75.6401 49.8709C75.6401 55.4081 84.0752 56.6921 84.9402 72.2785V106.144C84.9402 113.572 83.5759 114.918 80.5977 114.918C72.6619 114.918 53.3573 86.2866 41.8994 53.5267C39.6792 47.1513 37.4322 44.5833 31.4491 44.5833H8.025C1.3375 44.5833 0 47.6774 0 51.0925C0 57.1736 7.93583 87.3833 36.9596 127.339C56.3087 154.624 83.5492 169.417 108.364 169.417C123.246 169.417 125.083 166.135 125.083 160.473V139.849C125.083 133.277 126.492 131.967 131.209 131.967C134.686 131.967 140.634 133.679 154.526 146.831C170.397 162.426 173.01 169.417 181.945 169.417H205.351C212.038 169.417 215.391 166.135 213.465 159.644C211.343 153.188 203.764 143.817 193.715 132.698C188.258 126.367 180.072 119.546 177.584 116.131C174.116 111.753 175.105 109.8 177.584 105.903C177.584 105.903 206.118 66.4381 209.087 53.0363H209.096Z" fill="white"/>
</g>
<defs>
<clipPath id="clip0_7_69">
<rect width="214" height="214" fill="white"/>
</clipPath>
</defs>
</svg>
