<?xml version="1.0" encoding="UTF-8"?>
<svg xmlns="http://www.w3.org/2000/svg" xmlns:xlink="http://www.w3.org/1999/xlink" viewBox="0 0 96 96" width="96px" height="96px">
<g id="surface182614125">
<path style=" stroke:none;fill-rule:nonzero;fill:rgb(100%,100%,100%);fill-opacity:1;" d="M 91.527344 70.402344 C 87.933594 63.9375 78.675781 56.164062 74.851562 52.78125 C 73.804688 51.855469 73.695312 50.253906 74.644531 49.230469 C 81.941406 41.390625 87.773438 32.386719 89.78125 26.945312 C 90.667969 24.539062 88.832031 22 86.25 22 L 78.742188 22 C 76.269531 22 74.820312 22.886719 74.132812 24.300781 C 68.070312 36.722656 62.871094 42.101562 59.230469 45.242188 C 57.191406 47.003906 54.015625 45.542969 54.015625 42.867188 C 54.015625 37.707031 54.015625 31.035156 54.015625 26.304688 C 54.015625 24.011719 52.136719 22.15625 49.824219 22.15625 L 36.113281 22 C 34.386719 22 33.398438 23.953125 34.4375 25.324219 L 36.699219 28.574219 C 37.550781 29.699219 38.011719 31.070312 38.011719 32.476562 L 38 47.113281 C 38 49.65625 34.914062 50.902344 33.082031 49.117188 C 26.882812 43.082031 21.507812 30.757812 19.570312 24.863281 C 19.011719 23.15625 17.410156 22.003906 15.601562 22 L 8.207031 21.980469 C 5.433594 21.980469 3.402344 24.613281 4.15625 27.261719 C 10.914062 50.972656 24.777344 73.535156 49.480469 75.980469 C 51.914062 76.21875 54.015625 74.261719 54.015625 71.832031 L 54.015625 64.140625 C 54.015625 61.9375 55.742188 60.039062 57.96875 59.984375 C 58.046875 59.980469 58.125 59.980469 58.203125 59.980469 C 64.734375 59.980469 72.054688 69.492188 74.613281 73.941406 C 75.351562 75.21875 76.726562 76 78.214844 76 L 88.160156 76 C 91.0625 76 92.925781 72.921875 91.527344 70.402344 Z M 91.527344 70.402344 "/>
</g>
</svg>
