<svg width="853" height="391" viewBox="0 0 853 391" fill="none" xmlns="http://www.w3.org/2000/svg">
<g clip-path="url(#clip0_608_5)">
<path d="M48.6392 27.6633V207.551H106.554V214.786H40.4014V27.6633H48.6392ZM251.928 102.513H259.916V214.786H251.928V192.082C243.44 209.048 228.961 217.531 208.492 217.531C194.512 217.531 182.779 212.707 173.293 203.06C163.807 193.413 159.064 181.686 159.064 167.881V102.513H167.053V167.881C167.053 179.358 171.047 189.338 179.035 197.821C187.19 206.304 197.008 210.545 208.492 210.545C219.975 210.545 230.043 206.304 238.697 197.821C247.518 189.338 251.928 179.358 251.928 167.881V102.513ZM330.289 214.786H322.301V102.513H330.289V125.217C338.777 108.251 353.255 99.7681 373.725 99.7681C387.705 99.7681 399.437 104.592 408.923 114.239C418.409 123.886 423.152 135.613 423.152 149.418V214.786H415.164V149.418C415.164 137.941 411.087 127.961 402.932 119.478C394.944 110.995 385.208 106.754 373.725 106.754C362.242 106.754 352.09 110.995 343.27 119.478C334.616 127.961 330.289 137.941 330.289 149.418V214.786V214.786ZM600.246 102.513V214.786H592.258V186.843C587.598 196.324 580.608 203.809 571.289 209.297C561.969 214.786 551.984 217.531 541.333 217.531C525.023 217.531 511.044 211.792 499.394 200.316C487.745 188.672 481.92 174.784 481.92 158.65C481.92 142.515 487.745 128.71 499.394 117.233C511.044 105.59 525.023 99.7681 541.333 99.7681C551.984 99.7681 562.135 102.596 571.788 108.251C581.607 113.906 588.43 121.391 592.258 130.706V102.513H600.246ZM489.908 158.899C489.908 172.871 494.984 185.013 505.136 195.326C515.454 205.472 527.603 210.545 541.582 210.545C555.728 210.545 567.794 205.472 577.779 195.326C587.764 185.013 592.757 172.871 592.757 158.899C592.757 144.761 587.681 132.535 577.53 122.223C567.544 111.91 555.562 106.754 541.582 106.754C527.603 106.754 515.454 111.993 505.136 122.472C494.984 132.785 489.908 144.927 489.908 158.899Z" fill="white"/>
<path d="M48.6392 27.6633H50.3035V26H48.6392V27.6633ZM48.6392 207.551H46.975V209.214H48.6392V207.551ZM106.554 207.551H108.218V205.888H106.554V207.551ZM106.554 214.786V216.45H108.218V214.786H106.554ZM40.4014 214.786H38.7371V216.45H40.4014V214.786ZM40.4014 27.6633V26H38.7371V27.6633H40.4014ZM46.975 27.6633V207.551H50.3035V27.6633H46.975ZM48.6392 209.214H106.554V205.888H48.6392V209.214ZM104.89 207.551V214.786H108.218V207.551H104.89ZM106.554 213.123H40.4014V216.45H106.554V213.123ZM42.0656 214.786V27.6633H38.7371V214.786H42.0656ZM40.4014 29.3266H48.6392V26H40.4014V29.3266V29.3266ZM251.928 102.513V100.849H250.263V102.513H251.928ZM259.916 102.513H261.58V100.849H259.916V102.513ZM259.916 214.786V216.45H261.58V214.786H259.916ZM251.928 214.786H250.263V216.45H251.928V214.786ZM251.928 192.082H253.592L250.44 191.339L251.928 192.082ZM173.293 203.06L174.481 201.894L173.293 203.06ZM159.064 102.513V100.849H157.4V102.513H159.064ZM167.053 102.513H168.717V100.849H167.053V102.513ZM179.035 197.821L177.823 198.961L177.829 198.967L177.835 198.973L179.035 197.821V197.821ZM238.697 197.821L237.544 196.622L237.538 196.627L237.532 196.633L238.697 197.821ZM251.928 104.176H259.916V100.849H251.928V104.176ZM258.252 102.513V214.786H261.58V102.513H258.252ZM259.916 213.123H251.928V216.45H259.916V213.123ZM253.592 214.786V192.082H250.263V214.786H253.592ZM250.44 191.339C246.32 199.572 240.788 205.676 233.862 209.734C226.929 213.796 218.496 215.868 208.492 215.868V219.194C218.958 219.194 228 217.024 235.545 212.603C243.097 208.179 249.048 201.558 253.416 192.826L250.44 191.339V191.339ZM208.492 215.868C194.942 215.868 183.642 211.212 174.481 201.894L172.107 204.226C181.917 214.203 194.083 219.194 208.492 219.194V215.868ZM174.481 201.894C165.308 192.565 160.729 181.261 160.729 167.881H157.4C157.4 182.112 162.308 194.26 172.107 204.226L174.481 201.894V201.894ZM160.729 167.881V102.513H157.4V167.881H160.729ZM159.064 104.176H167.053V100.849H159.064V104.176ZM165.388 102.513V167.881H168.717V102.513H165.388ZM165.388 167.881C165.388 179.789 169.55 190.174 177.823 198.961L180.247 196.68C172.544 188.501 168.717 178.927 168.717 167.881H165.388V167.881ZM177.835 198.973C186.295 207.773 196.543 212.208 208.492 212.208V208.882C197.474 208.882 188.085 204.834 180.236 196.668L177.835 198.973V198.973ZM208.492 212.208C220.437 212.208 230.917 207.777 239.863 199.008L237.532 196.633C229.17 204.83 219.513 208.882 208.492 208.882V212.208ZM239.851 199.019C248.974 190.246 253.592 179.843 253.592 167.881H250.263C250.263 178.873 246.062 188.43 237.544 196.622L239.851 199.019V199.019ZM253.592 167.881V102.513H250.263V167.881H253.592V167.881ZM330.289 214.786V216.45H331.953V214.786H330.289ZM322.301 214.786H320.637V216.45H322.301V214.786ZM322.301 102.513V100.849H320.637V102.513H322.301ZM330.289 102.513H331.953V100.849H330.289V102.513ZM330.289 125.217H328.625L331.778 125.96L330.289 125.217ZM408.923 114.239L407.737 115.405L408.923 114.239ZM423.152 214.786V216.45H424.817V214.786H423.152ZM415.164 214.786H413.5V216.45H415.164V214.786ZM402.932 119.478L401.721 120.619L401.726 120.624L401.732 120.631L402.932 119.478ZM343.27 119.478L342.117 118.28L342.111 118.285L342.105 118.291L343.27 119.478V119.478ZM330.289 213.123H322.301V216.45H330.289V213.123ZM323.965 214.786V102.513H320.637V214.786H323.965V214.786ZM322.301 104.176H330.289V100.849H322.301V104.176ZM328.625 102.513V125.217H331.953V102.513H328.625V102.513ZM331.778 125.96C335.897 117.727 341.429 111.623 348.356 107.565C355.289 103.503 363.722 101.431 373.725 101.431V98.1048C363.26 98.1048 354.218 100.275 346.672 104.696C339.119 109.12 333.169 115.741 328.801 124.473L331.778 125.96ZM373.725 101.431C387.275 101.431 398.575 106.087 407.737 115.405L410.111 113.073C400.3 103.096 388.135 98.1048 373.725 98.1048V101.431V101.431ZM407.737 115.405C416.91 124.734 421.488 136.038 421.488 149.418H424.817C424.817 135.187 419.91 123.039 410.111 113.073L407.737 115.405ZM421.488 149.418V214.786H424.817V149.418H421.488ZM423.152 213.123H415.164V216.45H423.152V213.123ZM416.828 214.786V149.418H413.5V214.786H416.828ZM416.828 149.418C416.828 137.5 412.577 127.11 404.133 118.326L401.732 120.631C409.597 128.812 413.5 138.383 413.5 149.418H416.828ZM404.145 118.338C395.847 109.528 385.675 105.091 373.725 105.091V108.417C384.742 108.417 394.041 112.463 401.721 120.619L404.145 118.338V118.338ZM373.725 105.091C361.782 105.091 351.224 109.52 342.117 118.28L344.424 120.677C352.957 112.471 362.703 108.417 373.725 108.417V105.091V105.091ZM342.105 118.291C333.152 127.067 328.625 137.467 328.625 149.418H331.953C331.953 138.415 336.081 128.855 344.436 120.666L342.105 118.291V118.291ZM328.625 149.418V214.786H331.953V149.418H328.625V149.418ZM600.246 102.513H601.91V100.849H600.246V102.513ZM600.246 214.786V216.45H601.91V214.786H600.246ZM592.258 214.786H590.594V216.45H592.258V214.786ZM592.258 186.843H593.922L590.763 186.109L592.258 186.843ZM571.289 209.297L570.443 207.865L571.289 209.297ZM499.394 200.316L498.217 201.492L498.221 201.496L498.226 201.5L499.394 200.316V200.316ZM499.394 117.233L500.563 118.417L500.567 118.413L500.571 118.409L499.394 117.233V117.233ZM571.788 108.251L570.946 109.686L570.952 109.689L570.957 109.692L571.788 108.251ZM592.258 130.706L590.718 131.338L593.922 130.706H592.258ZM592.258 102.513V100.849H590.594V102.513H592.258ZM505.136 195.326L503.949 196.492L503.959 196.502L503.969 196.512L505.136 195.326V195.326ZM577.779 195.326L578.965 196.492L578.97 196.487L578.975 196.482L577.779 195.326V195.326ZM577.53 122.223L576.333 123.38L576.338 123.385L576.343 123.39L577.53 122.223ZM505.136 122.472L503.949 121.306L505.136 122.472ZM598.582 102.513V214.786H601.91V102.513H598.582V102.513ZM600.246 213.123H592.258V216.45H600.246V213.123ZM593.922 214.786V186.843H590.594V214.786H593.922ZM590.763 186.109C586.251 195.292 579.49 202.536 570.443 207.865L572.133 210.73C581.726 205.081 588.944 197.356 593.752 187.576L590.763 186.109V186.109ZM570.443 207.865C561.376 213.205 551.682 215.868 541.333 215.868V219.194C552.285 219.194 562.562 216.367 572.133 210.73L570.443 207.865ZM541.333 215.868C525.462 215.868 511.902 210.302 500.563 199.131L498.226 201.5C510.186 213.283 524.584 219.194 541.333 219.194V215.868V215.868ZM500.571 199.14C489.226 187.801 483.584 174.332 483.584 158.649H480.256C480.256 175.235 486.263 189.544 498.217 201.492L500.571 199.14ZM483.584 158.649C483.584 142.967 489.225 129.586 500.563 118.417L498.226 116.049C486.264 127.833 480.256 142.064 480.256 158.649H483.584ZM500.571 118.409C511.912 107.074 525.469 101.431 541.333 101.431V98.1048C524.577 98.1048 510.175 104.105 498.217 116.057L500.571 118.409V118.409ZM541.333 101.431C551.673 101.431 561.536 104.173 570.946 109.686L572.629 106.816C562.735 101.02 552.294 98.1048 541.333 98.1048V101.431ZM570.957 109.692C580.499 115.188 587.048 122.406 590.718 131.338L593.797 130.074C589.812 120.377 582.714 112.625 572.618 106.81L570.957 109.692V109.692ZM593.922 130.706V102.513H590.594V130.706H593.922ZM592.258 104.176H600.246V100.849H592.258V104.176ZM488.244 158.899C488.244 173.324 493.503 185.88 503.949 196.492L506.322 194.159C496.465 184.146 491.573 172.418 491.573 158.899H488.244ZM503.969 196.512C514.585 206.951 527.149 212.208 541.582 212.208V208.882C528.056 208.882 516.322 203.992 506.303 194.14L503.969 196.512ZM541.582 212.208C556.178 212.208 568.669 206.954 578.965 196.492L576.593 194.16C566.918 203.99 555.278 208.882 541.582 208.882V212.208ZM578.975 196.482C589.251 185.869 594.421 173.316 594.421 158.899H591.093C591.093 172.426 586.277 184.157 576.583 194.169L578.975 196.482ZM594.421 158.899C594.421 144.313 589.166 131.672 578.715 121.056L576.343 123.39C586.196 133.399 591.093 145.208 591.093 158.899H594.421ZM578.725 121.066C568.435 110.44 556.026 105.091 541.582 105.091V108.417C555.097 108.417 566.652 113.381 576.333 123.38L578.725 121.066V121.066ZM541.582 105.091C527.131 105.091 514.562 110.527 503.949 121.306L506.322 123.639C516.345 113.46 528.074 108.417 541.582 108.417V105.091ZM503.949 121.306C493.503 131.918 488.244 144.474 488.244 158.899H491.573C491.573 145.38 496.465 133.652 506.322 123.639L503.949 121.306V121.306ZM115.79 190.502L114.331 191.301L117.455 190.502H115.79ZM100.064 174.035L99.1915 175.451L99.1999 175.456L99.2074 175.461L100.064 174.035ZM57.1268 175.782L58.2276 177.029L58.2301 177.027L57.1268 175.782ZM66.1135 226.43L65.1208 227.765L65.1292 227.771L66.1135 226.43ZM82.8389 237.408L81.9885 238.837L82.011 238.85L82.0343 238.863L82.8389 237.408V237.408ZM101.561 248.884L100.629 250.262L100.651 250.277L100.673 250.291L101.561 248.884ZM118.536 261.858L117.401 263.074L117.422 263.094L117.443 263.112L118.536 261.858ZM131.018 278.575L129.514 279.288L129.522 279.303L129.529 279.318L131.018 278.575V278.575ZM119.785 340.699L118.699 339.44L118.694 339.444L118.689 339.448L119.785 340.699V340.699ZM31.6642 328.973H30V329.479L30.2813 329.899L31.6642 328.973ZM31.6642 315.5L33.1787 314.81L30 315.5H31.6642V315.5ZM50.6363 338.704L49.6636 340.053L49.6794 340.064L49.6944 340.075L50.6363 338.704ZM114.542 335.46L115.637 336.713L114.542 335.46ZM121.782 279.323L120.366 280.199L120.371 280.206L120.376 280.214L121.782 279.323V279.323ZM105.556 262.357L104.609 263.725L104.62 263.733L104.633 263.741L105.556 262.357V262.357ZM84.3367 248.385L85.2246 246.978L84.3367 248.385V248.385ZM46.8918 219.194L48.2648 218.255L46.8918 219.194ZM115.79 177.778H117.455V177.197L117.094 176.743L115.79 177.778ZM117.25 189.703C113.284 182.466 107.837 176.757 100.92 172.609L99.2074 175.461C105.604 179.297 110.641 184.566 114.331 191.301L117.25 189.703V189.703ZM100.936 172.619C94.1648 168.454 86.536 166.384 78.0959 166.384V169.711C85.9652 169.711 92.9823 171.633 99.1915 175.451L100.936 172.619ZM78.0959 166.384C69.556 166.384 62.1677 169.097 56.0234 174.537L58.2301 177.027C63.7345 172.154 70.3265 169.711 78.0959 169.711V166.384ZM56.0259 174.534C49.9473 179.894 46.975 187.286 46.975 196.49H50.3035C50.3035 188.063 52.9895 181.649 58.2276 177.029L56.0259 174.534V174.534ZM46.975 196.49V197.737H50.3035V196.49H46.975ZM46.975 197.737C46.975 208.927 53.2233 218.931 65.1208 227.764L67.1062 225.095C55.7039 216.63 50.3035 207.506 50.3035 197.737H46.975ZM65.1292 227.771C70.1717 231.466 75.7918 235.155 81.9877 238.837L83.6894 235.978C77.5709 232.342 72.0415 228.712 67.0971 225.088L65.1292 227.771V227.771ZM82.0343 238.863C88.3993 242.384 94.6039 246.188 100.629 250.262L102.493 247.506C96.3857 243.376 90.0962 239.521 83.6436 235.952L82.0343 238.863V238.863ZM100.673 250.291C106.917 254.232 112.491 258.494 117.401 263.074L119.672 260.642C114.596 255.908 108.854 251.521 102.45 247.478L100.673 250.291ZM117.443 263.112C122.417 267.442 126.443 272.825 129.514 279.288L132.522 277.861C129.269 271.017 124.974 265.256 119.63 260.604L117.443 263.112V263.112ZM129.529 279.318C132.734 285.724 134.346 292.785 134.346 300.53H137.675C137.675 292.308 135.959 284.731 132.507 277.831L129.529 279.318ZM134.346 300.53V303.025H137.675V300.53H134.346ZM134.346 303.025C134.346 318.401 129.107 330.477 118.699 339.44L120.87 341.959C132.097 332.293 137.675 319.253 137.675 303.025H134.346V303.025ZM118.689 339.448C108.377 348.466 95.5502 353.008 80.093 353.008V356.335C96.2559 356.335 109.891 351.563 120.88 341.951L118.689 339.448V339.448ZM80.093 353.008C59.8394 353.008 44.2183 344.714 33.0472 328.047L30.2813 329.899C42.0764 347.497 58.7411 356.335 80.093 356.335V353.008ZM33.3284 328.973V315.5H30V328.973H33.3284ZM30.1498 316.191C34.5949 325.93 41.1037 333.893 49.6636 340.053L51.609 337.354C43.5268 331.538 37.3875 324.032 33.1778 314.81L30.1498 316.191ZM49.6944 340.075C58.5139 346.124 69.3446 349.099 82.09 349.099V345.773C69.8722 345.773 59.7338 342.927 51.5783 337.332L49.6944 340.075V340.075ZM82.09 349.099C94.9619 349.099 106.171 344.969 115.637 336.713L113.448 334.207C104.607 341.919 94.1814 345.773 82.09 345.773V349.099ZM115.637 336.713C125.189 328.381 129.936 317.259 129.936 303.524H126.608C126.608 316.403 122.202 326.571 113.448 334.207L115.637 336.713ZM129.936 303.524V302.027H126.608V303.524H129.936ZM129.936 302.027C129.936 293.406 127.688 285.526 123.187 278.432L120.376 280.214C124.529 286.759 126.608 294.016 126.608 302.027H129.936ZM123.197 278.447C118.751 271.27 113.178 265.437 106.478 260.973L104.633 263.741C110.913 267.927 116.158 273.404 120.366 280.199L123.197 278.447V278.447ZM106.502 260.99C99.9904 256.483 92.8975 251.813 85.2246 246.978L83.4489 249.793C91.0876 254.605 98.1398 259.249 104.609 263.725L106.502 260.99ZM85.2246 246.978C78.1382 242.516 71.0685 238.027 64.0158 233.512L62.2201 236.313C69.2794 240.833 76.3558 245.326 83.4489 249.793L85.2246 246.978ZM64.0158 233.512C57.7126 229.474 52.4661 224.39 48.2656 218.255L45.518 220.133C49.9723 226.639 55.5424 232.035 62.2201 236.313L64.0158 233.512ZM48.2656 218.255C44.1234 212.204 42.0656 205.627 42.0656 198.486H38.7371C38.7371 206.314 41.0063 213.543 45.5188 220.133L48.2648 218.255H48.2656ZM42.0656 198.486V196.739H38.7371V198.486H42.0656ZM42.0656 196.739C42.0656 185.483 45.6653 177.102 52.6916 171.328L50.5781 168.758C42.6264 175.293 38.7371 184.71 38.7371 196.739H42.0656ZM52.6916 171.328C59.8436 165.451 68.6914 162.475 79.3441 162.475V159.148C68.0291 159.148 58.404 162.327 50.5781 168.758L52.6916 171.328V171.328ZM79.3441 162.475C94.1822 162.475 105.837 167.925 114.487 178.812L117.094 176.743C107.771 165.009 95.1275 159.148 79.3441 159.148V162.475ZM114.126 177.778V190.502H117.455V177.778H114.126ZM236.125 345.689H237.789V344.026H236.125V345.689ZM236.125 352.675V354.339H237.789V352.675H236.125ZM205.92 340.949L204.767 342.149L204.774 342.155L204.78 342.161L205.92 340.949V340.949ZM193.438 193.745V192.082H191.774V193.745H193.438ZM201.426 193.745H203.09V192.082H201.426V193.745ZM201.426 239.154H199.762V240.817H201.426V239.154ZM235.875 239.154H237.54V237.491H235.875V239.154ZM235.875 246.14V247.803H237.54V246.14H235.875ZM201.426 246.14V244.477H199.762V246.14H201.426ZM211.411 335.71L210.235 336.886L210.242 336.893L210.249 336.9L211.411 335.71ZM234.461 345.689V352.675H237.789V345.689H234.461ZM236.125 351.012C224.717 351.012 215.06 347.254 207.06 339.737L204.78 342.161C213.421 350.279 223.902 354.339 236.125 354.339V351.012V351.012ZM207.072 339.749C199.102 332.102 195.102 322.4 195.102 310.51H191.774C191.774 323.238 196.095 333.828 204.767 342.149L207.072 339.749V339.749ZM195.102 310.51V193.745H191.774V310.51H195.102ZM193.438 195.409H201.426V192.082H193.438V195.409ZM199.762 193.745V239.154H203.09V193.745H199.762ZM201.426 240.817H235.875V237.491H201.426V240.817ZM234.211 239.154V246.14H237.54V239.154H234.211ZM235.875 244.477H201.426V247.803H235.875V244.477ZM199.762 246.14V310.51H203.09V246.14H199.762V246.14ZM199.762 310.51C199.762 321.06 203.24 329.895 210.235 336.886L212.588 334.534C206.27 328.218 203.09 320.253 203.09 310.51H199.762V310.51ZM210.249 336.9C217.388 343.861 226.045 347.353 236.125 347.353V344.026C226.901 344.026 219.082 340.865 212.574 334.519L210.249 336.9V336.9ZM381.464 238.905V237.241H379.8V238.905H381.464ZM389.452 238.905H391.116V237.241H389.452V238.905ZM389.452 351.178V352.842H391.116V351.178H389.452ZM381.464 351.178H379.8V352.842H381.464V351.178ZM381.464 328.474H383.128L379.976 327.731L381.464 328.474ZM302.829 339.452L304.017 338.286L302.829 339.452ZM288.6 238.905V237.241H286.936V238.905H288.6ZM296.589 238.905H298.253V237.241H296.589V238.905ZM308.571 334.213L307.359 335.353L307.365 335.359L307.371 335.365L308.571 334.213V334.213ZM368.233 334.213L367.08 333.014L367.074 333.019L367.068 333.025L368.233 334.213V334.213ZM381.464 240.568H389.452V237.241H381.464V240.568ZM387.788 238.905V351.178H391.116V238.905H387.788ZM389.452 349.515H381.464V352.842H389.452V349.515ZM383.128 351.178V328.474H379.8V351.178H383.128ZM379.976 327.731C375.856 335.964 370.324 342.068 363.398 346.126C356.465 350.188 348.032 352.26 338.028 352.26V355.586C348.494 355.586 357.536 353.416 365.081 348.995C372.633 344.571 378.584 337.95 382.952 329.218L379.976 327.731V327.731ZM338.028 352.26C324.478 352.26 313.178 347.604 304.017 338.286L301.643 340.618C311.453 350.595 323.619 355.586 338.028 355.586V352.26V352.26ZM304.017 338.286C294.844 328.957 290.265 317.653 290.265 304.273H286.936C286.936 318.504 291.844 330.652 301.643 340.618L304.017 338.286ZM290.265 304.273V238.905H286.936V304.273H290.265ZM288.6 240.568H296.589V237.241H288.6V240.568ZM294.924 238.905V304.273H298.253V238.905H294.924ZM294.924 304.273C294.924 316.181 299.086 326.566 307.359 335.353L309.783 333.072C302.081 324.893 298.253 315.319 298.253 304.273H294.924V304.273ZM307.371 335.365C315.831 344.165 326.079 348.6 338.028 348.6V345.274C327.011 345.274 317.621 341.226 309.772 333.06L307.371 335.365ZM338.028 348.6C349.973 348.6 360.453 344.169 369.399 335.4L367.068 333.025C358.706 341.222 349.049 345.274 338.028 345.274V348.6V348.6ZM369.387 335.411C378.51 326.638 383.128 316.235 383.128 304.273H379.8C379.8 315.265 375.598 324.821 367.08 333.014L369.387 335.411V335.411ZM383.128 304.273V238.905H379.8V304.273H383.128ZM563.922 164.055H565.586V162.392H563.922V164.055ZM563.922 351.178V352.842H565.586V351.178H563.922ZM555.934 351.178H554.27V352.842H555.934V351.178ZM555.934 323.983H557.598L554.473 323.186L555.934 323.983ZM534.216 345.939L535.03 347.389L535.04 347.384L535.05 347.379L534.216 345.939V345.939ZM462.821 336.708L461.636 337.875L461.644 337.884L461.652 337.892L462.821 336.708ZM462.821 253.625L461.644 252.449L462.821 253.625ZM534.715 244.393L533.881 245.833L533.887 245.836L533.892 245.839L534.715 244.393ZM555.934 266.349L554.44 267.082L557.598 266.349H555.934ZM555.934 164.055V162.392H554.27V164.055H555.934ZM468.562 331.718L467.367 332.874L467.372 332.879L467.376 332.884L468.562 331.718ZM540.956 331.718L542.132 332.894L540.956 331.718ZM540.956 258.864L539.76 260.021L539.77 260.031L539.779 260.04L540.956 258.864V258.864ZM468.562 258.615L467.377 257.448L467.372 257.453L467.367 257.458L468.562 258.615V258.615ZM562.258 164.055V351.178H565.586V164.055H562.258V164.055ZM563.922 349.515H555.934V352.842H563.922V349.515ZM557.598 351.178V323.983H554.27V351.178H557.598V351.178ZM554.473 323.186C549.634 332.054 542.618 339.155 533.382 344.499L535.05 347.379C544.786 341.745 552.248 334.209 557.395 324.78L554.473 323.186V323.186ZM533.401 344.489C524.141 349.685 514.684 352.26 505.009 352.26V355.586C515.304 355.586 525.319 352.838 535.03 347.389L533.401 344.489ZM505.009 352.26C488.966 352.26 475.325 346.691 463.989 335.523L461.652 337.892C473.616 349.678 488.099 355.586 505.009 355.586V352.26ZM464.007 335.54C452.825 324.204 447.26 310.732 447.26 295.041H443.932C443.932 311.619 449.851 325.925 461.636 337.875L464.007 335.54V335.54ZM447.26 295.041C447.26 279.351 452.825 265.968 463.997 254.801L461.644 252.449C449.851 264.235 443.932 278.463 443.932 295.041H447.26ZM463.997 254.801C475.335 243.47 488.975 237.823 505.009 237.823V234.497C488.092 234.497 473.606 240.494 461.644 252.449L463.997 254.801V254.801ZM505.009 237.823C515.016 237.823 524.632 240.481 533.881 245.833L535.549 242.954C525.826 237.328 515.638 234.497 505.009 234.497V237.823V237.823ZM533.892 245.839C543.282 251.178 550.107 258.261 554.44 267.082L557.428 265.617C552.774 256.141 545.453 248.587 535.538 242.948L533.892 245.839ZM557.598 266.349V164.055H554.27V266.349H557.598ZM555.934 165.719H563.922V162.392H555.934V165.719ZM451.92 295.291C451.92 309.708 457.09 322.261 467.367 332.874L469.758 330.561C460.064 320.549 455.249 308.818 455.249 295.291H451.92ZM467.376 332.884C477.667 343.342 490.075 348.6 504.509 348.6V345.274C490.986 345.274 479.428 340.386 469.749 330.552L467.376 332.884ZM504.509 348.6C519.104 348.6 531.674 343.347 542.132 332.894L539.779 330.542C529.935 340.381 518.207 345.274 504.509 345.274V348.6V348.6ZM542.132 332.894C552.748 322.284 558.097 309.725 558.097 295.291H554.769C554.769 308.8 549.8 320.526 539.779 330.542L542.132 332.894ZM558.097 295.291C558.097 280.857 552.748 268.298 542.132 257.688L539.779 260.04C549.8 270.056 554.769 281.781 554.769 295.291H558.097ZM542.152 257.707C531.702 246.921 519.211 241.483 504.759 241.483V244.809C518.266 244.809 529.907 249.85 539.76 260.021L542.152 257.707ZM504.759 241.483C490.316 241.483 477.829 246.83 467.377 257.448L469.749 259.782C479.6 249.774 491.243 244.809 504.759 244.809V241.483ZM467.367 257.458C457.086 268.076 451.92 280.714 451.92 295.291H455.249C455.249 281.592 460.068 269.779 469.758 259.772L467.367 257.458ZM640.144 239.154H641.808V237.491H640.144V239.154ZM640.144 351.178V352.842H641.808V351.178H640.144ZM632.156 351.178H630.492V352.842H632.156V351.178ZM632.156 239.154V237.491H630.492V239.154H632.156ZM638.48 239.154V351.178H641.808V239.154H638.48ZM640.144 349.515H632.156V352.842H640.144V349.515ZM633.82 351.178V239.154H630.492V351.178H633.82ZM632.156 240.817H640.144V237.491H632.156V240.817ZM636.15 210.046C633.965 210.046 632.636 209.535 631.855 208.808C631.095 208.102 630.575 206.931 630.575 204.973H627.246C627.246 207.506 627.933 209.703 629.586 211.243C631.218 212.761 633.509 213.373 636.15 213.373V210.046ZM630.575 204.973C630.575 203.015 631.095 201.844 631.855 201.138C632.636 200.41 633.965 199.9 636.15 199.9V196.573C633.509 196.573 631.218 197.185 629.586 198.703C627.933 200.242 627.246 202.44 627.246 204.973H630.575ZM636.15 199.9C638.335 199.9 639.664 200.41 640.445 201.138C641.205 201.844 641.725 203.015 641.725 204.973H645.054C645.054 202.44 644.367 200.242 642.714 198.703C641.082 197.185 638.791 196.573 636.15 196.573V199.9ZM641.725 204.973C641.725 206.931 641.205 208.102 640.445 208.808C639.664 209.535 638.335 210.046 636.15 210.046V213.373C638.791 213.373 641.082 212.761 642.714 211.243C644.367 209.703 645.054 207.506 645.054 204.973H641.725ZM719.211 336.209L718.01 337.36L718.018 337.368L719.211 336.209ZM719.461 253.625L720.629 254.809L720.633 254.805L720.637 254.801L719.461 253.625ZM803.337 253.625L802.152 254.793L802.161 254.801L802.169 254.809L803.337 253.625ZM803.837 336.209L802.635 335.058L803.837 336.209V336.209ZM797.596 258.615L796.4 259.772L796.405 259.777L796.41 259.782L797.596 258.615V258.615ZM725.202 258.864L724.017 257.697L725.202 258.864V258.864ZM725.202 331.718L724.017 332.884L724.026 332.894L724.036 332.904L725.202 331.718V331.718ZM797.845 331.718L799.032 332.884L799.037 332.879L799.042 332.874L797.845 331.718ZM760.401 352.26C744.889 352.26 731.585 346.548 720.405 335.049L718.018 337.368C729.803 349.488 743.959 355.586 760.401 355.586V352.26ZM720.413 335.058C709.21 323.374 703.651 309.892 703.651 294.542H700.322C700.322 310.796 706.246 325.091 718.01 337.36L720.413 335.058ZM703.651 294.542C703.651 279.203 709.285 265.986 720.629 254.809L718.292 252.441C706.338 264.218 700.322 278.279 700.322 294.542H703.651ZM720.637 254.801C731.979 243.466 745.537 237.823 761.399 237.823V234.497C744.644 234.497 730.242 240.497 718.284 252.449L720.637 254.801ZM761.399 237.823C777.433 237.823 790.985 243.469 802.152 254.793L804.523 252.457C792.725 240.495 778.317 234.497 761.399 234.497V237.823ZM802.169 254.809C813.51 265.982 819.147 279.282 819.147 294.792H822.476C822.476 278.367 816.464 264.221 804.506 252.441L802.169 254.809V254.809ZM819.147 294.792C819.147 310.149 813.666 323.547 802.635 335.058L805.039 337.359C816.64 325.251 822.476 311.038 822.476 294.792H819.147ZM802.635 335.058C791.627 346.545 778.33 352.26 762.647 352.26V355.586C779.251 355.586 793.413 349.491 805.039 337.359L802.635 335.058V335.058ZM762.647 352.26H760.401V355.586H762.647V352.26ZM814.488 295.291C814.488 280.705 809.232 268.064 798.782 257.448L796.41 259.782C806.263 269.791 811.159 281.6 811.159 295.291H814.488ZM798.792 257.458C788.503 246.832 776.092 241.483 761.649 241.483V244.809C775.164 244.809 786.718 249.773 796.4 259.772L798.792 257.458ZM761.649 241.483C747.198 241.483 734.629 246.919 724.017 257.697L726.389 260.031C736.412 249.852 748.141 244.809 761.649 244.809V241.483ZM724.017 257.697C713.57 268.309 708.31 280.866 708.31 295.291H711.639C711.639 281.772 716.531 270.044 726.389 260.031L724.017 257.697V257.697ZM708.31 295.291C708.31 309.716 713.57 322.272 724.017 332.884L726.389 330.551C716.531 320.538 711.639 308.81 711.639 295.291H708.31V295.291ZM724.036 332.904C734.653 343.343 747.216 348.6 761.649 348.6V345.274C748.124 345.274 736.389 340.384 726.37 330.532L724.036 332.904ZM761.649 348.6C776.244 348.6 788.736 343.346 799.032 332.884L796.659 330.552C786.985 340.382 775.345 345.274 761.649 345.274V348.6V348.6ZM799.042 332.874C809.319 322.261 814.488 309.708 814.488 295.291H811.159C811.159 308.818 806.344 320.549 796.65 330.561L799.042 332.874V332.874Z" fill="white"/>
</g>
<g clip-path="url(#clip1_608_5)" filter="url(#filter0_d_608_5)">
<path d="M48.6392 27.6633V207.551H106.554V214.786H40.4014V27.6633H48.6392ZM251.928 102.513H259.916V214.786H251.928V192.082C243.44 209.048 228.961 217.531 208.492 217.531C194.512 217.531 182.779 212.707 173.293 203.06C163.807 193.413 159.064 181.686 159.064 167.881V102.513H167.053V167.881C167.053 179.358 171.047 189.338 179.035 197.821C187.19 206.304 197.008 210.545 208.492 210.545C219.975 210.545 230.043 206.304 238.697 197.821C247.518 189.338 251.928 179.358 251.928 167.881V102.513ZM330.289 214.786H322.301V102.513H330.289V125.217C338.777 108.251 353.255 99.7681 373.725 99.7681C387.705 99.7681 399.437 104.592 408.923 114.239C418.409 123.886 423.152 135.613 423.152 149.418V214.786H415.164V149.418C415.164 137.941 411.087 127.961 402.932 119.478C394.944 110.995 385.208 106.754 373.725 106.754C362.242 106.754 352.09 110.995 343.27 119.478C334.616 127.961 330.289 137.941 330.289 149.418V214.786V214.786ZM600.246 102.513V214.786H592.258V186.843C587.598 196.324 580.608 203.809 571.289 209.297C561.969 214.786 551.984 217.531 541.333 217.531C525.023 217.531 511.044 211.792 499.394 200.316C487.745 188.672 481.92 174.784 481.92 158.65C481.92 142.515 487.745 128.71 499.394 117.233C511.044 105.59 525.023 99.7681 541.333 99.7681C551.984 99.7681 562.135 102.596 571.788 108.251C581.607 113.906 588.43 121.391 592.258 130.706V102.513H600.246ZM489.908 158.899C489.908 172.871 494.984 185.013 505.136 195.326C515.454 205.472 527.603 210.545 541.582 210.545C555.728 210.545 567.794 205.472 577.779 195.326C587.764 185.013 592.757 172.871 592.757 158.899C592.757 144.761 587.681 132.535 577.53 122.223C567.544 111.91 555.562 106.754 541.582 106.754C527.603 106.754 515.454 111.993 505.136 122.472C494.984 132.785 489.908 144.927 489.908 158.899Z" fill="white"/>
<path d="M48.6392 27.6633H50.3035V26H48.6392V27.6633ZM48.6392 207.551H46.975V209.214H48.6392V207.551ZM106.554 207.551H108.218V205.888H106.554V207.551ZM106.554 214.786V216.45H108.218V214.786H106.554ZM40.4014 214.786H38.7371V216.45H40.4014V214.786ZM40.4014 27.6633V26H38.7371V27.6633H40.4014ZM46.975 27.6633V207.551H50.3035V27.6633H46.975ZM48.6392 209.214H106.554V205.888H48.6392V209.214ZM104.89 207.551V214.786H108.218V207.551H104.89ZM106.554 213.123H40.4014V216.45H106.554V213.123ZM42.0656 214.786V27.6633H38.7371V214.786H42.0656ZM40.4014 29.3266H48.6392V26H40.4014V29.3266V29.3266ZM251.928 102.513V100.849H250.263V102.513H251.928ZM259.916 102.513H261.58V100.849H259.916V102.513ZM259.916 214.786V216.45H261.58V214.786H259.916ZM251.928 214.786H250.263V216.45H251.928V214.786ZM251.928 192.082H253.592L250.44 191.339L251.928 192.082ZM173.293 203.06L174.481 201.894L173.293 203.06ZM159.064 102.513V100.849H157.4V102.513H159.064ZM167.053 102.513H168.717V100.849H167.053V102.513ZM179.035 197.821L177.823 198.961L177.829 198.967L177.835 198.973L179.035 197.821V197.821ZM238.697 197.821L237.544 196.622L237.538 196.627L237.532 196.633L238.697 197.821ZM251.928 104.176H259.916V100.849H251.928V104.176ZM258.252 102.513V214.786H261.58V102.513H258.252ZM259.916 213.123H251.928V216.45H259.916V213.123ZM253.592 214.786V192.082H250.263V214.786H253.592ZM250.44 191.339C246.32 199.572 240.788 205.676 233.862 209.734C226.929 213.796 218.496 215.868 208.492 215.868V219.194C218.958 219.194 228 217.024 235.545 212.603C243.097 208.179 249.048 201.558 253.416 192.826L250.44 191.339V191.339ZM208.492 215.868C194.942 215.868 183.642 211.212 174.481 201.894L172.107 204.226C181.917 214.203 194.083 219.194 208.492 219.194V215.868ZM174.481 201.894C165.308 192.565 160.729 181.261 160.729 167.881H157.4C157.4 182.112 162.308 194.26 172.107 204.226L174.481 201.894V201.894ZM160.729 167.881V102.513H157.4V167.881H160.729ZM159.064 104.176H167.053V100.849H159.064V104.176ZM165.388 102.513V167.881H168.717V102.513H165.388ZM165.388 167.881C165.388 179.789 169.55 190.174 177.823 198.961L180.247 196.68C172.544 188.501 168.717 178.927 168.717 167.881H165.388V167.881ZM177.835 198.973C186.295 207.773 196.543 212.208 208.492 212.208V208.882C197.474 208.882 188.085 204.834 180.236 196.668L177.835 198.973V198.973ZM208.492 212.208C220.437 212.208 230.917 207.777 239.863 199.008L237.532 196.633C229.17 204.83 219.513 208.882 208.492 208.882V212.208ZM239.851 199.019C248.974 190.246 253.592 179.843 253.592 167.881H250.263C250.263 178.873 246.062 188.43 237.544 196.622L239.851 199.019V199.019ZM253.592 167.881V102.513H250.263V167.881H253.592V167.881ZM330.289 214.786V216.45H331.953V214.786H330.289ZM322.301 214.786H320.637V216.45H322.301V214.786ZM322.301 102.513V100.849H320.637V102.513H322.301ZM330.289 102.513H331.953V100.849H330.289V102.513ZM330.289 125.217H328.625L331.778 125.96L330.289 125.217ZM408.923 114.239L407.737 115.405L408.923 114.239ZM423.152 214.786V216.45H424.817V214.786H423.152ZM415.164 214.786H413.5V216.45H415.164V214.786ZM402.932 119.478L401.721 120.619L401.726 120.624L401.732 120.631L402.932 119.478ZM343.27 119.478L342.117 118.28L342.111 118.285L342.105 118.291L343.27 119.478V119.478ZM330.289 213.123H322.301V216.45H330.289V213.123ZM323.965 214.786V102.513H320.637V214.786H323.965V214.786ZM322.301 104.176H330.289V100.849H322.301V104.176ZM328.625 102.513V125.217H331.953V102.513H328.625V102.513ZM331.778 125.96C335.897 117.727 341.429 111.623 348.356 107.565C355.289 103.503 363.722 101.431 373.725 101.431V98.1048C363.26 98.1048 354.218 100.275 346.672 104.696C339.119 109.12 333.169 115.741 328.801 124.473L331.778 125.96ZM373.725 101.431C387.275 101.431 398.575 106.087 407.737 115.405L410.111 113.073C400.3 103.096 388.135 98.1048 373.725 98.1048V101.431V101.431ZM407.737 115.405C416.91 124.734 421.488 136.038 421.488 149.418H424.817C424.817 135.187 419.91 123.039 410.111 113.073L407.737 115.405ZM421.488 149.418V214.786H424.817V149.418H421.488ZM423.152 213.123H415.164V216.45H423.152V213.123ZM416.828 214.786V149.418H413.5V214.786H416.828ZM416.828 149.418C416.828 137.5 412.577 127.11 404.133 118.326L401.732 120.631C409.597 128.812 413.5 138.383 413.5 149.418H416.828ZM404.145 118.338C395.847 109.528 385.675 105.091 373.725 105.091V108.417C384.742 108.417 394.041 112.463 401.721 120.619L404.145 118.338V118.338ZM373.725 105.091C361.782 105.091 351.224 109.52 342.117 118.28L344.424 120.677C352.957 112.471 362.703 108.417 373.725 108.417V105.091V105.091ZM342.105 118.291C333.152 127.067 328.625 137.467 328.625 149.418H331.953C331.953 138.415 336.081 128.855 344.436 120.666L342.105 118.291V118.291ZM328.625 149.418V214.786H331.953V149.418H328.625V149.418ZM600.246 102.513H601.91V100.849H600.246V102.513ZM600.246 214.786V216.45H601.91V214.786H600.246ZM592.258 214.786H590.594V216.45H592.258V214.786ZM592.258 186.843H593.922L590.763 186.109L592.258 186.843ZM571.289 209.297L570.443 207.865L571.289 209.297ZM499.394 200.316L498.217 201.492L498.221 201.496L498.226 201.5L499.394 200.316V200.316ZM499.394 117.233L500.563 118.417L500.567 118.413L500.571 118.409L499.394 117.233V117.233ZM571.788 108.251L570.946 109.686L570.952 109.689L570.957 109.692L571.788 108.251ZM592.258 130.706L590.718 131.338L593.922 130.706H592.258ZM592.258 102.513V100.849H590.594V102.513H592.258ZM505.136 195.326L503.949 196.492L503.959 196.502L503.969 196.512L505.136 195.326V195.326ZM577.779 195.326L578.965 196.492L578.97 196.487L578.975 196.482L577.779 195.326V195.326ZM577.53 122.223L576.333 123.38L576.338 123.385L576.343 123.39L577.53 122.223ZM505.136 122.472L503.949 121.306L505.136 122.472ZM598.582 102.513V214.786H601.91V102.513H598.582V102.513ZM600.246 213.123H592.258V216.45H600.246V213.123ZM593.922 214.786V186.843H590.594V214.786H593.922ZM590.763 186.109C586.251 195.292 579.49 202.536 570.443 207.865L572.133 210.73C581.726 205.081 588.944 197.356 593.752 187.576L590.763 186.109V186.109ZM570.443 207.865C561.376 213.205 551.682 215.868 541.333 215.868V219.194C552.285 219.194 562.562 216.367 572.133 210.73L570.443 207.865ZM541.333 215.868C525.462 215.868 511.902 210.302 500.563 199.131L498.226 201.5C510.186 213.283 524.584 219.194 541.333 219.194V215.868V215.868ZM500.571 199.14C489.226 187.801 483.584 174.332 483.584 158.649H480.256C480.256 175.235 486.263 189.544 498.217 201.492L500.571 199.14ZM483.584 158.649C483.584 142.967 489.225 129.586 500.563 118.417L498.226 116.049C486.264 127.833 480.256 142.064 480.256 158.649H483.584ZM500.571 118.409C511.912 107.074 525.469 101.431 541.333 101.431V98.1048C524.577 98.1048 510.175 104.105 498.217 116.057L500.571 118.409V118.409ZM541.333 101.431C551.673 101.431 561.536 104.173 570.946 109.686L572.629 106.816C562.735 101.02 552.294 98.1048 541.333 98.1048V101.431ZM570.957 109.692C580.499 115.188 587.048 122.406 590.718 131.338L593.797 130.074C589.812 120.377 582.714 112.625 572.618 106.81L570.957 109.692V109.692ZM593.922 130.706V102.513H590.594V130.706H593.922ZM592.258 104.176H600.246V100.849H592.258V104.176ZM488.244 158.899C488.244 173.324 493.503 185.88 503.949 196.492L506.322 194.159C496.465 184.146 491.573 172.418 491.573 158.899H488.244ZM503.969 196.512C514.585 206.951 527.149 212.208 541.582 212.208V208.882C528.056 208.882 516.322 203.992 506.303 194.14L503.969 196.512ZM541.582 212.208C556.178 212.208 568.669 206.954 578.965 196.492L576.593 194.16C566.918 203.99 555.278 208.882 541.582 208.882V212.208ZM578.975 196.482C589.251 185.869 594.421 173.316 594.421 158.899H591.093C591.093 172.426 586.277 184.157 576.583 194.169L578.975 196.482ZM594.421 158.899C594.421 144.313 589.166 131.672 578.715 121.056L576.343 123.39C586.196 133.399 591.093 145.208 591.093 158.899H594.421ZM578.725 121.066C568.435 110.44 556.026 105.091 541.582 105.091V108.417C555.097 108.417 566.652 113.381 576.333 123.38L578.725 121.066V121.066ZM541.582 105.091C527.131 105.091 514.562 110.527 503.949 121.306L506.322 123.639C516.345 113.46 528.074 108.417 541.582 108.417V105.091ZM503.949 121.306C493.503 131.918 488.244 144.474 488.244 158.899H491.573C491.573 145.38 496.465 133.652 506.322 123.639L503.949 121.306V121.306ZM115.79 190.502L114.331 191.301L117.455 190.502H115.79ZM100.064 174.035L99.1915 175.451L99.1999 175.456L99.2074 175.461L100.064 174.035ZM57.1268 175.782L58.2276 177.029L58.2301 177.027L57.1268 175.782ZM66.1135 226.43L65.1208 227.765L65.1292 227.771L66.1135 226.43ZM82.8389 237.408L81.9885 238.837L82.011 238.85L82.0343 238.863L82.8389 237.408V237.408ZM101.561 248.884L100.629 250.262L100.651 250.277L100.673 250.291L101.561 248.884ZM118.536 261.858L117.401 263.074L117.422 263.094L117.443 263.112L118.536 261.858ZM131.018 278.575L129.514 279.288L129.522 279.303L129.529 279.318L131.018 278.575V278.575ZM119.785 340.699L118.699 339.44L118.694 339.444L118.689 339.448L119.785 340.699V340.699ZM31.6642 328.973H30V329.479L30.2813 329.899L31.6642 328.973ZM31.6642 315.5L33.1787 314.81L30 315.5H31.6642V315.5ZM50.6363 338.704L49.6636 340.053L49.6794 340.064L49.6944 340.075L50.6363 338.704ZM114.542 335.46L115.637 336.713L114.542 335.46ZM121.782 279.323L120.366 280.199L120.371 280.206L120.376 280.214L121.782 279.323V279.323ZM105.556 262.357L104.609 263.725L104.62 263.733L104.633 263.741L105.556 262.357V262.357ZM84.3367 248.385L85.2246 246.978L84.3367 248.385V248.385ZM46.8918 219.194L48.2648 218.255L46.8918 219.194ZM115.79 177.778H117.455V177.197L117.094 176.743L115.79 177.778ZM117.25 189.703C113.284 182.466 107.837 176.757 100.92 172.609L99.2074 175.461C105.604 179.297 110.641 184.566 114.331 191.301L117.25 189.703V189.703ZM100.936 172.619C94.1648 168.454 86.536 166.384 78.0959 166.384V169.711C85.9652 169.711 92.9823 171.633 99.1915 175.451L100.936 172.619ZM78.0959 166.384C69.556 166.384 62.1677 169.097 56.0234 174.537L58.2301 177.027C63.7345 172.154 70.3265 169.711 78.0959 169.711V166.384ZM56.0259 174.534C49.9473 179.894 46.975 187.286 46.975 196.49H50.3035C50.3035 188.063 52.9895 181.649 58.2276 177.029L56.0259 174.534V174.534ZM46.975 196.49V197.737H50.3035V196.49H46.975ZM46.975 197.737C46.975 208.927 53.2233 218.931 65.1208 227.764L67.1062 225.095C55.7039 216.63 50.3035 207.506 50.3035 197.737H46.975ZM65.1292 227.771C70.1717 231.466 75.7918 235.155 81.9877 238.837L83.6894 235.978C77.5709 232.342 72.0415 228.712 67.0971 225.088L65.1292 227.771V227.771ZM82.0343 238.863C88.3993 242.384 94.6039 246.188 100.629 250.262L102.493 247.506C96.3857 243.376 90.0962 239.521 83.6436 235.952L82.0343 238.863V238.863ZM100.673 250.291C106.917 254.232 112.491 258.494 117.401 263.074L119.672 260.642C114.596 255.908 108.854 251.521 102.45 247.478L100.673 250.291ZM117.443 263.112C122.417 267.442 126.443 272.825 129.514 279.288L132.522 277.861C129.269 271.017 124.974 265.256 119.63 260.604L117.443 263.112V263.112ZM129.529 279.318C132.734 285.724 134.346 292.785 134.346 300.53H137.675C137.675 292.308 135.959 284.731 132.507 277.831L129.529 279.318ZM134.346 300.53V303.025H137.675V300.53H134.346ZM134.346 303.025C134.346 318.401 129.107 330.477 118.699 339.44L120.87 341.959C132.097 332.293 137.675 319.253 137.675 303.025H134.346V303.025ZM118.689 339.448C108.377 348.466 95.5502 353.008 80.093 353.008V356.335C96.2559 356.335 109.891 351.563 120.88 341.951L118.689 339.448V339.448ZM80.093 353.008C59.8394 353.008 44.2183 344.714 33.0472 328.047L30.2813 329.899C42.0764 347.497 58.7411 356.335 80.093 356.335V353.008ZM33.3284 328.973V315.5H30V328.973H33.3284ZM30.1498 316.191C34.5949 325.93 41.1037 333.893 49.6636 340.053L51.609 337.354C43.5268 331.538 37.3875 324.032 33.1778 314.81L30.1498 316.191ZM49.6944 340.075C58.5139 346.124 69.3446 349.099 82.09 349.099V345.773C69.8722 345.773 59.7338 342.927 51.5783 337.332L49.6944 340.075V340.075ZM82.09 349.099C94.9619 349.099 106.171 344.969 115.637 336.713L113.448 334.207C104.607 341.919 94.1814 345.773 82.09 345.773V349.099ZM115.637 336.713C125.189 328.381 129.936 317.259 129.936 303.524H126.608C126.608 316.403 122.202 326.571 113.448 334.207L115.637 336.713ZM129.936 303.524V302.027H126.608V303.524H129.936ZM129.936 302.027C129.936 293.406 127.688 285.526 123.187 278.432L120.376 280.214C124.529 286.759 126.608 294.016 126.608 302.027H129.936ZM123.197 278.447C118.751 271.27 113.178 265.437 106.478 260.973L104.633 263.741C110.913 267.927 116.158 273.404 120.366 280.199L123.197 278.447V278.447ZM106.502 260.99C99.9904 256.483 92.8975 251.813 85.2246 246.978L83.4489 249.793C91.0876 254.605 98.1398 259.249 104.609 263.725L106.502 260.99ZM85.2246 246.978C78.1382 242.516 71.0685 238.027 64.0158 233.512L62.2201 236.313C69.2794 240.833 76.3558 245.326 83.4489 249.793L85.2246 246.978ZM64.0158 233.512C57.7126 229.474 52.4661 224.39 48.2656 218.255L45.518 220.133C49.9723 226.639 55.5424 232.035 62.2201 236.313L64.0158 233.512ZM48.2656 218.255C44.1234 212.204 42.0656 205.627 42.0656 198.486H38.7371C38.7371 206.314 41.0063 213.543 45.5188 220.133L48.2648 218.255H48.2656ZM42.0656 198.486V196.739H38.7371V198.486H42.0656ZM42.0656 196.739C42.0656 185.483 45.6653 177.102 52.6916 171.328L50.5781 168.758C42.6264 175.293 38.7371 184.71 38.7371 196.739H42.0656ZM52.6916 171.328C59.8436 165.451 68.6914 162.475 79.3441 162.475V159.148C68.0291 159.148 58.404 162.327 50.5781 168.758L52.6916 171.328V171.328ZM79.3441 162.475C94.1822 162.475 105.837 167.925 114.487 178.812L117.094 176.743C107.771 165.009 95.1275 159.148 79.3441 159.148V162.475ZM114.126 177.778V190.502H117.455V177.778H114.126ZM236.125 345.689H237.789V344.026H236.125V345.689ZM236.125 352.675V354.339H237.789V352.675H236.125ZM205.92 340.949L204.767 342.149L204.774 342.155L204.78 342.161L205.92 340.949V340.949ZM193.438 193.745V192.082H191.774V193.745H193.438ZM201.426 193.745H203.09V192.082H201.426V193.745ZM201.426 239.154H199.762V240.817H201.426V239.154ZM235.875 239.154H237.54V237.491H235.875V239.154ZM235.875 246.14V247.803H237.54V246.14H235.875ZM201.426 246.14V244.477H199.762V246.14H201.426ZM211.411 335.71L210.235 336.886L210.242 336.893L210.249 336.9L211.411 335.71ZM234.461 345.689V352.675H237.789V345.689H234.461ZM236.125 351.012C224.717 351.012 215.06 347.254 207.06 339.737L204.78 342.161C213.421 350.279 223.902 354.339 236.125 354.339V351.012V351.012ZM207.072 339.749C199.102 332.102 195.102 322.4 195.102 310.51H191.774C191.774 323.238 196.095 333.828 204.767 342.149L207.072 339.749V339.749ZM195.102 310.51V193.745H191.774V310.51H195.102ZM193.438 195.409H201.426V192.082H193.438V195.409ZM199.762 193.745V239.154H203.09V193.745H199.762ZM201.426 240.817H235.875V237.491H201.426V240.817ZM234.211 239.154V246.14H237.54V239.154H234.211ZM235.875 244.477H201.426V247.803H235.875V244.477ZM199.762 246.14V310.51H203.09V246.14H199.762V246.14ZM199.762 310.51C199.762 321.06 203.24 329.895 210.235 336.886L212.588 334.534C206.27 328.218 203.09 320.253 203.09 310.51H199.762V310.51ZM210.249 336.9C217.388 343.861 226.045 347.353 236.125 347.353V344.026C226.901 344.026 219.082 340.865 212.574 334.519L210.249 336.9V336.9ZM381.464 238.905V237.241H379.8V238.905H381.464ZM389.452 238.905H391.116V237.241H389.452V238.905ZM389.452 351.178V352.842H391.116V351.178H389.452ZM381.464 351.178H379.8V352.842H381.464V351.178ZM381.464 328.474H383.128L379.976 327.731L381.464 328.474ZM302.829 339.452L304.017 338.286L302.829 339.452ZM288.6 238.905V237.241H286.936V238.905H288.6ZM296.589 238.905H298.253V237.241H296.589V238.905ZM308.571 334.213L307.359 335.353L307.365 335.359L307.371 335.365L308.571 334.213V334.213ZM368.233 334.213L367.08 333.014L367.074 333.019L367.068 333.025L368.233 334.213V334.213ZM381.464 240.568H389.452V237.241H381.464V240.568ZM387.788 238.905V351.178H391.116V238.905H387.788ZM389.452 349.515H381.464V352.842H389.452V349.515ZM383.128 351.178V328.474H379.8V351.178H383.128ZM379.976 327.731C375.856 335.964 370.324 342.068 363.398 346.126C356.465 350.188 348.032 352.26 338.028 352.26V355.586C348.494 355.586 357.536 353.416 365.081 348.995C372.633 344.571 378.584 337.95 382.952 329.218L379.976 327.731V327.731ZM338.028 352.26C324.478 352.26 313.178 347.604 304.017 338.286L301.643 340.618C311.453 350.595 323.619 355.586 338.028 355.586V352.26V352.26ZM304.017 338.286C294.844 328.957 290.265 317.653 290.265 304.273H286.936C286.936 318.504 291.844 330.652 301.643 340.618L304.017 338.286ZM290.265 304.273V238.905H286.936V304.273H290.265ZM288.6 240.568H296.589V237.241H288.6V240.568ZM294.924 238.905V304.273H298.253V238.905H294.924ZM294.924 304.273C294.924 316.181 299.086 326.566 307.359 335.353L309.783 333.072C302.081 324.893 298.253 315.319 298.253 304.273H294.924V304.273ZM307.371 335.365C315.831 344.165 326.079 348.6 338.028 348.6V345.274C327.011 345.274 317.621 341.226 309.772 333.06L307.371 335.365ZM338.028 348.6C349.973 348.6 360.453 344.169 369.399 335.4L367.068 333.025C358.706 341.222 349.049 345.274 338.028 345.274V348.6V348.6ZM369.387 335.411C378.51 326.638 383.128 316.235 383.128 304.273H379.8C379.8 315.265 375.598 324.821 367.08 333.014L369.387 335.411V335.411ZM383.128 304.273V238.905H379.8V304.273H383.128ZM563.922 164.055H565.586V162.392H563.922V164.055ZM563.922 351.178V352.842H565.586V351.178H563.922ZM555.934 351.178H554.27V352.842H555.934V351.178ZM555.934 323.983H557.598L554.473 323.186L555.934 323.983ZM534.216 345.939L535.03 347.389L535.04 347.384L535.05 347.379L534.216 345.939V345.939ZM462.821 336.708L461.636 337.875L461.644 337.884L461.652 337.892L462.821 336.708ZM462.821 253.625L461.644 252.449L462.821 253.625ZM534.715 244.393L533.881 245.833L533.887 245.836L533.892 245.839L534.715 244.393ZM555.934 266.349L554.44 267.082L557.598 266.349H555.934ZM555.934 164.055V162.392H554.27V164.055H555.934ZM468.562 331.718L467.367 332.874L467.372 332.879L467.376 332.884L468.562 331.718ZM540.956 331.718L542.132 332.894L540.956 331.718ZM540.956 258.864L539.76 260.021L539.77 260.031L539.779 260.04L540.956 258.864V258.864ZM468.562 258.615L467.377 257.448L467.372 257.453L467.367 257.458L468.562 258.615V258.615ZM562.258 164.055V351.178H565.586V164.055H562.258V164.055ZM563.922 349.515H555.934V352.842H563.922V349.515ZM557.598 351.178V323.983H554.27V351.178H557.598V351.178ZM554.473 323.186C549.634 332.054 542.618 339.155 533.382 344.499L535.05 347.379C544.786 341.745 552.248 334.209 557.395 324.78L554.473 323.186V323.186ZM533.401 344.489C524.141 349.685 514.684 352.26 505.009 352.26V355.586C515.304 355.586 525.319 352.838 535.03 347.389L533.401 344.489ZM505.009 352.26C488.966 352.26 475.325 346.691 463.989 335.523L461.652 337.892C473.616 349.678 488.099 355.586 505.009 355.586V352.26ZM464.007 335.54C452.825 324.204 447.26 310.732 447.26 295.041H443.932C443.932 311.619 449.851 325.925 461.636 337.875L464.007 335.54V335.54ZM447.26 295.041C447.26 279.351 452.825 265.968 463.997 254.801L461.644 252.449C449.851 264.235 443.932 278.463 443.932 295.041H447.26ZM463.997 254.801C475.335 243.47 488.975 237.823 505.009 237.823V234.497C488.092 234.497 473.606 240.494 461.644 252.449L463.997 254.801V254.801ZM505.009 237.823C515.016 237.823 524.632 240.481 533.881 245.833L535.549 242.954C525.826 237.328 515.638 234.497 505.009 234.497V237.823V237.823ZM533.892 245.839C543.282 251.178 550.107 258.261 554.44 267.082L557.428 265.617C552.774 256.141 545.453 248.587 535.538 242.948L533.892 245.839ZM557.598 266.349V164.055H554.27V266.349H557.598ZM555.934 165.719H563.922V162.392H555.934V165.719ZM451.92 295.291C451.92 309.708 457.09 322.261 467.367 332.874L469.758 330.561C460.064 320.549 455.249 308.818 455.249 295.291H451.92ZM467.376 332.884C477.667 343.342 490.075 348.6 504.509 348.6V345.274C490.986 345.274 479.428 340.386 469.749 330.552L467.376 332.884ZM504.509 348.6C519.104 348.6 531.674 343.347 542.132 332.894L539.779 330.542C529.935 340.381 518.207 345.274 504.509 345.274V348.6V348.6ZM542.132 332.894C552.748 322.284 558.097 309.725 558.097 295.291H554.769C554.769 308.8 549.8 320.526 539.779 330.542L542.132 332.894ZM558.097 295.291C558.097 280.857 552.748 268.298 542.132 257.688L539.779 260.04C549.8 270.056 554.769 281.781 554.769 295.291H558.097ZM542.152 257.707C531.702 246.921 519.211 241.483 504.759 241.483V244.809C518.266 244.809 529.907 249.85 539.76 260.021L542.152 257.707ZM504.759 241.483C490.316 241.483 477.829 246.83 467.377 257.448L469.749 259.782C479.6 249.774 491.243 244.809 504.759 244.809V241.483ZM467.367 257.458C457.086 268.076 451.92 280.714 451.92 295.291H455.249C455.249 281.592 460.068 269.779 469.758 259.772L467.367 257.458ZM640.144 239.154H641.808V237.491H640.144V239.154ZM640.144 351.178V352.842H641.808V351.178H640.144ZM632.156 351.178H630.492V352.842H632.156V351.178ZM632.156 239.154V237.491H630.492V239.154H632.156ZM638.48 239.154V351.178H641.808V239.154H638.48ZM640.144 349.515H632.156V352.842H640.144V349.515ZM633.82 351.178V239.154H630.492V351.178H633.82ZM632.156 240.817H640.144V237.491H632.156V240.817ZM636.15 210.046C633.965 210.046 632.636 209.535 631.855 208.808C631.095 208.102 630.575 206.931 630.575 204.973H627.246C627.246 207.506 627.933 209.703 629.586 211.243C631.218 212.761 633.509 213.373 636.15 213.373V210.046ZM630.575 204.973C630.575 203.015 631.095 201.844 631.855 201.138C632.636 200.41 633.965 199.9 636.15 199.9V196.573C633.509 196.573 631.218 197.185 629.586 198.703C627.933 200.242 627.246 202.44 627.246 204.973H630.575ZM636.15 199.9C638.335 199.9 639.664 200.41 640.445 201.138C641.205 201.844 641.725 203.015 641.725 204.973H645.054C645.054 202.44 644.367 200.242 642.714 198.703C641.082 197.185 638.791 196.573 636.15 196.573V199.9ZM641.725 204.973C641.725 206.931 641.205 208.102 640.445 208.808C639.664 209.535 638.335 210.046 636.15 210.046V213.373C638.791 213.373 641.082 212.761 642.714 211.243C644.367 209.703 645.054 207.506 645.054 204.973H641.725ZM719.211 336.209L718.01 337.36L718.018 337.368L719.211 336.209ZM719.461 253.625L720.629 254.809L720.633 254.805L720.637 254.801L719.461 253.625ZM803.337 253.625L802.152 254.793L802.161 254.801L802.169 254.809L803.337 253.625ZM803.837 336.209L802.635 335.058L803.837 336.209V336.209ZM797.596 258.615L796.4 259.772L796.405 259.777L796.41 259.782L797.596 258.615V258.615ZM725.202 258.864L724.017 257.697L725.202 258.864V258.864ZM725.202 331.718L724.017 332.884L724.026 332.894L724.036 332.904L725.202 331.718V331.718ZM797.845 331.718L799.032 332.884L799.037 332.879L799.042 332.874L797.845 331.718ZM760.401 352.26C744.889 352.26 731.585 346.548 720.405 335.049L718.018 337.368C729.803 349.488 743.959 355.586 760.401 355.586V352.26ZM720.413 335.058C709.21 323.374 703.651 309.892 703.651 294.542H700.322C700.322 310.796 706.246 325.091 718.01 337.36L720.413 335.058ZM703.651 294.542C703.651 279.203 709.285 265.986 720.629 254.809L718.292 252.441C706.338 264.218 700.322 278.279 700.322 294.542H703.651ZM720.637 254.801C731.979 243.466 745.537 237.823 761.399 237.823V234.497C744.644 234.497 730.242 240.497 718.284 252.449L720.637 254.801ZM761.399 237.823C777.433 237.823 790.985 243.469 802.152 254.793L804.523 252.457C792.725 240.495 778.317 234.497 761.399 234.497V237.823ZM802.169 254.809C813.51 265.982 819.147 279.282 819.147 294.792H822.476C822.476 278.367 816.464 264.221 804.506 252.441L802.169 254.809V254.809ZM819.147 294.792C819.147 310.149 813.666 323.547 802.635 335.058L805.039 337.359C816.64 325.251 822.476 311.038 822.476 294.792H819.147ZM802.635 335.058C791.627 346.545 778.33 352.26 762.647 352.26V355.586C779.251 355.586 793.413 349.491 805.039 337.359L802.635 335.058V335.058ZM762.647 352.26H760.401V355.586H762.647V352.26ZM814.488 295.291C814.488 280.705 809.232 268.064 798.782 257.448L796.41 259.782C806.263 269.791 811.159 281.6 811.159 295.291H814.488ZM798.792 257.458C788.503 246.832 776.092 241.483 761.649 241.483V244.809C775.164 244.809 786.718 249.773 796.4 259.772L798.792 257.458ZM761.649 241.483C747.198 241.483 734.629 246.919 724.017 257.697L726.389 260.031C736.412 249.852 748.141 244.809 761.649 244.809V241.483ZM724.017 257.697C713.57 268.309 708.31 280.866 708.31 295.291H711.639C711.639 281.772 716.531 270.044 726.389 260.031L724.017 257.697V257.697ZM708.31 295.291C708.31 309.716 713.57 322.272 724.017 332.884L726.389 330.551C716.531 320.538 711.639 308.81 711.639 295.291H708.31V295.291ZM724.036 332.904C734.653 343.343 747.216 348.6 761.649 348.6V345.274C748.124 345.274 736.389 340.384 726.37 330.532L724.036 332.904ZM761.649 348.6C776.244 348.6 788.736 343.346 799.032 332.884L796.659 330.552C786.985 340.382 775.345 345.274 761.649 345.274V348.6V348.6ZM799.042 332.874C809.319 322.261 814.488 309.708 814.488 295.291H811.159C811.159 308.818 806.344 320.549 796.65 330.561L799.042 332.874V332.874Z" fill="white"/>
</g>
<defs>
<filter id="filter0_d_608_5" x="0" y="0" width="853" height="391" filterUnits="userSpaceOnUse" color-interpolation-filters="sRGB">
<feFlood flood-opacity="0" result="BackgroundImageFix"/>
<feColorMatrix in="SourceAlpha" type="matrix" values="0 0 0 0 0 0 0 0 0 0 0 0 0 0 0 0 0 0 127 0" result="hardAlpha"/>
<feOffset dy="4"/>
<feGaussianBlur stdDeviation="15"/>
<feColorMatrix type="matrix" values="0 0 0 0 1 0 0 0 0 0 0 0 0 0 0.716049 0 0 0 0.5 0"/>
<feBlend mode="normal" in2="BackgroundImageFix" result="effect1_dropShadow_608_5"/>
<feBlend mode="normal" in="SourceGraphic" in2="effect1_dropShadow_608_5" result="shape"/>
</filter>
<clipPath id="clip0_608_5">
<rect width="793" height="331" fill="white" transform="translate(30 26)"/>
</clipPath>
<clipPath id="clip1_608_5">
<rect width="793" height="331" fill="white" transform="translate(30 26)"/>
</clipPath>
</defs>
</svg>
