<svg width="1132" height="607" viewBox="0 0 1132 607" fill="none" xmlns="http://www.w3.org/2000/svg">
<path d="M55.1971 18.804V322.059H133.488V334.256H44.0609V18.804H55.1971ZM330.008 144.985H340.807V334.256H330.008V295.981C318.535 324.582 298.962 338.883 271.29 338.883C252.392 338.883 236.532 330.751 223.708 314.488C210.885 298.225 204.473 278.456 204.473 255.183V144.985H215.272V255.183C215.272 274.531 220.671 291.355 231.47 305.655C242.493 319.956 255.767 327.106 271.29 327.106C286.813 327.106 300.424 319.956 312.123 305.655C324.046 291.355 330.008 274.531 330.008 255.183V144.985ZM435.939 334.256H425.141V144.985H435.939V183.26C447.413 154.659 466.986 140.358 494.658 140.358C513.555 140.358 529.416 148.49 542.239 164.753C555.063 181.017 561.475 200.785 561.475 224.058V334.256H550.676V224.058C550.676 204.711 545.164 187.886 534.14 173.586C523.342 159.285 510.181 152.135 494.658 152.135C479.134 152.135 465.411 159.285 453.487 173.586C441.789 187.886 435.939 204.711 435.939 224.058V334.256V334.256ZM800.875 144.985V334.256H790.076V287.149C783.777 303.132 774.328 315.75 761.73 325.003C749.131 334.256 735.633 338.883 721.234 338.883C699.187 338.883 680.289 329.209 664.541 309.861C648.793 290.233 640.919 266.82 640.919 239.621C640.919 212.422 648.793 189.148 664.541 169.8C680.289 150.172 699.187 140.358 721.234 140.358C735.633 140.358 749.356 145.125 762.404 154.659C775.678 164.192 784.902 176.811 790.076 192.513V144.985H800.875ZM651.717 240.041C651.717 263.595 658.579 284.064 672.302 301.449C686.251 318.554 702.674 327.106 721.572 327.106C740.694 327.106 757.005 318.554 770.504 301.449C784.002 284.064 790.751 263.595 790.751 240.041C790.751 216.207 783.889 195.597 770.166 178.213C756.668 160.828 740.47 152.135 721.572 152.135C702.674 152.135 686.251 160.968 672.302 178.633C658.579 196.018 651.717 216.487 651.717 240.041Z" fill="white"/>
<path d="M55.1971 18.804H57.4468V16H55.1971V18.804ZM55.1971 322.059H52.9473V324.863H55.1971V322.059ZM133.488 322.059H135.738V319.255H133.488V322.059ZM133.488 334.256V337.06H135.738V334.256H133.488ZM44.0609 334.256H41.8111V337.06H44.0609V334.256ZM44.0609 18.804V16H41.8111V18.804H44.0609ZM52.9473 18.804V322.059H57.4468V18.804H52.9473ZM55.1971 324.863H133.488V319.255H55.1971V324.863ZM131.238 322.059V334.256H135.738V322.059H131.238ZM133.488 331.452H44.0609V337.06H133.488V331.452ZM46.3106 334.256V18.804H41.8111V334.256H46.3106ZM44.0609 21.608H55.1971V16H44.0609V21.608V21.608ZM330.008 144.985V142.181H327.758V144.985H330.008ZM340.807 144.985H343.057V142.181H340.807V144.985ZM340.807 334.256V337.06H343.057V334.256H340.807ZM330.008 334.256H327.758V337.06H330.008V334.256ZM330.008 295.981H332.258L327.997 294.728L330.008 295.981ZM223.708 314.488L225.313 312.522L223.708 314.488ZM204.473 144.985V142.181H202.223V144.985H204.473ZM215.272 144.985H217.521V142.181H215.272V144.985ZM231.47 305.655L229.832 307.577L229.84 307.587L229.848 307.598L231.47 305.655V305.655ZM312.123 305.655L310.564 303.635L310.556 303.643L310.548 303.653L312.123 305.655ZM330.008 147.789H340.807V142.181H330.008V147.789ZM338.557 144.985V334.256H343.057V144.985H338.557ZM340.807 331.452H330.008V337.06H340.807V331.452ZM332.258 334.256V295.981H327.758V334.256H332.258ZM327.997 294.728C322.428 308.608 314.95 318.897 305.586 325.739C296.214 332.586 284.814 336.079 271.29 336.079V341.687C285.439 341.687 297.661 338.029 307.862 330.576C318.071 323.117 326.115 311.956 332.021 297.235L327.997 294.728V294.728ZM271.29 336.079C252.974 336.079 237.698 328.23 225.313 312.522L222.104 316.454C235.366 333.272 251.812 341.687 271.29 341.687V336.079ZM225.313 312.522C212.913 296.796 206.723 277.738 206.723 255.183H202.223C202.223 279.174 208.858 299.653 222.104 316.454L225.313 312.522V312.522ZM206.723 255.183V144.985H202.223V255.183H206.723ZM204.473 147.789H215.272V142.181H204.473V147.789ZM213.022 144.985V255.183H217.521V144.985H213.022ZM213.022 255.183C213.022 275.257 218.647 292.765 229.832 307.577L233.109 303.733C222.696 289.944 217.521 273.804 217.521 255.183H213.022V255.183ZM229.848 307.598C241.284 322.433 255.138 329.91 271.29 329.91V324.302C256.397 324.302 243.704 317.478 233.093 303.712L229.848 307.598V307.598ZM271.29 329.91C287.439 329.91 301.605 322.44 313.699 307.657L310.548 303.653C299.244 317.471 286.189 324.302 271.29 324.302V329.91ZM313.683 307.676C326.015 292.886 332.258 275.348 332.258 255.183H327.758C327.758 273.713 322.079 289.824 310.564 303.635L313.683 307.676V307.676ZM332.258 255.183V144.985H327.758V255.183H332.258V255.183ZM435.939 334.256V337.06H438.189V334.256H435.939ZM425.141 334.256H422.891V337.06H425.141V334.256ZM425.141 144.985V142.181H422.891V144.985H425.141ZM435.939 144.985H438.189V142.181H435.939V144.985ZM435.939 183.26H433.69L437.952 184.513L435.939 183.26ZM542.239 164.753L540.635 166.719L542.239 164.753ZM561.475 334.256V337.06H563.724V334.256H561.475ZM550.676 334.256H548.426V337.06H550.676V334.256ZM534.14 173.586L532.503 175.508L532.51 175.518L532.518 175.529L534.14 173.586ZM453.487 173.586L451.928 171.566L451.92 171.574L451.912 171.584L453.487 173.586V173.586ZM435.939 331.452H425.141V337.06H435.939V331.452ZM427.39 334.256V144.985H422.891V334.256H427.39V334.256ZM425.141 147.789H435.939V142.181H425.141V147.789ZM433.69 144.985V183.26H438.189V144.985H433.69V144.985ZM437.952 184.513C443.52 170.633 450.999 160.344 460.362 153.502C469.735 146.655 481.134 143.162 494.657 143.162V137.554C480.51 137.554 468.287 141.214 458.087 148.665C447.876 156.124 439.832 167.285 433.928 182.006L437.952 184.513ZM494.657 143.162C512.975 143.162 528.251 151.011 540.635 166.719L543.845 162.788C530.582 145.969 514.137 137.554 494.657 137.554V143.162V143.162ZM540.635 166.719C553.036 182.445 559.225 201.503 559.225 224.058H563.724C563.724 200.067 557.091 179.588 543.845 162.788L540.635 166.719ZM559.225 224.058V334.256H563.724V224.058H559.225ZM561.475 331.452H550.676V337.06H561.475V331.452ZM552.926 334.256V224.058H548.426V334.256H552.926ZM552.926 224.058C552.926 203.966 547.179 186.451 535.764 171.643L532.518 175.529C543.151 189.321 548.426 205.455 548.426 224.058H552.926ZM535.779 171.664C524.562 156.811 510.812 149.331 494.657 149.331V154.939C509.551 154.939 522.121 161.76 532.503 175.508L535.779 171.664V171.664ZM494.657 149.331C478.512 149.331 464.24 156.798 451.928 171.566L455.047 175.606C466.583 161.773 479.757 154.939 494.657 154.939V149.331V149.331ZM451.912 171.584C439.809 186.379 433.69 203.911 433.69 224.058H438.189C438.189 205.51 443.768 189.394 455.063 175.588L451.912 171.584V171.584ZM433.69 224.058V334.256H438.189V224.058H433.69V224.058ZM800.875 144.985H803.125V142.181H800.875V144.985ZM800.875 334.256V337.06H803.125V334.256H800.875ZM790.076 334.256H787.826V337.06H790.076V334.256ZM790.076 287.149H792.326L788.056 285.912L790.076 287.149ZM761.729 325.003L760.587 322.587L761.729 325.003ZM664.541 309.861L662.949 311.844L662.955 311.851L662.961 311.858L664.541 309.861V309.861ZM664.541 169.801L666.12 171.797L666.126 171.79L666.131 171.783L664.541 169.801V169.801ZM762.404 154.659L761.266 157.077L761.274 157.083L761.281 157.088L762.404 154.659ZM790.076 192.513L787.995 193.579L792.326 192.513H790.076ZM790.076 144.985V142.181H787.826V144.985H790.076ZM672.302 301.449L670.698 303.416L670.711 303.432L670.724 303.449L672.302 301.449V301.449ZM770.503 301.449L772.106 303.415L772.113 303.408L772.12 303.399L770.503 301.449V301.449ZM770.166 178.213L768.548 180.163L768.555 180.171L768.562 180.18L770.166 178.213ZM672.302 178.633L670.698 176.666L672.302 178.633ZM798.625 144.985V334.256H803.125V144.985H798.625V144.985ZM800.875 331.452H790.076V337.06H800.875V331.452ZM792.326 334.256V287.149H787.826V334.256H792.326ZM788.056 285.912C781.956 301.392 772.816 313.605 760.587 322.587L762.871 327.419C775.839 317.895 785.597 304.872 792.095 288.385L788.056 285.912V285.912ZM760.587 322.587C748.329 331.591 735.224 336.079 721.234 336.079V341.687C736.04 341.687 749.932 336.922 762.871 327.419L760.587 322.587ZM721.234 336.079C699.78 336.079 681.449 326.697 666.12 307.865L662.961 311.858C679.129 331.721 698.593 341.687 721.234 341.687V336.079V336.079ZM666.131 307.879C650.795 288.764 643.168 266.058 643.168 239.621H638.669C638.669 267.581 646.789 291.702 662.949 311.844L666.131 307.879ZM643.168 239.621C643.168 213.183 650.794 190.626 666.12 171.797L662.961 167.804C646.79 187.671 638.669 211.66 638.669 239.621H643.168ZM666.131 171.783C681.462 152.675 699.79 143.162 721.234 143.162V137.554C698.583 137.554 679.115 147.67 662.949 167.818L666.131 171.783V171.783ZM721.234 143.162C735.212 143.162 748.545 147.783 761.266 157.077L763.542 152.24C750.166 142.468 736.052 137.554 721.234 137.554V143.162ZM761.281 157.088C774.18 166.353 783.033 178.521 787.995 193.579L792.157 191.448C786.77 175.1 777.175 162.032 763.527 152.229L761.281 157.088V157.088ZM792.326 192.513V144.985H787.826V192.513H792.326ZM790.076 147.789H800.875V142.181H790.076V147.789ZM649.468 240.041C649.468 264.359 656.577 285.527 670.698 303.416L673.905 299.482C660.58 282.602 653.967 262.831 653.967 240.041H649.468ZM670.724 303.449C685.076 321.048 702.06 329.91 721.572 329.91V324.302C703.287 324.302 687.424 316.06 673.879 299.45L670.724 303.449ZM721.572 329.91C741.302 329.91 758.188 321.052 772.106 303.415L768.899 299.484C755.82 316.055 740.086 324.302 721.572 324.302V329.91ZM772.12 303.399C786.012 285.507 793.001 264.345 793.001 240.041H788.501C788.501 262.845 781.991 282.622 768.886 299.499L772.12 303.399ZM793.001 240.041C793.001 215.453 785.896 194.142 771.769 176.246L768.562 180.18C781.881 197.053 788.501 216.961 788.501 240.041H793.001ZM771.782 176.262C757.872 158.349 741.097 149.331 721.572 149.331V154.939C739.841 154.939 755.462 163.306 768.548 180.163L771.782 176.262V176.262ZM721.572 149.331C702.036 149.331 685.045 158.496 670.698 176.666L673.905 180.6C687.455 163.44 703.311 154.939 721.572 154.939V149.331ZM670.698 176.666C656.577 194.556 649.468 215.723 649.468 240.041H653.967C653.967 217.252 660.58 197.48 673.905 180.6L670.698 176.666V176.666ZM145.974 293.318L144.001 294.665L148.224 293.318H145.974ZM124.714 265.558L123.535 267.945L123.546 267.954L123.556 267.962L124.714 265.558ZM66.6707 268.502L68.1589 270.605L68.1623 270.601L66.6707 268.502ZM78.8193 353.884L77.4773 356.136L77.4886 356.146L78.8193 353.884ZM101.429 372.391L100.28 374.801L100.31 374.823L100.341 374.844L101.429 372.391V372.391ZM126.739 391.739L125.479 394.062L125.508 394.086L125.537 394.11L126.739 391.739ZM149.686 413.61L148.151 415.66L148.18 415.693L148.208 415.724L149.686 413.61ZM166.559 441.79L164.526 442.993L164.537 443.019L164.547 443.044L166.559 441.79V441.79ZM151.373 546.521L149.905 544.397L149.899 544.404L149.892 544.411L151.373 546.521V546.521ZM32.2497 526.752H30V527.605L30.3802 528.313L32.2497 526.752ZM32.2497 504.04L34.297 502.876L30 504.04H32.2497V504.04ZM57.8967 543.156L56.5818 545.431L56.6031 545.449L56.6234 545.468L57.8967 543.156ZM144.287 537.688L145.766 539.801L144.287 537.688ZM154.073 443.052L152.16 444.529L152.166 444.541L152.173 444.554L154.073 443.052V443.052ZM132.138 414.451L130.858 416.756L130.874 416.77L130.891 416.784L132.138 414.451V414.451ZM103.454 390.897L104.654 388.525L103.454 390.897V390.897ZM52.8348 341.687L54.6909 340.104L52.8348 341.687ZM145.974 271.867H148.224V270.888L147.736 270.123L145.974 271.867ZM147.947 291.97C142.586 279.77 135.222 270.147 125.871 263.153L123.556 267.962C132.203 274.428 139.012 283.311 144.001 294.665L147.947 291.97V291.97ZM125.893 263.17C116.74 256.149 106.427 252.659 95.0174 252.659V258.267C105.655 258.267 115.141 261.507 123.535 267.945L125.893 263.17ZM95.0174 252.659C83.4729 252.659 73.4852 257.233 65.1791 266.403L68.1623 270.601C75.6033 262.386 84.5145 258.267 95.0174 258.267V252.659ZM65.1825 266.399C56.9654 275.435 52.9473 287.896 52.9473 303.412H57.4468C57.4468 289.205 61.0779 278.393 68.1589 270.605L65.1825 266.399V266.399ZM52.9473 303.412V305.515H57.4468V303.412H52.9473ZM52.9473 305.515C52.9473 324.378 61.394 341.242 77.4773 356.135L80.1613 351.634C64.7472 337.365 57.4468 321.983 57.4468 305.515H52.9473ZM77.4886 356.146C84.3053 362.375 91.9027 368.593 100.278 374.801L102.579 369.981C94.3076 363.851 86.8329 357.732 80.1489 351.623L77.4886 356.146V356.146ZM100.341 374.844C108.946 380.781 117.333 387.193 125.479 394.062L127.999 389.416C119.742 382.452 111.24 375.953 102.517 369.937L100.341 374.844V374.844ZM125.537 394.11C133.978 400.754 141.514 407.939 148.151 415.66L151.221 411.56C144.36 403.579 136.597 396.183 127.94 389.368L125.537 394.11ZM148.208 415.724C154.932 423.023 160.375 432.098 164.526 442.993L168.592 440.588C164.195 429.05 158.388 419.339 151.164 411.496L148.208 415.724V415.724ZM164.547 443.044C168.879 453.844 171.059 465.747 171.059 478.804H175.558C175.558 464.942 173.239 452.17 168.571 440.537L164.547 443.044ZM171.059 478.804V483.01H175.558V478.804H171.059ZM171.059 483.01C171.059 508.93 163.975 529.287 149.905 544.397L152.841 548.645C168.018 532.349 175.558 510.366 175.558 483.01H171.059V483.01ZM149.892 544.411C135.953 559.613 118.613 567.27 97.7171 567.27V572.878C119.567 572.878 137.999 564.834 152.855 548.631L149.892 544.411V544.411ZM97.7171 567.27C70.3378 567.27 49.2206 553.288 34.1193 525.192L30.3802 528.313C46.3252 557.979 68.853 572.878 97.7171 572.878V567.27ZM34.4995 526.752V504.04H30V526.752H34.4995ZM30.2025 505.203C36.2115 521.622 45.0103 535.047 56.5818 545.431L59.2117 540.88C48.2859 531.076 39.9866 518.423 34.2959 502.876L30.2025 505.203ZM56.6234 545.468C68.5459 555.665 83.1872 560.681 100.417 560.681V555.073C83.9003 555.073 70.1949 550.275 59.1701 540.844L56.6234 545.468V545.468ZM100.417 560.681C117.817 560.681 132.97 553.719 145.766 539.801L142.807 535.575C130.856 548.576 116.762 555.073 100.417 555.073V560.681ZM145.766 539.801C158.679 525.754 165.097 507.005 165.097 483.851H160.597C160.597 505.561 154.641 522.703 142.807 535.575L145.766 539.801ZM165.097 483.851V481.327H160.597V483.851H165.097ZM165.097 481.327C165.097 466.793 162.057 453.51 155.973 441.551L152.173 444.554C157.787 455.588 160.597 467.822 160.597 481.327H165.097ZM155.986 441.576C149.976 429.477 142.443 419.643 133.386 412.118L130.891 416.784C139.381 423.841 146.471 433.074 152.16 444.529L155.986 441.576V441.576ZM133.418 412.146C124.615 404.549 115.027 396.675 104.654 388.525L102.254 393.27C112.58 401.383 122.113 409.212 130.858 416.756L133.418 412.146ZM104.654 388.525C95.0746 381.003 85.5176 373.436 75.9835 365.824L73.556 370.546C83.0991 378.165 92.665 385.74 102.254 393.27L104.654 388.525ZM75.9835 365.824C67.4626 359.016 60.3703 350.447 54.692 340.104L50.9777 343.27C56.9991 354.238 64.529 363.334 73.556 370.546L75.9835 365.824ZM54.692 340.104C49.0924 329.903 46.3106 318.816 46.3106 306.777H41.8111C41.8111 319.974 44.8786 332.16 50.9788 343.27L54.6909 340.104H54.692ZM46.3106 306.777V303.833H41.8111V306.777H46.3106ZM46.3106 303.833C46.3106 284.856 51.1768 270.728 60.6752 260.994L57.818 256.662C47.0688 267.678 41.8111 283.553 41.8111 303.833H46.3106ZM60.6752 260.994C70.3434 251.086 82.3042 246.07 96.7047 246.07V240.462C81.4088 240.462 68.3974 245.82 57.818 256.662L60.6752 260.994V260.994ZM96.7047 246.07C116.763 246.07 132.518 255.257 144.212 273.611L147.736 270.123C135.132 250.342 118.041 240.462 96.7047 240.462V246.07ZM143.724 271.867V293.318H148.224V271.867H143.724ZM308.646 554.933H310.896V552.129H308.646V554.933ZM308.646 566.71V569.514H310.896V566.71H308.646ZM267.813 546.941L266.255 548.964L266.264 548.974L266.272 548.984L267.813 546.941V546.941ZM250.94 298.785V295.981H248.69V298.785H250.94ZM261.739 298.785H263.988V295.981H261.739V298.785ZM261.739 375.335H259.489V378.139H261.739V375.335ZM308.308 375.335H310.558V372.531H308.308V375.335ZM308.308 387.112V389.916H310.558V387.112H308.308ZM261.739 387.112V384.308H259.489V387.112H261.739ZM275.237 538.109L273.647 540.091L273.657 540.104L273.666 540.116L275.237 538.109ZM306.396 554.933V566.71H310.896V554.933H306.396ZM308.646 563.906C293.224 563.906 280.17 557.57 269.354 544.899L266.272 548.984C277.954 562.67 292.123 569.514 308.646 569.514V563.906V563.906ZM269.371 544.918C258.597 532.027 253.19 515.671 253.19 495.628H248.69C248.69 517.084 254.532 534.937 266.255 548.964L269.371 544.918V544.918ZM253.19 495.628V298.785H248.69V495.628H253.19ZM250.94 301.589H261.739V295.981H250.94V301.589ZM259.489 298.785V375.335H263.988V298.785H259.489ZM261.739 378.139H308.308V372.531H261.739V378.139ZM306.059 375.335V387.112H310.558V375.335H306.059ZM308.308 384.308H261.739V389.916H308.308V384.308ZM259.489 387.112V495.628H263.988V387.112H259.489V387.112ZM259.489 495.628C259.489 513.412 264.191 528.306 273.647 540.091L276.828 536.126C268.287 525.479 263.988 512.052 263.988 495.628H259.489V495.628ZM273.666 540.116C283.316 551.85 295.019 557.737 308.646 557.737V552.129C296.177 552.129 285.606 546.8 276.809 536.101L273.666 540.116V540.116ZM505.119 374.915V372.111H502.869V374.915H505.119ZM515.917 374.915H518.167V372.111H515.917V374.915ZM515.917 564.186V566.99H518.167V564.186H515.917ZM505.119 564.186H502.869V566.99H505.119V564.186ZM505.119 525.911H507.368L503.107 524.658L505.119 525.911ZM398.819 544.418L400.424 542.452L398.819 544.418ZM379.583 374.915V372.111H377.334V374.915H379.583ZM390.382 374.915H392.632V372.111H390.382V374.915ZM406.58 535.585L404.942 537.507L404.95 537.517L404.958 537.528L406.58 535.585V535.585ZM487.233 535.585L485.674 533.565L485.666 533.573L485.659 533.583L487.233 535.585V535.585ZM505.119 377.719H515.917V372.111H505.119V377.719ZM513.668 374.915V564.186H518.167V374.915H513.668ZM515.917 561.382H505.119V566.99H515.917V561.382ZM507.368 564.186V525.911H502.869V564.186H507.368ZM503.107 524.658C497.538 538.538 490.059 548.827 480.697 555.669C471.324 562.516 459.925 566.009 446.401 566.009V571.617C460.549 571.617 472.772 567.959 482.972 560.506C493.182 553.047 501.226 541.886 507.131 527.164L503.107 524.658V524.658ZM446.401 566.009C428.084 566.009 412.809 558.16 400.424 542.452L397.215 546.383C410.477 563.202 426.922 571.617 446.401 571.617V566.009V566.009ZM400.424 542.452C388.023 526.726 381.833 507.668 381.833 485.113H377.334C377.334 509.104 383.968 529.583 397.215 546.383L400.424 542.452ZM381.833 485.113V374.915H377.334V485.113H381.833ZM379.583 377.719H390.382V372.111H379.583V377.719ZM388.132 374.915V485.113H392.632V374.915H388.132ZM388.132 485.113C388.132 505.187 393.758 522.695 404.942 537.507L408.219 533.663C397.806 519.874 392.632 503.734 392.632 485.113H388.132V485.113ZM404.958 537.528C416.395 552.363 430.249 559.84 446.401 559.84V554.232C431.507 554.232 418.814 547.408 408.203 533.642L404.958 537.528ZM446.401 559.84C462.548 559.84 476.716 552.37 488.809 537.587L485.659 533.583C474.355 547.401 461.299 554.232 446.401 554.232V559.84V559.84ZM488.794 537.605C501.125 522.815 507.368 505.278 507.368 485.113H502.869C502.869 503.643 497.19 519.753 485.674 533.565L488.794 537.605V537.605ZM507.368 485.113V374.915H502.869V485.113H507.368ZM751.771 248.734H754.021V245.93H751.771V248.734ZM751.771 564.186V566.99H754.021V564.186H751.771ZM740.972 564.186H738.723V566.99H740.972V564.186ZM740.972 518.34H743.222L738.997 516.997L740.972 518.34ZM711.613 555.353L712.714 557.798L712.728 557.79L712.74 557.78L711.613 555.353V555.353ZM615.099 539.791L613.498 541.759L613.509 541.773L613.52 541.787L615.099 539.791ZM615.099 399.73L613.509 397.748L615.099 399.73ZM712.288 384.168L711.161 386.595L711.169 386.6L711.176 386.605L712.288 384.168ZM740.972 421.181L738.953 422.416L743.222 421.181H740.972ZM740.972 248.734V245.93H738.723V248.734H740.972ZM622.861 531.379L621.245 533.329L621.251 533.338L621.257 533.345L622.861 531.379ZM720.725 531.379L722.315 533.361L720.725 531.379ZM720.725 408.563L719.108 410.513L719.122 410.53L719.134 410.545L720.725 408.563V408.563ZM622.861 408.142L621.258 406.175L621.251 406.184L621.245 406.192L622.861 408.142V408.142ZM749.521 248.734V564.186H754.021V248.734H749.521V248.734ZM751.771 561.382H740.972V566.99H751.771V561.382ZM743.222 564.186V518.34H738.723V564.186H743.222V564.186ZM738.997 516.997C732.456 531.945 722.972 543.917 710.486 552.926L712.74 557.78C725.902 548.283 735.99 535.579 742.948 519.683L738.997 516.997V516.997ZM710.512 552.908C697.994 561.668 685.209 566.009 672.13 566.009V571.617C686.048 571.617 699.586 566.984 712.714 557.798L710.512 552.908ZM672.13 566.009C650.444 566.009 632.003 556.621 616.679 537.794L613.52 541.787C629.692 561.657 649.272 571.617 672.13 571.617V566.009ZM616.702 537.823C601.587 518.712 594.064 496.002 594.064 469.55H589.565C589.565 497.497 597.566 521.614 613.498 541.759L616.702 537.823V537.823ZM594.064 469.55C594.064 443.1 601.586 420.539 616.69 401.713L613.509 397.748C597.566 417.617 589.565 441.603 589.565 469.55H594.064ZM616.69 401.713C632.016 382.61 650.455 373.092 672.13 373.092V367.484C649.262 367.484 629.679 377.594 613.509 397.748L616.69 401.713V401.713ZM672.13 373.092C685.658 373.092 698.658 377.573 711.161 386.595L713.415 381.741C700.271 372.256 686.499 367.484 672.13 367.484V373.092V373.092ZM711.176 386.605C723.869 395.605 733.095 407.545 738.953 422.416L742.992 419.946C736.701 403.973 726.805 391.237 713.401 381.731L711.176 386.605ZM743.222 421.181V248.734H738.723V421.181H743.222ZM740.972 251.538H751.771V245.93H740.972V251.538ZM600.364 469.971C600.364 494.275 607.352 515.437 621.245 533.329L624.477 529.429C611.373 512.551 604.863 492.775 604.863 469.971H600.364ZM621.257 533.345C635.169 550.975 651.942 559.84 671.455 559.84V554.232C653.174 554.232 637.55 545.992 624.465 529.413L621.257 533.345ZM671.455 559.84C691.184 559.84 708.178 550.983 722.315 533.361L719.134 529.396C705.826 545.984 689.972 554.232 671.455 554.232V559.84V559.84ZM722.315 533.361C736.665 515.476 743.897 494.304 743.897 469.971H739.397C739.397 492.745 732.681 512.512 719.134 529.396L722.315 533.361ZM743.897 469.971C743.897 445.638 736.665 424.466 722.315 406.58L719.134 410.545C732.681 427.43 739.397 447.197 739.397 469.971H743.897ZM722.341 406.613C708.215 388.429 691.33 379.261 671.793 379.261V384.869C690.052 384.869 705.789 393.366 719.108 410.513L722.341 406.613ZM671.793 379.261C652.268 379.261 635.388 388.276 621.258 406.175L624.465 410.109C637.782 393.239 653.522 384.869 671.793 384.869V379.261ZM621.245 406.192C607.347 424.091 600.364 445.396 600.364 469.971H604.863C604.863 446.877 611.378 426.963 624.477 410.092L621.245 406.192ZM854.81 375.335H857.06V372.531H854.81V375.335ZM854.81 564.186V566.99H857.06V564.186H854.81ZM844.011 564.186H841.762V566.99H844.011V564.186ZM844.011 375.335V372.531H841.762V375.335H844.011ZM852.56 375.335V564.186H857.06V375.335H852.56ZM854.81 561.382H844.011V566.99H854.81V561.382ZM846.261 564.186V375.335H841.762V564.186H846.261ZM844.011 378.139H854.81V372.531H844.011V378.139ZM849.411 326.265C846.457 326.265 844.66 325.404 843.604 324.177C842.577 322.987 841.874 321.013 841.874 317.713H837.375C837.375 321.983 838.303 325.687 840.538 328.282C842.744 330.841 845.84 331.873 849.411 331.873V326.265ZM841.874 317.713C841.874 314.412 842.577 312.438 843.604 311.248C844.66 310.021 846.457 309.16 849.411 309.16V303.552C845.84 303.552 842.744 304.584 840.538 307.143C838.303 309.738 837.375 313.442 837.375 317.713H841.874ZM849.411 309.16C852.365 309.16 854.161 310.021 855.217 311.248C856.244 312.438 856.947 314.412 856.947 317.713H861.447C861.447 313.442 860.519 309.738 858.284 307.143C856.078 304.584 852.981 303.552 849.411 303.552V309.16ZM856.947 317.713C856.947 321.013 856.244 322.987 855.217 324.177C854.161 325.404 852.365 326.265 849.411 326.265V331.873C852.981 331.873 856.078 330.841 858.284 328.282C860.519 325.687 861.447 321.983 861.447 317.713H856.947ZM961.695 538.95L960.071 540.89L960.082 540.904L961.695 538.95ZM962.033 399.73L963.612 401.727L963.618 401.72L963.623 401.713L962.033 399.73ZM1075.42 399.73L1073.82 401.699L1073.83 401.713L1073.84 401.727L1075.42 399.73ZM1076.09 538.95L1074.47 537.011L1076.09 538.95V538.95ZM1067.66 408.142L1066.04 410.092L1066.05 410.101L1066.05 410.109L1067.66 408.142V408.142ZM969.794 408.563L968.191 406.596L969.794 408.563V408.563ZM969.794 531.379L968.191 533.346L968.204 533.361L968.217 533.378L969.794 531.379V531.379ZM1068 531.379L1069.6 533.345L1069.61 533.338L1069.61 533.329L1068 531.379ZM1017.38 566.009C996.407 566.009 978.423 556.38 963.309 536.995L960.082 540.904C976.014 561.337 995.15 571.617 1017.38 571.617V566.009ZM963.319 537.009C948.175 517.314 940.66 494.586 940.66 468.709H936.161C936.161 496.109 944.169 520.208 960.071 540.89L963.319 537.009ZM940.66 468.709C940.66 442.85 948.277 420.568 963.612 401.727L960.453 397.734C944.293 417.588 936.161 441.291 936.161 468.709H940.66ZM963.623 401.713C978.955 382.605 997.283 373.092 1018.73 373.092V367.484C996.076 367.484 976.608 377.599 960.442 397.748L963.623 401.713ZM1018.73 373.092C1040.4 373.092 1058.72 382.609 1073.82 401.699L1077.02 397.762C1061.07 377.595 1041.6 367.484 1018.73 367.484V373.092ZM1073.84 401.727C1089.17 420.563 1096.79 442.982 1096.79 469.13H1101.29C1101.29 441.44 1093.16 417.593 1077 397.734L1073.84 401.727V401.727ZM1096.79 469.13C1096.79 495.018 1089.38 517.604 1074.47 537.011L1077.72 540.889C1093.4 520.478 1101.29 496.518 1101.29 469.13H1096.79ZM1074.47 537.011C1059.59 556.375 1041.61 566.009 1020.41 566.009V571.617C1042.86 571.617 1062 561.341 1077.72 540.889L1074.47 537.011V537.011ZM1020.41 566.009H1017.38V571.617H1020.41V566.009ZM1090.49 469.971C1090.49 445.382 1083.39 424.072 1069.26 406.175L1066.05 410.109C1079.37 426.982 1085.99 446.891 1085.99 469.971H1090.49ZM1069.28 406.192C1055.37 388.279 1038.59 379.261 1019.06 379.261V384.869C1037.33 384.869 1052.95 393.236 1066.04 410.092L1069.28 406.192ZM1019.06 379.261C999.529 379.261 982.538 388.426 968.191 406.596L971.398 410.53C984.948 393.369 1000.8 384.869 1019.06 384.869V379.261ZM968.191 406.596C954.07 424.485 946.959 445.653 946.959 469.971H951.459C951.459 447.181 958.072 427.41 971.398 410.53L968.191 406.596V406.596ZM946.959 469.971C946.959 494.289 954.07 515.456 968.191 533.346L971.398 529.412C958.072 512.532 951.459 492.761 951.459 469.971H946.959V469.971ZM968.217 533.378C982.569 550.978 999.553 559.84 1019.06 559.84V554.232C1000.78 554.232 984.917 545.989 971.372 529.38L968.217 533.378ZM1019.06 559.84C1038.79 559.84 1055.68 550.982 1069.6 533.345L1066.39 529.413C1053.31 545.985 1037.58 554.232 1019.06 554.232V559.84V559.84ZM1069.61 533.329C1083.5 515.437 1090.49 494.275 1090.49 469.971H1085.99C1085.99 492.775 1079.48 512.551 1066.38 529.429L1069.61 533.329V533.329Z" fill="white"/>
<g filter="url(#filter0_d_606_2)">
<path d="M55.1971 18.804V322.059H133.488V334.256H44.0609V18.804H55.1971ZM330.008 144.985H340.807V334.256H330.008V295.981C318.535 324.582 298.962 338.883 271.29 338.883C252.392 338.883 236.532 330.751 223.708 314.488C210.885 298.225 204.473 278.456 204.473 255.183V144.985H215.272V255.183C215.272 274.531 220.671 291.355 231.47 305.655C242.493 319.956 255.767 327.106 271.29 327.106C286.813 327.106 300.424 319.956 312.123 305.655C324.046 291.355 330.008 274.531 330.008 255.183V144.985ZM435.939 334.256H425.141V144.985H435.939V183.26C447.413 154.659 466.986 140.358 494.658 140.358C513.555 140.358 529.416 148.49 542.239 164.753C555.063 181.017 561.475 200.785 561.475 224.058V334.256H550.676V224.058C550.676 204.711 545.164 187.886 534.14 173.586C523.342 159.285 510.181 152.135 494.658 152.135C479.134 152.135 465.411 159.285 453.487 173.586C441.789 187.886 435.939 204.711 435.939 224.058V334.256V334.256ZM800.875 144.985V334.256H790.076V287.149C783.777 303.132 774.328 315.75 761.73 325.003C749.131 334.256 735.633 338.883 721.234 338.883C699.187 338.883 680.289 329.209 664.541 309.861C648.793 290.233 640.919 266.82 640.919 239.621C640.919 212.422 648.793 189.148 664.541 169.8C680.289 150.172 699.187 140.358 721.234 140.358C735.633 140.358 749.356 145.125 762.404 154.659C775.678 164.192 784.902 176.811 790.076 192.513V144.985H800.875ZM651.717 240.041C651.717 263.595 658.579 284.064 672.302 301.449C686.251 318.554 702.674 327.106 721.572 327.106C740.694 327.106 757.005 318.554 770.504 301.449C784.002 284.064 790.751 263.595 790.751 240.041C790.751 216.207 783.889 195.597 770.166 178.213C756.668 160.828 740.47 152.135 721.572 152.135C702.674 152.135 686.251 160.968 672.302 178.633C658.579 196.018 651.717 216.487 651.717 240.041Z" fill="white"/>
<path d="M55.1971 18.804H57.4468V16H55.1971V18.804ZM55.1971 322.059H52.9473V324.863H55.1971V322.059ZM133.488 322.059H135.738V319.255H133.488V322.059ZM133.488 334.256V337.06H135.738V334.256H133.488ZM44.0609 334.256H41.8111V337.06H44.0609V334.256ZM44.0609 18.804V16H41.8111V18.804H44.0609ZM52.9473 18.804V322.059H57.4468V18.804H52.9473ZM55.1971 324.863H133.488V319.255H55.1971V324.863ZM131.238 322.059V334.256H135.738V322.059H131.238ZM133.488 331.452H44.0609V337.06H133.488V331.452ZM46.3106 334.256V18.804H41.8111V334.256H46.3106ZM44.0609 21.608H55.1971V16H44.0609V21.608V21.608ZM330.008 144.985V142.181H327.758V144.985H330.008ZM340.807 144.985H343.057V142.181H340.807V144.985ZM340.807 334.256V337.06H343.057V334.256H340.807ZM330.008 334.256H327.758V337.06H330.008V334.256ZM330.008 295.981H332.258L327.997 294.728L330.008 295.981ZM223.708 314.488L225.313 312.522L223.708 314.488ZM204.473 144.985V142.181H202.223V144.985H204.473ZM215.272 144.985H217.521V142.181H215.272V144.985ZM231.47 305.655L229.832 307.577L229.84 307.587L229.848 307.598L231.47 305.655V305.655ZM312.123 305.655L310.564 303.635L310.556 303.643L310.548 303.653L312.123 305.655ZM330.008 147.789H340.807V142.181H330.008V147.789ZM338.557 144.985V334.256H343.057V144.985H338.557ZM340.807 331.452H330.008V337.06H340.807V331.452ZM332.258 334.256V295.981H327.758V334.256H332.258ZM327.997 294.728C322.428 308.608 314.95 318.897 305.586 325.739C296.214 332.586 284.814 336.079 271.29 336.079V341.687C285.439 341.687 297.661 338.029 307.862 330.576C318.071 323.117 326.115 311.956 332.021 297.235L327.997 294.728V294.728ZM271.29 336.079C252.974 336.079 237.698 328.23 225.313 312.522L222.104 316.454C235.366 333.272 251.812 341.687 271.29 341.687V336.079ZM225.313 312.522C212.913 296.796 206.723 277.738 206.723 255.183H202.223C202.223 279.174 208.858 299.653 222.104 316.454L225.313 312.522V312.522ZM206.723 255.183V144.985H202.223V255.183H206.723ZM204.473 147.789H215.272V142.181H204.473V147.789ZM213.022 144.985V255.183H217.521V144.985H213.022ZM213.022 255.183C213.022 275.257 218.647 292.765 229.832 307.577L233.109 303.733C222.696 289.944 217.521 273.804 217.521 255.183H213.022V255.183ZM229.848 307.598C241.284 322.433 255.138 329.91 271.29 329.91V324.302C256.397 324.302 243.704 317.478 233.093 303.712L229.848 307.598V307.598ZM271.29 329.91C287.439 329.91 301.605 322.44 313.699 307.657L310.548 303.653C299.244 317.471 286.189 324.302 271.29 324.302V329.91ZM313.683 307.676C326.015 292.886 332.258 275.348 332.258 255.183H327.758C327.758 273.713 322.079 289.824 310.564 303.635L313.683 307.676V307.676ZM332.258 255.183V144.985H327.758V255.183H332.258V255.183ZM435.939 334.256V337.06H438.189V334.256H435.939ZM425.141 334.256H422.891V337.06H425.141V334.256ZM425.141 144.985V142.181H422.891V144.985H425.141ZM435.939 144.985H438.189V142.181H435.939V144.985ZM435.939 183.26H433.69L437.952 184.513L435.939 183.26ZM542.239 164.753L540.635 166.719L542.239 164.753ZM561.475 334.256V337.06H563.724V334.256H561.475ZM550.676 334.256H548.426V337.06H550.676V334.256ZM534.14 173.586L532.503 175.508L532.51 175.518L532.518 175.529L534.14 173.586ZM453.487 173.586L451.928 171.566L451.92 171.574L451.912 171.584L453.487 173.586V173.586ZM435.939 331.452H425.141V337.06H435.939V331.452ZM427.39 334.256V144.985H422.891V334.256H427.39V334.256ZM425.141 147.789H435.939V142.181H425.141V147.789ZM433.69 144.985V183.26H438.189V144.985H433.69V144.985ZM437.952 184.513C443.52 170.633 450.999 160.344 460.362 153.502C469.735 146.655 481.134 143.162 494.657 143.162V137.554C480.51 137.554 468.287 141.214 458.087 148.665C447.876 156.124 439.832 167.285 433.928 182.006L437.952 184.513ZM494.657 143.162C512.975 143.162 528.251 151.011 540.635 166.719L543.845 162.788C530.582 145.969 514.137 137.554 494.657 137.554V143.162V143.162ZM540.635 166.719C553.036 182.445 559.225 201.503 559.225 224.058H563.724C563.724 200.067 557.091 179.588 543.845 162.788L540.635 166.719ZM559.225 224.058V334.256H563.724V224.058H559.225ZM561.475 331.452H550.676V337.06H561.475V331.452ZM552.926 334.256V224.058H548.426V334.256H552.926ZM552.926 224.058C552.926 203.966 547.179 186.451 535.764 171.643L532.518 175.529C543.151 189.321 548.426 205.455 548.426 224.058H552.926ZM535.779 171.664C524.562 156.811 510.812 149.331 494.657 149.331V154.939C509.551 154.939 522.121 161.76 532.503 175.508L535.779 171.664V171.664ZM494.657 149.331C478.512 149.331 464.24 156.798 451.928 171.566L455.047 175.606C466.583 161.773 479.757 154.939 494.657 154.939V149.331V149.331ZM451.912 171.584C439.809 186.379 433.69 203.911 433.69 224.058H438.189C438.189 205.51 443.768 189.394 455.063 175.588L451.912 171.584V171.584ZM433.69 224.058V334.256H438.189V224.058H433.69V224.058ZM800.875 144.985H803.125V142.181H800.875V144.985ZM800.875 334.256V337.06H803.125V334.256H800.875ZM790.076 334.256H787.826V337.06H790.076V334.256ZM790.076 287.149H792.326L788.056 285.912L790.076 287.149ZM761.729 325.003L760.587 322.587L761.729 325.003ZM664.541 309.861L662.949 311.844L662.955 311.851L662.961 311.858L664.541 309.861V309.861ZM664.541 169.801L666.12 171.797L666.126 171.79L666.131 171.783L664.541 169.801V169.801ZM762.404 154.659L761.266 157.077L761.274 157.083L761.281 157.088L762.404 154.659ZM790.076 192.513L787.995 193.579L792.326 192.513H790.076ZM790.076 144.985V142.181H787.826V144.985H790.076ZM672.302 301.449L670.698 303.416L670.711 303.432L670.724 303.449L672.302 301.449V301.449ZM770.503 301.449L772.106 303.415L772.113 303.408L772.12 303.399L770.503 301.449V301.449ZM770.166 178.213L768.548 180.163L768.555 180.171L768.562 180.18L770.166 178.213ZM672.302 178.633L670.698 176.666L672.302 178.633ZM798.625 144.985V334.256H803.125V144.985H798.625V144.985ZM800.875 331.452H790.076V337.06H800.875V331.452ZM792.326 334.256V287.149H787.826V334.256H792.326ZM788.056 285.912C781.956 301.392 772.816 313.605 760.587 322.587L762.871 327.419C775.839 317.895 785.597 304.872 792.095 288.385L788.056 285.912V285.912ZM760.587 322.587C748.329 331.591 735.224 336.079 721.234 336.079V341.687C736.04 341.687 749.932 336.922 762.871 327.419L760.587 322.587ZM721.234 336.079C699.78 336.079 681.449 326.697 666.12 307.865L662.961 311.858C679.129 331.721 698.593 341.687 721.234 341.687V336.079V336.079ZM666.131 307.879C650.795 288.764 643.168 266.058 643.168 239.621H638.669C638.669 267.581 646.789 291.702 662.949 311.844L666.131 307.879ZM643.168 239.621C643.168 213.183 650.794 190.626 666.12 171.797L662.961 167.804C646.79 187.671 638.669 211.66 638.669 239.621H643.168ZM666.131 171.783C681.462 152.675 699.79 143.162 721.234 143.162V137.554C698.583 137.554 679.115 147.67 662.949 167.818L666.131 171.783V171.783ZM721.234 143.162C735.212 143.162 748.545 147.783 761.266 157.077L763.542 152.24C750.166 142.468 736.052 137.554 721.234 137.554V143.162ZM761.281 157.088C774.18 166.353 783.033 178.521 787.995 193.579L792.157 191.448C786.77 175.1 777.175 162.032 763.527 152.229L761.281 157.088V157.088ZM792.326 192.513V144.985H787.826V192.513H792.326ZM790.076 147.789H800.875V142.181H790.076V147.789ZM649.468 240.041C649.468 264.359 656.577 285.527 670.698 303.416L673.905 299.482C660.58 282.602 653.967 262.831 653.967 240.041H649.468ZM670.724 303.449C685.076 321.048 702.06 329.91 721.572 329.91V324.302C703.287 324.302 687.424 316.06 673.879 299.45L670.724 303.449ZM721.572 329.91C741.302 329.91 758.188 321.052 772.106 303.415L768.899 299.484C755.82 316.055 740.086 324.302 721.572 324.302V329.91ZM772.12 303.399C786.012 285.507 793.001 264.345 793.001 240.041H788.501C788.501 262.845 781.991 282.622 768.886 299.499L772.12 303.399ZM793.001 240.041C793.001 215.453 785.896 194.142 771.769 176.246L768.562 180.18C781.881 197.053 788.501 216.961 788.501 240.041H793.001ZM771.782 176.262C757.872 158.349 741.097 149.331 721.572 149.331V154.939C739.841 154.939 755.462 163.306 768.548 180.163L771.782 176.262V176.262ZM721.572 149.331C702.036 149.331 685.045 158.496 670.698 176.666L673.905 180.6C687.455 163.44 703.311 154.939 721.572 154.939V149.331ZM670.698 176.666C656.577 194.556 649.468 215.723 649.468 240.041H653.967C653.967 217.252 660.58 197.48 673.905 180.6L670.698 176.666V176.666ZM145.974 293.318L144.001 294.665L148.224 293.318H145.974ZM124.714 265.558L123.535 267.945L123.546 267.954L123.556 267.962L124.714 265.558ZM66.6707 268.502L68.1589 270.605L68.1623 270.601L66.6707 268.502ZM78.8193 353.884L77.4773 356.136L77.4886 356.146L78.8193 353.884ZM101.429 372.391L100.28 374.801L100.31 374.823L100.341 374.844L101.429 372.391V372.391ZM126.739 391.739L125.479 394.062L125.508 394.086L125.537 394.11L126.739 391.739ZM149.686 413.61L148.151 415.66L148.18 415.693L148.208 415.724L149.686 413.61ZM166.559 441.79L164.526 442.993L164.537 443.019L164.547 443.044L166.559 441.79V441.79ZM151.373 546.521L149.905 544.397L149.899 544.404L149.892 544.411L151.373 546.521V546.521ZM32.2497 526.752H30V527.605L30.3802 528.313L32.2497 526.752ZM32.2497 504.04L34.297 502.876L30 504.04H32.2497V504.04ZM57.8967 543.156L56.5818 545.431L56.6031 545.449L56.6234 545.468L57.8967 543.156ZM144.287 537.688L145.766 539.801L144.287 537.688ZM154.073 443.052L152.16 444.529L152.166 444.541L152.173 444.554L154.073 443.052V443.052ZM132.138 414.451L130.858 416.756L130.874 416.77L130.891 416.784L132.138 414.451V414.451ZM103.454 390.897L104.654 388.525L103.454 390.897V390.897ZM52.8348 341.687L54.6909 340.104L52.8348 341.687ZM145.974 271.867H148.224V270.888L147.736 270.123L145.974 271.867ZM147.947 291.97C142.586 279.77 135.222 270.147 125.871 263.153L123.556 267.962C132.203 274.428 139.012 283.311 144.001 294.665L147.947 291.97V291.97ZM125.893 263.17C116.74 256.149 106.427 252.659 95.0174 252.659V258.267C105.655 258.267 115.141 261.507 123.535 267.945L125.893 263.17ZM95.0174 252.659C83.4729 252.659 73.4852 257.233 65.1791 266.403L68.1623 270.601C75.6033 262.386 84.5145 258.267 95.0174 258.267V252.659ZM65.1825 266.399C56.9654 275.435 52.9473 287.896 52.9473 303.412H57.4468C57.4468 289.205 61.0779 278.393 68.1589 270.605L65.1825 266.399V266.399ZM52.9473 303.412V305.515H57.4468V303.412H52.9473ZM52.9473 305.515C52.9473 324.378 61.394 341.242 77.4773 356.135L80.1613 351.634C64.7472 337.365 57.4468 321.983 57.4468 305.515H52.9473ZM77.4886 356.146C84.3053 362.375 91.9027 368.593 100.278 374.801L102.579 369.981C94.3076 363.851 86.8329 357.732 80.1489 351.623L77.4886 356.146V356.146ZM100.341 374.844C108.946 380.781 117.333 387.193 125.479 394.062L127.999 389.416C119.742 382.452 111.24 375.953 102.517 369.937L100.341 374.844V374.844ZM125.537 394.11C133.978 400.754 141.514 407.939 148.151 415.66L151.221 411.56C144.36 403.579 136.597 396.183 127.94 389.368L125.537 394.11ZM148.208 415.724C154.932 423.023 160.375 432.098 164.526 442.993L168.592 440.588C164.195 429.05 158.388 419.339 151.164 411.496L148.208 415.724V415.724ZM164.547 443.044C168.879 453.844 171.059 465.747 171.059 478.804H175.558C175.558 464.942 173.239 452.17 168.571 440.537L164.547 443.044ZM171.059 478.804V483.01H175.558V478.804H171.059ZM171.059 483.01C171.059 508.93 163.975 529.287 149.905 544.397L152.841 548.645C168.018 532.349 175.558 510.366 175.558 483.01H171.059V483.01ZM149.892 544.411C135.953 559.613 118.613 567.27 97.7171 567.27V572.878C119.567 572.878 137.999 564.834 152.855 548.631L149.892 544.411V544.411ZM97.7171 567.27C70.3378 567.27 49.2206 553.288 34.1193 525.192L30.3802 528.313C46.3252 557.979 68.853 572.878 97.7171 572.878V567.27ZM34.4995 526.752V504.04H30V526.752H34.4995ZM30.2025 505.203C36.2115 521.622 45.0103 535.047 56.5818 545.431L59.2117 540.88C48.2859 531.076 39.9866 518.423 34.2959 502.876L30.2025 505.203ZM56.6234 545.468C68.5459 555.665 83.1872 560.681 100.417 560.681V555.073C83.9003 555.073 70.1949 550.275 59.1701 540.844L56.6234 545.468V545.468ZM100.417 560.681C117.817 560.681 132.97 553.719 145.766 539.801L142.807 535.575C130.856 548.576 116.762 555.073 100.417 555.073V560.681ZM145.766 539.801C158.679 525.754 165.097 507.005 165.097 483.851H160.597C160.597 505.561 154.641 522.703 142.807 535.575L145.766 539.801ZM165.097 483.851V481.327H160.597V483.851H165.097ZM165.097 481.327C165.097 466.793 162.057 453.51 155.973 441.551L152.173 444.554C157.787 455.588 160.597 467.822 160.597 481.327H165.097ZM155.986 441.576C149.976 429.477 142.443 419.643 133.386 412.118L130.891 416.784C139.381 423.841 146.471 433.074 152.16 444.529L155.986 441.576V441.576ZM133.418 412.146C124.615 404.549 115.027 396.675 104.654 388.525L102.254 393.27C112.58 401.383 122.113 409.212 130.858 416.756L133.418 412.146ZM104.654 388.525C95.0746 381.003 85.5176 373.436 75.9835 365.824L73.556 370.546C83.0991 378.165 92.665 385.74 102.254 393.27L104.654 388.525ZM75.9835 365.824C67.4626 359.016 60.3703 350.447 54.692 340.104L50.9777 343.27C56.9991 354.238 64.529 363.334 73.556 370.546L75.9835 365.824ZM54.692 340.104C49.0924 329.903 46.3106 318.816 46.3106 306.777H41.8111C41.8111 319.974 44.8786 332.16 50.9788 343.27L54.6909 340.104H54.692ZM46.3106 306.777V303.833H41.8111V306.777H46.3106ZM46.3106 303.833C46.3106 284.856 51.1768 270.728 60.6752 260.994L57.818 256.662C47.0688 267.678 41.8111 283.553 41.8111 303.833H46.3106ZM60.6752 260.994C70.3434 251.086 82.3042 246.07 96.7047 246.07V240.462C81.4088 240.462 68.3974 245.82 57.818 256.662L60.6752 260.994V260.994ZM96.7047 246.07C116.763 246.07 132.518 255.257 144.212 273.611L147.736 270.123C135.132 250.342 118.041 240.462 96.7047 240.462V246.07ZM143.724 271.867V293.318H148.224V271.867H143.724ZM308.646 554.933H310.896V552.129H308.646V554.933ZM308.646 566.71V569.514H310.896V566.71H308.646ZM267.813 546.941L266.255 548.964L266.264 548.974L266.272 548.984L267.813 546.941V546.941ZM250.94 298.785V295.981H248.69V298.785H250.94ZM261.739 298.785H263.988V295.981H261.739V298.785ZM261.739 375.335H259.489V378.139H261.739V375.335ZM308.308 375.335H310.558V372.531H308.308V375.335ZM308.308 387.112V389.916H310.558V387.112H308.308ZM261.739 387.112V384.308H259.489V387.112H261.739ZM275.237 538.109L273.647 540.091L273.657 540.104L273.666 540.116L275.237 538.109ZM306.396 554.933V566.71H310.896V554.933H306.396ZM308.646 563.906C293.224 563.906 280.17 557.57 269.354 544.899L266.272 548.984C277.954 562.67 292.123 569.514 308.646 569.514V563.906V563.906ZM269.371 544.918C258.597 532.027 253.19 515.671 253.19 495.628H248.69C248.69 517.084 254.532 534.937 266.255 548.964L269.371 544.918V544.918ZM253.19 495.628V298.785H248.69V495.628H253.19ZM250.94 301.589H261.739V295.981H250.94V301.589ZM259.489 298.785V375.335H263.988V298.785H259.489ZM261.739 378.139H308.308V372.531H261.739V378.139ZM306.059 375.335V387.112H310.558V375.335H306.059ZM308.308 384.308H261.739V389.916H308.308V384.308ZM259.489 387.112V495.628H263.988V387.112H259.489V387.112ZM259.489 495.628C259.489 513.412 264.191 528.306 273.647 540.091L276.828 536.126C268.287 525.479 263.988 512.052 263.988 495.628H259.489V495.628ZM273.666 540.116C283.316 551.85 295.019 557.737 308.646 557.737V552.129C296.177 552.129 285.606 546.8 276.809 536.101L273.666 540.116V540.116ZM505.119 374.915V372.111H502.869V374.915H505.119ZM515.917 374.915H518.167V372.111H515.917V374.915ZM515.917 564.186V566.99H518.167V564.186H515.917ZM505.119 564.186H502.869V566.99H505.119V564.186ZM505.119 525.911H507.368L503.107 524.658L505.119 525.911ZM398.819 544.418L400.424 542.452L398.819 544.418ZM379.583 374.915V372.111H377.334V374.915H379.583ZM390.382 374.915H392.632V372.111H390.382V374.915ZM406.58 535.585L404.942 537.507L404.95 537.517L404.958 537.528L406.58 535.585V535.585ZM487.233 535.585L485.674 533.565L485.666 533.573L485.659 533.583L487.233 535.585V535.585ZM505.119 377.719H515.917V372.111H505.119V377.719ZM513.668 374.915V564.186H518.167V374.915H513.668ZM515.917 561.382H505.119V566.99H515.917V561.382ZM507.368 564.186V525.911H502.869V564.186H507.368ZM503.107 524.658C497.538 538.538 490.059 548.827 480.697 555.669C471.324 562.516 459.925 566.009 446.401 566.009V571.617C460.549 571.617 472.772 567.959 482.972 560.506C493.182 553.047 501.226 541.886 507.131 527.164L503.107 524.658V524.658ZM446.401 566.009C428.084 566.009 412.809 558.16 400.424 542.452L397.215 546.383C410.477 563.202 426.922 571.617 446.401 571.617V566.009V566.009ZM400.424 542.452C388.023 526.726 381.833 507.668 381.833 485.113H377.334C377.334 509.104 383.968 529.583 397.215 546.383L400.424 542.452ZM381.833 485.113V374.915H377.334V485.113H381.833ZM379.583 377.719H390.382V372.111H379.583V377.719ZM388.132 374.915V485.113H392.632V374.915H388.132ZM388.132 485.113C388.132 505.187 393.758 522.695 404.942 537.507L408.219 533.663C397.806 519.874 392.632 503.734 392.632 485.113H388.132V485.113ZM404.958 537.528C416.395 552.363 430.249 559.84 446.401 559.84V554.232C431.507 554.232 418.814 547.408 408.203 533.642L404.958 537.528ZM446.401 559.84C462.548 559.84 476.716 552.37 488.809 537.587L485.659 533.583C474.355 547.401 461.299 554.232 446.401 554.232V559.84V559.84ZM488.794 537.605C501.125 522.815 507.368 505.278 507.368 485.113H502.869C502.869 503.643 497.19 519.753 485.674 533.565L488.794 537.605V537.605ZM507.368 485.113V374.915H502.869V485.113H507.368ZM751.771 248.734H754.021V245.93H751.771V248.734ZM751.771 564.186V566.99H754.021V564.186H751.771ZM740.972 564.186H738.723V566.99H740.972V564.186ZM740.972 518.34H743.222L738.997 516.997L740.972 518.34ZM711.613 555.353L712.714 557.798L712.728 557.79L712.74 557.78L711.613 555.353V555.353ZM615.099 539.791L613.498 541.759L613.509 541.773L613.52 541.787L615.099 539.791ZM615.099 399.73L613.509 397.748L615.099 399.73ZM712.288 384.168L711.161 386.595L711.169 386.6L711.176 386.605L712.288 384.168ZM740.972 421.181L738.953 422.416L743.222 421.181H740.972ZM740.972 248.734V245.93H738.723V248.734H740.972ZM622.861 531.379L621.245 533.329L621.251 533.338L621.257 533.345L622.861 531.379ZM720.725 531.379L722.315 533.361L720.725 531.379ZM720.725 408.563L719.108 410.513L719.122 410.53L719.134 410.545L720.725 408.563V408.563ZM622.861 408.142L621.258 406.175L621.251 406.184L621.245 406.192L622.861 408.142V408.142ZM749.521 248.734V564.186H754.021V248.734H749.521V248.734ZM751.771 561.382H740.972V566.99H751.771V561.382ZM743.222 564.186V518.34H738.723V564.186H743.222V564.186ZM738.997 516.997C732.456 531.945 722.972 543.917 710.486 552.926L712.74 557.78C725.902 548.283 735.99 535.579 742.948 519.683L738.997 516.997V516.997ZM710.512 552.908C697.994 561.668 685.209 566.009 672.13 566.009V571.617C686.048 571.617 699.586 566.984 712.714 557.798L710.512 552.908ZM672.13 566.009C650.444 566.009 632.003 556.621 616.679 537.794L613.52 541.787C629.692 561.657 649.272 571.617 672.13 571.617V566.009ZM616.702 537.823C601.587 518.712 594.064 496.002 594.064 469.55H589.565C589.565 497.497 597.566 521.614 613.498 541.759L616.702 537.823V537.823ZM594.064 469.55C594.064 443.1 601.586 420.539 616.69 401.713L613.509 397.748C597.566 417.617 589.565 441.603 589.565 469.55H594.064ZM616.69 401.713C632.016 382.61 650.455 373.092 672.13 373.092V367.484C649.262 367.484 629.679 377.594 613.509 397.748L616.69 401.713V401.713ZM672.13 373.092C685.658 373.092 698.658 377.573 711.161 386.595L713.415 381.741C700.271 372.256 686.499 367.484 672.13 367.484V373.092V373.092ZM711.176 386.605C723.869 395.605 733.095 407.545 738.953 422.416L742.992 419.946C736.701 403.973 726.805 391.237 713.401 381.731L711.176 386.605ZM743.222 421.181V248.734H738.723V421.181H743.222ZM740.972 251.538H751.771V245.93H740.972V251.538ZM600.364 469.971C600.364 494.275 607.352 515.437 621.245 533.329L624.477 529.429C611.373 512.551 604.863 492.775 604.863 469.971H600.364ZM621.257 533.345C635.169 550.975 651.942 559.84 671.455 559.84V554.232C653.174 554.232 637.55 545.992 624.465 529.413L621.257 533.345ZM671.455 559.84C691.184 559.84 708.178 550.983 722.315 533.361L719.134 529.396C705.826 545.984 689.972 554.232 671.455 554.232V559.84V559.84ZM722.315 533.361C736.665 515.476 743.897 494.304 743.897 469.971H739.397C739.397 492.745 732.681 512.512 719.134 529.396L722.315 533.361ZM743.897 469.971C743.897 445.638 736.665 424.466 722.315 406.58L719.134 410.545C732.681 427.43 739.397 447.197 739.397 469.971H743.897ZM722.341 406.613C708.215 388.429 691.33 379.261 671.793 379.261V384.869C690.052 384.869 705.789 393.366 719.108 410.513L722.341 406.613ZM671.793 379.261C652.268 379.261 635.388 388.276 621.258 406.175L624.465 410.109C637.782 393.239 653.522 384.869 671.793 384.869V379.261ZM621.245 406.192C607.347 424.091 600.364 445.396 600.364 469.971H604.863C604.863 446.877 611.378 426.963 624.477 410.092L621.245 406.192ZM854.81 375.335H857.06V372.531H854.81V375.335ZM854.81 564.186V566.99H857.06V564.186H854.81ZM844.011 564.186H841.762V566.99H844.011V564.186ZM844.011 375.335V372.531H841.762V375.335H844.011ZM852.56 375.335V564.186H857.06V375.335H852.56ZM854.81 561.382H844.011V566.99H854.81V561.382ZM846.261 564.186V375.335H841.762V564.186H846.261ZM844.011 378.139H854.81V372.531H844.011V378.139ZM849.411 326.265C846.457 326.265 844.66 325.404 843.604 324.177C842.577 322.987 841.874 321.013 841.874 317.713H837.375C837.375 321.983 838.303 325.687 840.538 328.282C842.744 330.841 845.84 331.873 849.411 331.873V326.265ZM841.874 317.713C841.874 314.412 842.577 312.438 843.604 311.248C844.66 310.021 846.457 309.16 849.411 309.16V303.552C845.84 303.552 842.744 304.584 840.538 307.143C838.303 309.738 837.375 313.442 837.375 317.713H841.874ZM849.411 309.16C852.365 309.16 854.161 310.021 855.217 311.248C856.244 312.438 856.947 314.412 856.947 317.713H861.447C861.447 313.442 860.519 309.738 858.284 307.143C856.078 304.584 852.981 303.552 849.411 303.552V309.16ZM856.947 317.713C856.947 321.013 856.244 322.987 855.217 324.177C854.161 325.404 852.365 326.265 849.411 326.265V331.873C852.981 331.873 856.078 330.841 858.284 328.282C860.519 325.687 861.447 321.983 861.447 317.713H856.947ZM961.695 538.95L960.071 540.89L960.082 540.904L961.695 538.95ZM962.033 399.73L963.612 401.727L963.618 401.72L963.623 401.713L962.033 399.73ZM1075.42 399.73L1073.82 401.699L1073.83 401.713L1073.84 401.727L1075.42 399.73ZM1076.09 538.95L1074.47 537.011L1076.09 538.95V538.95ZM1067.66 408.142L1066.04 410.092L1066.05 410.101L1066.05 410.109L1067.66 408.142V408.142ZM969.794 408.563L968.191 406.596L969.794 408.563V408.563ZM969.794 531.379L968.191 533.346L968.204 533.361L968.217 533.378L969.794 531.379V531.379ZM1068 531.379L1069.6 533.345L1069.61 533.338L1069.61 533.329L1068 531.379ZM1017.38 566.009C996.407 566.009 978.423 556.38 963.309 536.995L960.082 540.904C976.014 561.337 995.15 571.617 1017.38 571.617V566.009ZM963.319 537.009C948.175 517.314 940.66 494.586 940.66 468.709H936.161C936.161 496.109 944.169 520.208 960.071 540.89L963.319 537.009ZM940.66 468.709C940.66 442.85 948.277 420.568 963.612 401.727L960.453 397.734C944.293 417.588 936.161 441.291 936.161 468.709H940.66ZM963.623 401.713C978.955 382.605 997.283 373.092 1018.73 373.092V367.484C996.076 367.484 976.608 377.599 960.442 397.748L963.623 401.713ZM1018.73 373.092C1040.4 373.092 1058.72 382.609 1073.82 401.699L1077.02 397.762C1061.07 377.595 1041.6 367.484 1018.73 367.484V373.092ZM1073.84 401.727C1089.17 420.563 1096.79 442.982 1096.79 469.13H1101.29C1101.29 441.44 1093.16 417.593 1077 397.734L1073.84 401.727V401.727ZM1096.79 469.13C1096.79 495.018 1089.38 517.604 1074.47 537.011L1077.72 540.889C1093.4 520.478 1101.29 496.518 1101.29 469.13H1096.79ZM1074.47 537.011C1059.59 556.375 1041.61 566.009 1020.41 566.009V571.617C1042.86 571.617 1062 561.341 1077.72 540.889L1074.47 537.011V537.011ZM1020.41 566.009H1017.38V571.617H1020.41V566.009ZM1090.49 469.971C1090.49 445.382 1083.39 424.072 1069.26 406.175L1066.05 410.109C1079.37 426.982 1085.99 446.891 1085.99 469.971H1090.49ZM1069.28 406.192C1055.37 388.279 1038.59 379.261 1019.06 379.261V384.869C1037.33 384.869 1052.95 393.236 1066.04 410.092L1069.28 406.192ZM1019.06 379.261C999.529 379.261 982.538 388.426 968.191 406.596L971.398 410.53C984.948 393.369 1000.8 384.869 1019.06 384.869V379.261ZM968.191 406.596C954.07 424.485 946.959 445.653 946.959 469.971H951.459C951.459 447.181 958.072 427.41 971.398 410.53L968.191 406.596V406.596ZM946.959 469.971C946.959 494.289 954.07 515.456 968.191 533.346L971.398 529.412C958.072 512.532 951.459 492.761 951.459 469.971H946.959V469.971ZM968.217 533.378C982.569 550.978 999.553 559.84 1019.06 559.84V554.232C1000.78 554.232 984.917 545.989 971.372 529.38L968.217 533.378ZM1019.06 559.84C1038.79 559.84 1055.68 550.982 1069.6 533.345L1066.39 529.413C1053.31 545.985 1037.58 554.232 1019.06 554.232V559.84V559.84ZM1069.61 533.329C1083.5 515.437 1090.49 494.275 1090.49 469.971H1085.99C1085.99 492.775 1079.48 512.551 1066.38 529.429L1069.61 533.329V533.329Z" fill="white"/>
</g>
<defs>
<filter id="filter0_d_606_2" x="0" y="-10" width="1132" height="618" filterUnits="userSpaceOnUse" color-interpolation-filters="sRGB">
<feFlood flood-opacity="0" result="BackgroundImageFix"/>
<feColorMatrix in="SourceAlpha" type="matrix" values="0 0 0 0 0 0 0 0 0 0 0 0 0 0 0 0 0 0 127 0" result="hardAlpha"/>
<feOffset dy="4"/>
<feGaussianBlur stdDeviation="15"/>
<feColorMatrix type="matrix" values="0 0 0 0 1 0 0 0 0 0 0 0 0 0 0.716049 0 0 0 0.5 0"/>
<feBlend mode="normal" in2="BackgroundImageFix" result="effect1_dropShadow_606_2"/>
<feBlend mode="normal" in="SourceGraphic" in2="effect1_dropShadow_606_2" result="shape"/>
</filter>
</defs>
</svg>
