<svg width="908" height="414" viewBox="0 0 908 414" fill="none" xmlns="http://www.w3.org/2000/svg">
<g clip-path="url(#clip0_602_2)">
<path d="M50.2296 28.514V220.782H112.13V228.515H41.4248V28.514H50.2296ZM267.509 108.514H276.047V228.515H267.509V204.248C258.437 222.382 242.962 231.449 221.083 231.449C206.142 231.449 193.602 226.293 183.463 215.982C173.324 205.671 168.254 193.137 168.254 178.382V108.514H176.792V178.382C176.792 190.648 181.061 201.315 189.599 210.382C198.315 219.449 208.81 223.982 221.083 223.982C233.357 223.982 244.118 219.449 253.368 210.382C262.795 201.315 267.509 190.648 267.509 178.382V108.514ZM351.263 228.515H342.725V108.514H351.263V132.781C360.335 114.648 375.81 105.581 397.689 105.581C412.63 105.581 425.17 110.737 435.309 121.048C445.448 131.359 450.517 143.892 450.517 158.648V228.515H441.979V158.648C441.979 146.381 437.622 135.715 428.906 126.648C420.368 117.581 409.962 113.048 397.689 113.048C385.415 113.048 374.565 117.581 365.137 126.648C355.888 135.715 351.263 146.381 351.263 158.648V228.515ZM639.799 108.514V228.515H631.261V198.648C626.281 208.782 618.81 216.782 608.849 222.648C598.888 228.515 588.215 231.449 576.831 231.449C559.399 231.449 544.458 225.315 532.007 213.048C519.555 200.604 513.33 185.759 513.33 168.515C513.33 151.27 519.555 136.515 532.007 124.248C544.458 111.803 559.399 105.581 576.831 105.581C588.215 105.581 599.066 108.603 609.382 114.648C619.877 120.692 627.17 128.692 631.261 138.648V108.514H639.799ZM521.868 168.782C521.868 183.715 527.293 196.693 538.143 207.715C549.172 218.56 562.156 223.982 577.098 223.982C592.217 223.982 605.113 218.56 615.786 207.715C626.458 196.693 631.795 183.715 631.795 168.782C631.795 153.67 626.369 140.604 615.519 129.581C604.847 118.559 592.039 113.048 577.098 113.048C562.156 113.048 549.172 118.648 538.143 129.848C527.293 140.87 521.868 153.848 521.868 168.782Z" fill="white"/>
<path d="M50.2296 28.514H52.0084V26.7362H50.2296V28.514ZM50.2296 220.782H48.4509V222.56H50.2296V220.782ZM112.13 220.782H113.909V219.004H112.13V220.782ZM112.13 228.515V230.293H113.909V228.515H112.13ZM41.4248 228.515H39.6461V230.293H41.4248V228.515ZM41.4248 28.514V26.7362H39.6461V28.514H41.4248ZM48.4509 28.514V220.782H52.0084V28.514H48.4509ZM50.2296 222.56H112.13V219.004H50.2296V222.56ZM110.351 220.782V228.515H113.909V220.782H110.351ZM112.13 226.737H41.4248V230.293H112.13V226.737ZM43.2036 228.515V28.514H39.6461V228.515H43.2036ZM41.4248 30.2918H50.2296V26.7362H41.4248V30.2918ZM267.509 108.514V106.737H265.73V108.514H267.509ZM276.047 108.514H277.826V106.737H276.047V108.514ZM276.047 228.515V230.293H277.826V228.515H276.047ZM267.509 228.515H265.73V230.293H267.509V228.515ZM267.509 204.248H269.287L265.919 203.454L267.509 204.248ZM183.463 215.982L184.732 214.736L183.463 215.982ZM168.254 108.514V106.737H166.476V108.514H168.254ZM176.792 108.514H178.571V106.737H176.792V108.514ZM189.599 210.382L188.304 211.6L188.311 211.607L188.317 211.614L189.599 210.382ZM253.368 210.382L252.135 209.101L252.129 209.106L252.123 209.112L253.368 210.382ZM267.509 110.292H276.047V106.737H267.509V110.292ZM274.268 108.514V228.515H277.826V108.514H274.268ZM276.047 226.737H267.509V230.293H276.047V226.737ZM269.287 228.515V204.248H265.73V228.515H269.287ZM265.919 203.454C261.515 212.254 255.603 218.777 248.2 223.115C240.789 227.457 231.776 229.671 221.083 229.671V233.226C232.27 233.226 241.934 230.907 249.999 226.182C258.071 221.453 264.431 214.376 269.1 205.043L265.919 203.454ZM221.083 229.671C206.602 229.671 194.524 224.695 184.732 214.736L182.194 217.228C192.68 227.891 205.683 233.226 221.083 233.226V229.671ZM184.732 214.736C174.927 204.765 170.033 192.682 170.033 178.382H166.476C166.476 193.592 171.721 206.576 182.194 217.228L184.732 214.736ZM170.033 178.382V108.514H166.476V178.382H170.033ZM168.254 110.292H176.792V106.737H168.254V110.292ZM175.014 108.514V178.382H178.571V108.514H175.014ZM175.014 178.382C175.014 191.109 179.461 202.209 188.304 211.6L190.895 209.163C182.662 200.421 178.571 190.188 178.571 178.382H175.014ZM188.317 211.614C197.359 221.019 208.313 225.76 221.083 225.76V222.204C209.308 222.204 199.272 217.878 190.883 209.15L188.317 211.614ZM221.083 225.76C233.851 225.76 245.052 221.024 254.614 211.651L252.123 209.112C243.185 217.873 232.863 222.204 221.083 222.204V225.76ZM254.601 211.663C264.351 202.286 269.287 191.167 269.287 178.382H265.73C265.73 190.13 261.24 200.344 252.135 209.101L254.601 211.663ZM269.287 178.382V108.514H265.73V178.382H269.287ZM351.263 228.515V230.293H353.042V228.515H351.263ZM342.725 228.515H340.946V230.293H342.725V228.515ZM342.725 108.514V106.737H340.946V108.514H342.725ZM351.263 108.514H353.042V106.737H351.263V108.514ZM351.263 132.781H349.484L352.854 133.576L351.263 132.781ZM435.309 121.048L434.041 122.294L435.309 121.048ZM450.518 228.515V230.293H452.296V228.515H450.518ZM441.98 228.515H440.201V230.293H441.98V228.515ZM428.906 126.648L427.611 127.867L427.617 127.873L427.623 127.88L428.906 126.648ZM365.137 126.648L363.905 125.367L363.898 125.372L363.892 125.379L365.137 126.648ZM351.263 226.737H342.725V230.293H351.263V226.737ZM344.504 228.515V108.514H340.946V228.515H344.504ZM342.725 110.292H351.263V106.737H342.725V110.292ZM349.484 108.514V132.781H353.042V108.514H349.484ZM352.854 133.576C357.257 124.776 363.17 118.252 370.573 113.915C377.984 109.573 386.996 107.359 397.689 107.359V103.803C386.503 103.803 376.839 106.123 368.774 110.848C360.701 115.577 354.341 122.653 349.673 131.987L352.854 133.576ZM397.689 107.359C412.171 107.359 424.249 112.335 434.041 122.294L436.578 119.802C426.093 109.138 413.09 103.803 397.689 103.803V107.359ZM434.041 122.294C443.845 132.265 448.739 144.348 448.739 158.648H452.296C452.296 143.437 447.052 130.453 436.578 119.802L434.041 122.294ZM448.739 158.648V228.515H452.296V158.648H448.739ZM450.518 226.737H441.98V230.293H450.518V226.737ZM443.758 228.515V158.648H440.201V228.515H443.758ZM443.758 158.648C443.758 145.909 439.214 134.804 430.189 125.416L427.623 127.88C436.03 136.624 440.201 146.853 440.201 158.648H443.758ZM430.201 125.429C421.333 116.012 410.461 111.27 397.689 111.27V114.826C409.464 114.826 419.403 119.15 427.611 127.867L430.201 125.429ZM397.689 111.27C384.923 111.27 373.639 116.004 363.905 125.367L366.371 127.929C375.492 119.158 385.908 114.826 397.689 114.826V111.27ZM363.892 125.379C354.323 134.759 349.484 145.875 349.484 158.648H353.042C353.042 146.888 357.453 136.67 366.383 127.917L363.892 125.379ZM349.484 158.648V228.515H353.042V158.648H349.484ZM639.799 108.514H641.578V106.737H639.799V108.514ZM639.799 228.515V230.293H641.578V228.515H639.799ZM631.261 228.515H629.482V230.293H631.261V228.515ZM631.261 198.648H633.04L629.664 197.864L631.261 198.648ZM608.849 222.649L607.945 221.117L608.849 222.649ZM532.007 213.048L530.748 214.305L530.753 214.31L530.758 214.314L532.007 213.048ZM532.007 124.248L533.255 125.514L533.26 125.509L533.264 125.505L532.007 124.248ZM609.382 114.648L608.482 116.181L608.489 116.185L608.494 116.188L609.382 114.648ZM631.261 138.648L629.616 139.324L633.04 138.648H631.261ZM631.261 108.514V106.737H629.482V108.514H631.261ZM538.143 207.715L536.875 208.962L536.885 208.972L536.896 208.983L538.143 207.715ZM615.786 207.715L617.053 208.961L617.059 208.957L617.064 208.952L615.786 207.715ZM615.519 129.581L614.24 130.818L614.245 130.823L614.251 130.828L615.519 129.581ZM538.143 129.848L536.875 128.601L538.143 129.848ZM638.02 108.514V228.515H641.578V108.514H638.02ZM639.799 226.737H631.261V230.293H639.799V226.737ZM633.04 228.515V198.648H629.482V228.515H633.04ZM629.664 197.864C624.841 207.679 617.614 215.422 607.945 221.117L609.751 224.18C620.004 218.142 627.72 209.885 632.857 199.432L629.664 197.864ZM607.945 221.117C598.254 226.825 587.892 229.671 576.831 229.671V233.226C588.537 233.226 599.521 230.205 609.751 224.18L607.945 221.117ZM576.831 229.671C559.868 229.671 545.375 223.722 533.255 211.783L530.758 214.314C543.541 226.908 558.93 233.226 576.831 233.226V229.671ZM533.264 211.792C521.138 199.672 515.108 185.277 515.108 168.515H511.551C511.551 186.242 517.971 201.536 530.748 214.305L533.264 211.792ZM515.108 168.515C515.108 151.753 521.138 137.452 533.255 125.514L530.758 122.982C517.972 135.578 511.551 150.788 511.551 168.515H515.108ZM533.264 125.505C545.385 113.39 559.876 107.359 576.831 107.359V103.803C558.922 103.803 543.529 110.217 530.748 122.991L533.264 125.505ZM576.831 107.359C587.883 107.359 598.424 110.289 608.482 116.181L610.281 113.115C599.706 106.919 588.547 103.803 576.831 103.803V107.359ZM608.494 116.188C618.692 122.062 625.693 129.777 629.616 139.324L632.906 137.972C628.647 127.608 621.061 119.323 610.27 113.107L608.494 116.188ZM633.04 138.648V108.514H629.482V138.648H633.04ZM631.261 110.292H639.799V106.737H631.261V110.292ZM520.089 168.782C520.089 184.199 525.71 197.62 536.875 208.962L539.411 206.468C528.875 195.766 523.647 183.231 523.647 168.782H520.089ZM536.896 208.983C548.243 220.141 561.671 225.76 577.098 225.76V222.204C562.641 222.204 550.099 216.978 539.39 206.448L536.896 208.983ZM577.098 225.76C592.698 225.76 606.049 220.144 617.053 208.961L614.518 206.469C604.177 216.976 591.736 222.204 577.098 222.204V225.76ZM617.064 208.952C628.048 197.607 633.573 184.191 633.573 168.782H630.016C630.016 183.239 624.868 195.778 614.507 206.479L617.064 208.952ZM633.573 168.782C633.573 153.192 627.956 139.681 616.786 128.334L614.251 130.828C624.782 141.526 630.016 154.149 630.016 168.782H633.573ZM616.797 128.345C605.799 116.987 592.536 111.27 577.098 111.27V114.826C591.542 114.826 603.893 120.131 614.24 130.818L616.797 128.345ZM577.098 111.27C561.652 111.27 548.218 117.081 536.875 128.601L539.411 131.095C550.124 120.215 562.66 114.826 577.098 114.826V111.27ZM536.875 128.601C525.71 139.943 520.089 153.364 520.089 168.782H523.647C523.647 154.333 528.875 141.797 539.411 131.095L536.875 128.601ZM122.002 202.56L120.442 203.414L123.781 202.56H122.002ZM105.193 184.959L104.261 186.473L104.27 186.479L104.278 186.484L105.193 184.959ZM59.3013 186.826L60.4779 188.159L60.4806 188.157L59.3013 186.826ZM68.9066 240.96L67.8455 242.387L67.8544 242.394L68.9066 240.96ZM86.783 252.693L85.8741 254.221L85.8981 254.235L85.923 254.249L86.783 252.693ZM106.794 264.96L105.798 266.433L105.821 266.448L105.844 266.463L106.794 264.96ZM124.937 278.827L123.723 280.126L123.746 280.148L123.769 280.167L124.937 278.827ZM138.278 296.693L136.671 297.456L136.679 297.472L136.687 297.488L138.278 296.693ZM126.271 363.094L125.111 361.747L125.105 361.752L125.1 361.756L126.271 363.094ZM32.0864 350.56H30.3076V351.101L30.6082 351.55L32.0864 350.56ZM32.0864 336.16L33.705 335.423L30.3076 336.16H32.0864ZM52.3642 360.961L51.3245 362.403L51.3414 362.415L51.3574 362.426L52.3642 360.961ZM120.668 357.494L121.838 358.833L120.668 357.494ZM128.406 297.493L126.893 298.429L126.898 298.437L126.904 298.445L128.406 297.493ZM111.063 279.36L110.051 280.821L110.063 280.83L110.077 280.839L111.063 279.36ZM88.3839 264.427L89.3329 262.923L88.3839 264.427ZM48.362 233.226L49.8294 232.223L48.362 233.226ZM122.002 188.959H123.781V188.339L123.395 187.854L122.002 188.959ZM123.562 201.705C119.324 193.97 113.502 187.869 106.108 183.435L104.278 186.484C111.115 190.583 116.498 196.215 120.442 203.414L123.562 201.705ZM106.125 183.446C98.8883 178.994 90.7345 176.782 81.7136 176.782V180.337C90.1244 180.337 97.6245 182.391 104.261 186.473L106.125 183.446ZM81.7136 176.782C72.5859 176.782 64.6891 179.681 58.122 185.495L60.4806 188.157C66.3638 182.949 73.4095 180.337 81.7136 180.337V176.782ZM58.1246 185.493C51.6277 191.222 48.4509 199.122 48.4509 208.96H52.0084C52.0084 199.952 54.8793 193.097 60.4779 188.159L58.1246 185.493ZM48.4509 208.96V210.293H52.0084V208.96H48.4509ZM48.4509 210.293C48.4509 222.252 55.1292 232.945 67.8455 242.386L69.9676 239.533C57.7805 230.486 52.0084 220.734 52.0084 210.293H48.4509ZM67.8544 242.394C73.244 246.343 79.2509 250.285 85.8732 254.221L87.692 251.165C81.1524 247.279 75.2425 243.399 69.9578 239.526L67.8544 242.394ZM85.923 254.249C92.7261 258.012 99.3576 262.078 105.798 266.433L107.79 263.487C101.262 259.072 94.5397 254.952 87.643 251.138L85.923 254.249ZM105.844 266.463C112.518 270.676 118.476 275.231 123.723 280.126L126.151 277.527C120.726 272.467 114.588 267.778 107.744 263.457L105.844 266.463ZM123.769 280.167C129.085 284.795 133.388 290.549 136.671 297.456L139.885 295.931C136.408 288.616 131.817 282.459 126.106 277.486L123.769 280.167ZM136.687 297.488C140.112 304.335 141.835 311.882 141.835 320.16H145.393C145.393 311.372 143.559 303.274 139.869 295.899L136.687 297.488ZM141.835 320.16V322.827H145.393V320.16H141.835ZM141.835 322.827C141.835 339.261 136.235 352.168 125.111 361.747L127.432 364.441C139.431 354.109 145.393 340.171 145.393 322.827H141.835ZM125.1 361.756C114.079 371.394 100.369 376.25 83.8481 376.25V379.805C101.123 379.805 115.697 374.705 127.443 364.432L125.1 361.756ZM83.8481 376.25C62.2007 376.25 45.5044 367.385 33.5645 349.571L30.6082 351.55C43.2151 370.359 61.0267 379.805 83.8481 379.805V376.25ZM33.8651 350.56V336.16H30.3076V350.56H33.8651ZM30.4677 336.898C35.2188 347.308 42.1755 355.819 51.3245 362.403L53.4038 359.518C44.7653 353.302 38.2035 345.28 33.7041 335.423L30.4677 336.898ZM51.3574 362.426C60.7839 368.891 72.36 372.072 85.9826 372.072V368.516C72.9239 368.516 62.0877 365.474 53.3709 359.495L51.3574 362.426ZM85.9826 372.072C99.7403 372.072 111.721 367.657 121.838 358.833L119.499 356.154C110.049 364.397 98.9061 368.516 85.9826 368.516V372.072ZM121.838 358.833C132.048 349.928 137.122 338.04 137.122 323.36H133.564C133.564 337.125 128.855 347.993 119.499 356.154L121.838 358.833ZM137.122 323.36V321.76H133.564V323.36H137.122ZM137.122 321.76C137.122 312.545 134.719 304.124 129.908 296.541L126.904 298.445C131.343 305.441 133.564 313.198 133.564 321.76H137.122ZM129.919 296.557C125.167 288.886 119.211 282.652 112.049 277.881L110.077 280.839C116.79 285.313 122.395 291.167 126.893 298.429L129.919 296.557ZM112.075 277.899C105.115 273.082 97.5338 268.09 89.3329 262.923L87.4349 265.931C95.5994 271.075 103.137 276.038 110.051 280.821L112.075 277.899ZM89.3329 262.923C81.7588 258.153 74.2026 253.356 66.6644 248.53L64.7452 251.523C72.2903 256.354 79.8537 261.157 87.4349 265.931L89.3329 262.923ZM66.6644 248.53C59.9274 244.213 54.3199 238.78 49.8303 232.223L46.8936 234.23C51.6544 241.184 57.6079 246.951 64.7452 251.523L66.6644 248.53ZM49.8303 232.223C45.403 225.755 43.2036 218.726 43.2036 211.093H39.6461C39.6461 219.46 42.0714 227.186 46.8945 234.23L49.8294 232.223H49.8303ZM43.2036 211.093V209.226H39.6461V211.093H43.2036ZM43.2036 209.226C43.2036 197.195 47.051 188.238 54.5609 182.066L52.3019 179.319C43.803 186.303 39.6461 196.368 39.6461 209.226H43.2036ZM54.5609 182.066C62.2051 175.784 71.6618 172.604 83.0476 172.604V169.048C70.9539 169.048 60.6665 172.446 52.3019 179.319L54.5609 182.066ZM83.0476 172.604C98.907 172.604 111.364 178.429 120.61 190.065L123.395 187.854C113.431 175.312 99.9173 169.048 83.0476 169.048V172.604ZM120.224 188.959V202.56H123.781V188.959H120.224ZM250.619 368.427H252.397V366.649H250.619V368.427ZM250.619 375.894V377.672H252.397V375.894H250.619ZM218.334 363.361L217.102 364.643L217.11 364.649L217.116 364.656L218.334 363.361ZM204.994 206.026V204.248H203.215V206.026H204.994ZM213.532 206.026H215.31V204.248H213.532V206.026ZM213.532 254.56H211.753V256.338H213.532V254.56ZM250.352 254.56H252.131V252.782H250.352V254.56ZM250.352 262.027V263.804H252.131V262.027H250.352ZM213.532 262.027V260.249H211.753V262.027H213.532ZM224.204 357.76L222.947 359.017L222.955 359.025L222.962 359.033L224.204 357.76ZM248.84 368.427V375.894H252.397V368.427H248.84ZM250.619 374.116C238.425 374.116 228.104 370.099 219.553 362.065L217.116 364.656C226.352 373.333 237.555 377.672 250.619 377.672V374.116ZM219.566 362.078C211.048 353.904 206.772 343.535 206.772 330.827H203.215C203.215 344.431 207.833 355.75 217.102 364.643L219.566 362.078ZM206.772 330.827V206.026H203.215V330.827H206.772ZM204.994 207.804H213.532V204.248H204.994V207.804ZM211.753 206.026V254.56H215.31V206.026H211.753ZM213.532 256.338H250.352V252.782H213.532V256.338ZM248.573 254.56V262.027H252.131V254.56H248.573ZM250.352 260.249H213.532V263.804H250.352V260.249ZM211.753 262.027V330.827H215.31V262.027H211.753ZM211.753 330.827C211.753 342.103 215.47 351.545 222.947 359.017L225.462 356.504C218.709 349.753 215.31 341.24 215.31 330.827H211.753ZM222.962 359.033C230.592 366.473 239.845 370.205 250.619 370.205V366.649C240.76 366.649 232.402 363.271 225.447 356.488L222.962 359.033ZM405.96 254.293V252.515H404.181V254.293H405.96ZM414.498 254.293H416.277V252.515H414.498V254.293ZM414.498 374.294V376.072H416.277V374.294H414.498ZM405.96 374.294H404.181V376.072H405.96V374.294ZM405.96 350.027H407.739L404.37 349.232L405.96 350.027ZM321.914 361.761L323.183 360.514L321.914 361.761ZM306.705 254.293V252.515H304.927V254.293H306.705ZM315.243 254.293H317.022V252.515H315.243V254.293ZM328.05 356.16L326.755 357.379L326.762 357.385L326.768 357.392L328.05 356.16ZM391.819 356.16L390.586 354.88L390.58 354.885L390.574 354.891L391.819 356.16ZM405.96 256.071H414.498V252.515H405.96V256.071ZM412.719 254.293V374.294H416.277V254.293H412.719ZM414.498 372.516H405.96V376.072H414.498V372.516ZM407.739 374.294V350.027H404.181V374.294H407.739ZM404.37 349.232C399.966 358.033 394.053 364.556 386.65 368.894C379.24 373.235 370.227 375.449 359.534 375.449V379.005C370.721 379.005 380.385 376.686 388.45 371.961C396.522 367.232 402.882 360.155 407.551 350.822L404.37 349.232ZM359.534 375.449C345.053 375.449 332.975 370.473 323.183 360.514L320.645 363.007C331.131 373.67 344.134 379.005 359.534 379.005V375.449ZM323.183 360.514C313.378 350.544 308.484 338.461 308.484 324.16H304.927C304.927 339.371 310.172 352.355 320.645 363.007L323.183 360.514ZM308.484 324.16V254.293H304.927V324.16H308.484ZM306.705 256.071H315.243V252.515H306.705V256.071ZM313.465 254.293V324.16H317.022V254.293H313.465ZM313.465 324.16C313.465 336.887 317.912 347.988 326.755 357.379L329.346 354.942C321.113 346.2 317.022 335.967 317.022 324.16H313.465ZM326.768 357.392C335.81 366.798 346.764 371.538 359.534 371.538V367.983C347.759 367.983 337.723 363.657 329.334 354.928L326.768 357.392ZM359.534 371.538C372.301 371.538 383.503 366.802 393.065 357.43L390.574 354.891C381.636 363.652 371.314 367.983 359.534 367.983V371.538ZM393.052 357.441C402.802 348.064 407.739 336.945 407.739 324.16H404.181C404.181 335.909 399.691 346.123 390.586 354.88L393.052 357.441ZM407.739 324.16V254.293H404.181V324.16H407.739ZM600.975 174.293H602.754V172.515H600.975V174.293ZM600.975 374.294V376.072H602.754V374.294H600.975ZM592.437 374.294H590.658V376.072H592.437V374.294ZM592.437 345.227H594.216L590.875 344.376L592.437 345.227ZM569.224 368.694L570.095 370.244L570.106 370.239L570.115 370.233L569.224 368.694ZM492.916 358.827L491.649 360.075L491.658 360.084L491.667 360.093L492.916 358.827ZM492.916 270.027L491.658 268.77L492.916 270.027ZM569.758 260.16L568.867 261.699L568.873 261.702L568.878 261.705L569.758 260.16ZM592.437 283.627L590.841 284.41L594.216 283.627H592.437ZM592.437 174.293V172.515H590.658V174.293H592.437ZM499.053 353.494L497.775 354.73L497.78 354.736L497.784 354.74L499.053 353.494ZM576.428 353.494L577.686 354.751L576.428 353.494ZM576.428 275.627L575.15 276.863L575.161 276.874L575.171 276.884L576.428 275.627ZM499.053 275.36L497.785 274.113L497.78 274.118L497.775 274.124L499.053 275.36ZM599.196 174.293V374.294H602.754V174.293H599.196ZM600.975 372.516H592.437V376.072H600.975V372.516ZM594.216 374.294V345.227H590.658V374.294H594.216ZM590.875 344.376C585.704 353.853 578.205 361.443 568.333 367.155L570.115 370.233C580.522 364.211 588.498 356.157 593.999 346.079L590.875 344.376ZM568.354 367.144C558.457 372.697 548.348 375.449 538.007 375.449V379.005C549.011 379.005 559.715 376.068 570.095 370.244L568.354 367.144ZM538.007 375.449C520.861 375.449 506.281 369.497 494.165 357.561L491.667 360.093C504.454 372.69 519.934 379.005 538.007 379.005V375.449ZM494.183 357.579C482.233 345.463 476.285 331.064 476.285 314.294H472.727C472.727 332.012 479.053 347.303 491.649 360.075L494.183 357.579ZM476.285 314.294C476.285 297.524 482.232 283.22 494.173 271.284L491.658 268.77C479.053 281.367 472.727 296.574 472.727 314.294H476.285ZM494.173 271.284C506.291 259.172 520.87 253.138 538.007 253.138V249.582C519.926 249.582 504.443 255.992 491.658 268.77L494.173 271.284ZM538.007 253.138C548.703 253.138 558.981 255.979 568.867 261.699L570.649 258.621C560.257 252.608 549.368 249.582 538.007 249.582V253.138ZM568.878 261.705C578.914 267.411 586.209 274.981 590.841 284.41L594.034 282.844C589.06 272.716 581.235 264.642 570.638 258.615L568.878 261.705ZM594.216 283.627V174.293H590.658V283.627H594.216ZM592.437 176.07H600.975V172.515H592.437V176.07ZM481.265 314.56C481.265 329.969 486.791 343.386 497.775 354.73L500.331 352.257C489.969 341.557 484.823 329.018 484.823 314.56H481.265ZM497.784 354.74C508.784 365.918 522.046 371.538 537.474 371.538V367.983C523.02 367.983 510.666 362.759 500.321 352.248L497.784 354.74ZM537.474 371.538C553.072 371.538 566.508 365.923 577.686 354.751L575.171 352.237C564.648 362.753 552.114 367.983 537.474 367.983V371.538ZM577.686 354.751C589.032 343.411 594.749 329.988 594.749 314.56H591.192C591.192 328.999 585.881 341.532 575.171 352.237L577.686 354.751ZM594.749 314.56C594.749 299.133 589.032 285.709 577.686 274.37L575.171 276.884C585.881 287.589 591.192 300.121 591.192 314.56H594.749ZM577.706 274.39C566.538 262.861 553.187 257.049 537.74 257.049V260.604C552.177 260.604 564.619 265.992 575.15 276.863L577.706 274.39ZM537.74 257.049C522.304 257.049 508.957 262.764 497.785 274.113L500.321 276.607C510.85 265.911 523.294 260.604 537.74 260.604V257.049ZM497.775 274.124C486.786 285.472 481.265 298.98 481.265 314.56H484.823C484.823 299.918 489.974 287.293 500.331 276.596L497.775 274.124ZM682.443 254.56H684.222V252.782H682.443V254.56ZM682.443 374.294V376.072H684.222V374.294H682.443ZM673.905 374.294H672.126V376.072H673.905V374.294ZM673.905 254.56V252.782H672.126V254.56H673.905ZM680.664 254.56V374.294H684.222V254.56H680.664ZM682.443 372.516H673.905V376.072H682.443V372.516ZM675.684 374.294V254.56H672.126V374.294H675.684ZM673.905 256.338H682.443V252.782H673.905V256.338ZM678.174 223.449C675.838 223.449 674.418 222.903 673.583 222.125C672.771 221.37 672.215 220.119 672.215 218.026H668.658C668.658 220.734 669.391 223.082 671.158 224.728C672.903 226.35 675.351 227.004 678.174 227.004V223.449ZM672.215 218.026C672.215 215.934 672.771 214.682 673.583 213.928C674.418 213.15 675.838 212.604 678.174 212.604V209.048C675.351 209.048 672.903 209.703 671.158 211.325C669.391 212.97 668.658 215.319 668.658 218.026H672.215ZM678.174 212.604C680.509 212.604 681.93 213.15 682.765 213.928C683.577 214.682 684.133 215.934 684.133 218.026H687.69C687.69 215.319 686.956 212.97 685.189 211.325C683.445 209.703 680.997 209.048 678.174 209.048V212.604ZM684.133 218.026C684.133 220.119 683.577 221.37 682.765 222.125C681.93 222.903 680.509 223.449 678.174 223.449V227.004C680.997 227.004 683.445 226.35 685.189 224.728C686.956 223.082 687.69 220.734 687.69 218.026H684.133ZM766.951 358.294L765.667 359.524L765.676 359.533L766.951 358.294ZM767.218 270.027L768.467 271.292L768.471 271.288L768.476 271.284L767.218 270.027ZM856.867 270.027L855.601 271.275L855.61 271.284L855.619 271.292L856.867 270.027ZM857.401 358.294L856.117 357.064L857.401 358.294ZM850.731 275.36L849.453 276.596L849.458 276.602L849.463 276.607L850.731 275.36ZM773.355 275.627L772.088 274.38L773.355 275.627ZM773.355 353.494L772.088 354.741L772.097 354.751L772.108 354.761L773.355 353.494ZM850.997 353.494L852.266 354.74L852.271 354.736L852.276 354.73L850.997 353.494ZM810.976 375.449C794.397 375.449 780.177 369.345 768.228 357.055L765.676 359.533C778.272 372.488 793.402 379.005 810.976 379.005V375.449ZM768.236 357.064C756.262 344.576 750.32 330.167 750.32 313.76H746.763C746.763 331.132 753.094 346.411 765.667 359.524L768.236 357.064ZM750.32 313.76C750.32 297.365 756.342 283.238 768.467 271.292L765.97 268.761C753.193 281.348 746.763 296.377 746.763 313.76H750.32ZM768.476 271.284C780.598 259.169 795.089 253.138 812.043 253.138V249.582C794.134 249.582 778.742 255.995 765.961 268.77L768.476 271.284ZM812.043 253.138C829.18 253.138 843.665 259.171 855.601 271.275L858.135 268.779C845.524 255.993 830.125 249.582 812.043 249.582V253.138ZM855.619 271.292C867.74 283.235 873.766 297.449 873.766 314.027H877.323C877.323 296.471 870.897 281.352 858.116 268.761L855.619 271.292ZM873.766 314.027C873.766 330.44 867.907 344.76 856.117 357.064L858.686 359.523C871.086 346.583 877.323 331.391 877.323 314.027H873.766ZM856.117 357.064C844.351 369.342 830.139 375.449 813.377 375.449V379.005C831.123 379.005 846.26 372.49 858.686 359.523L856.117 357.064ZM813.377 375.449H810.976V379.005H813.377V375.449ZM868.785 314.56C868.785 298.971 863.168 285.46 851.999 274.113L849.463 276.607C859.994 287.305 865.228 299.927 865.228 314.56H868.785ZM852.01 274.124C841.012 262.766 827.747 257.049 812.31 257.049V260.604C826.755 260.604 839.105 265.909 849.453 276.596L852.01 274.124ZM812.31 257.049C796.865 257.049 783.431 262.859 772.088 274.38L774.623 276.874C785.337 265.994 797.872 260.604 812.31 260.604V257.049ZM772.088 274.38C760.922 285.722 755.301 299.142 755.301 314.56H758.858C758.858 300.111 764.087 287.576 774.623 276.874L772.088 274.38ZM755.301 314.56C755.301 329.978 760.922 343.399 772.088 354.741L774.623 352.247C764.087 341.544 758.858 329.009 758.858 314.56H755.301ZM772.108 354.761C783.456 365.92 796.883 371.538 812.31 371.538V367.983C797.854 367.983 785.312 362.757 774.603 352.226L772.108 354.761ZM812.31 371.538C827.909 371.538 841.261 365.922 852.266 354.74L849.729 352.248C839.389 362.754 826.949 367.983 812.31 367.983V371.538ZM852.276 354.73C863.26 343.386 868.785 329.969 868.785 314.56H865.228C865.228 329.018 860.081 341.557 849.719 352.257L852.276 354.73Z" fill="white"/>
</g>
<g clip-path="url(#clip1_602_2)" filter="url(#filter0_d_602_2)">
<path d="M50.2296 28.514V220.782H112.13V228.515H41.4248V28.514H50.2296ZM267.509 108.514H276.047V228.515H267.509V204.248C258.437 222.382 242.962 231.449 221.083 231.449C206.142 231.449 193.602 226.293 183.463 215.982C173.324 205.671 168.254 193.137 168.254 178.382V108.514H176.792V178.382C176.792 190.648 181.061 201.315 189.599 210.382C198.315 219.449 208.81 223.982 221.083 223.982C233.357 223.982 244.118 219.449 253.368 210.382C262.795 201.315 267.509 190.648 267.509 178.382V108.514ZM351.263 228.515H342.725V108.514H351.263V132.781C360.335 114.648 375.81 105.581 397.689 105.581C412.63 105.581 425.17 110.737 435.309 121.048C445.448 131.359 450.517 143.892 450.517 158.648V228.515H441.979V158.648C441.979 146.381 437.622 135.715 428.906 126.648C420.368 117.581 409.962 113.048 397.689 113.048C385.415 113.048 374.565 117.581 365.137 126.648C355.888 135.715 351.263 146.381 351.263 158.648V228.515ZM639.799 108.514V228.515H631.261V198.648C626.281 208.782 618.81 216.782 608.849 222.648C598.888 228.515 588.215 231.449 576.831 231.449C559.399 231.449 544.458 225.315 532.007 213.048C519.555 200.604 513.33 185.759 513.33 168.515C513.33 151.27 519.555 136.515 532.007 124.248C544.458 111.803 559.399 105.581 576.831 105.581C588.215 105.581 599.066 108.603 609.382 114.648C619.877 120.692 627.17 128.692 631.261 138.648V108.514H639.799ZM521.868 168.782C521.868 183.715 527.293 196.693 538.143 207.715C549.172 218.56 562.156 223.982 577.098 223.982C592.217 223.982 605.113 218.56 615.786 207.715C626.458 196.693 631.795 183.715 631.795 168.782C631.795 153.67 626.369 140.604 615.519 129.581C604.847 118.559 592.039 113.048 577.098 113.048C562.156 113.048 549.172 118.648 538.143 129.848C527.293 140.87 521.868 153.848 521.868 168.782Z" fill="white"/>
<path d="M50.2296 28.514H52.0084V26.7362H50.2296V28.514ZM50.2296 220.782H48.4509V222.56H50.2296V220.782ZM112.13 220.782H113.909V219.004H112.13V220.782ZM112.13 228.515V230.293H113.909V228.515H112.13ZM41.4248 228.515H39.6461V230.293H41.4248V228.515ZM41.4248 28.514V26.7362H39.6461V28.514H41.4248ZM48.4509 28.514V220.782H52.0084V28.514H48.4509ZM50.2296 222.56H112.13V219.004H50.2296V222.56ZM110.351 220.782V228.515H113.909V220.782H110.351ZM112.13 226.737H41.4248V230.293H112.13V226.737ZM43.2036 228.515V28.514H39.6461V228.515H43.2036ZM41.4248 30.2918H50.2296V26.7362H41.4248V30.2918ZM267.509 108.514V106.737H265.73V108.514H267.509ZM276.047 108.514H277.826V106.737H276.047V108.514ZM276.047 228.515V230.293H277.826V228.515H276.047ZM267.509 228.515H265.73V230.293H267.509V228.515ZM267.509 204.248H269.287L265.919 203.454L267.509 204.248ZM183.463 215.982L184.732 214.736L183.463 215.982ZM168.254 108.514V106.737H166.476V108.514H168.254ZM176.792 108.514H178.571V106.737H176.792V108.514ZM189.599 210.382L188.304 211.6L188.311 211.607L188.317 211.614L189.599 210.382ZM253.368 210.382L252.135 209.101L252.129 209.106L252.123 209.112L253.368 210.382ZM267.509 110.292H276.047V106.737H267.509V110.292ZM274.268 108.514V228.515H277.826V108.514H274.268ZM276.047 226.737H267.509V230.293H276.047V226.737ZM269.287 228.515V204.248H265.73V228.515H269.287ZM265.919 203.454C261.515 212.254 255.603 218.777 248.2 223.115C240.789 227.457 231.776 229.671 221.083 229.671V233.226C232.27 233.226 241.934 230.907 249.999 226.182C258.071 221.453 264.431 214.376 269.1 205.043L265.919 203.454ZM221.083 229.671C206.602 229.671 194.524 224.695 184.732 214.736L182.194 217.228C192.68 227.891 205.683 233.226 221.083 233.226V229.671ZM184.732 214.736C174.927 204.765 170.033 192.682 170.033 178.382H166.476C166.476 193.592 171.721 206.576 182.194 217.228L184.732 214.736ZM170.033 178.382V108.514H166.476V178.382H170.033ZM168.254 110.292H176.792V106.737H168.254V110.292ZM175.014 108.514V178.382H178.571V108.514H175.014ZM175.014 178.382C175.014 191.109 179.461 202.209 188.304 211.6L190.895 209.163C182.662 200.421 178.571 190.188 178.571 178.382H175.014ZM188.317 211.614C197.359 221.019 208.313 225.76 221.083 225.76V222.204C209.308 222.204 199.272 217.878 190.883 209.15L188.317 211.614ZM221.083 225.76C233.851 225.76 245.052 221.024 254.614 211.651L252.123 209.112C243.185 217.873 232.863 222.204 221.083 222.204V225.76ZM254.601 211.663C264.351 202.286 269.287 191.167 269.287 178.382H265.73C265.73 190.13 261.24 200.344 252.135 209.101L254.601 211.663ZM269.287 178.382V108.514H265.73V178.382H269.287ZM351.263 228.515V230.293H353.042V228.515H351.263ZM342.725 228.515H340.946V230.293H342.725V228.515ZM342.725 108.514V106.737H340.946V108.514H342.725ZM351.263 108.514H353.042V106.737H351.263V108.514ZM351.263 132.781H349.484L352.854 133.576L351.263 132.781ZM435.309 121.048L434.041 122.294L435.309 121.048ZM450.518 228.515V230.293H452.296V228.515H450.518ZM441.98 228.515H440.201V230.293H441.98V228.515ZM428.906 126.648L427.611 127.867L427.617 127.873L427.623 127.88L428.906 126.648ZM365.137 126.648L363.905 125.367L363.898 125.372L363.892 125.379L365.137 126.648ZM351.263 226.737H342.725V230.293H351.263V226.737ZM344.504 228.515V108.514H340.946V228.515H344.504ZM342.725 110.292H351.263V106.737H342.725V110.292ZM349.484 108.514V132.781H353.042V108.514H349.484ZM352.854 133.576C357.257 124.776 363.17 118.252 370.573 113.915C377.984 109.573 386.996 107.359 397.689 107.359V103.803C386.503 103.803 376.839 106.123 368.774 110.848C360.701 115.577 354.341 122.653 349.673 131.987L352.854 133.576ZM397.689 107.359C412.171 107.359 424.249 112.335 434.041 122.294L436.578 119.802C426.093 109.138 413.09 103.803 397.689 103.803V107.359ZM434.041 122.294C443.845 132.265 448.739 144.348 448.739 158.648H452.296C452.296 143.437 447.052 130.453 436.578 119.802L434.041 122.294ZM448.739 158.648V228.515H452.296V158.648H448.739ZM450.518 226.737H441.98V230.293H450.518V226.737ZM443.758 228.515V158.648H440.201V228.515H443.758ZM443.758 158.648C443.758 145.909 439.214 134.804 430.189 125.416L427.623 127.88C436.03 136.624 440.201 146.853 440.201 158.648H443.758ZM430.201 125.429C421.333 116.012 410.461 111.27 397.689 111.27V114.826C409.464 114.826 419.403 119.15 427.611 127.867L430.201 125.429ZM397.689 111.27C384.923 111.27 373.639 116.004 363.905 125.367L366.371 127.929C375.492 119.158 385.908 114.826 397.689 114.826V111.27ZM363.892 125.379C354.323 134.759 349.484 145.875 349.484 158.648H353.042C353.042 146.888 357.453 136.67 366.383 127.917L363.892 125.379ZM349.484 158.648V228.515H353.042V158.648H349.484ZM639.799 108.514H641.578V106.737H639.799V108.514ZM639.799 228.515V230.293H641.578V228.515H639.799ZM631.261 228.515H629.482V230.293H631.261V228.515ZM631.261 198.648H633.04L629.664 197.864L631.261 198.648ZM608.849 222.649L607.945 221.117L608.849 222.649ZM532.007 213.048L530.748 214.305L530.753 214.31L530.758 214.314L532.007 213.048ZM532.007 124.248L533.255 125.514L533.26 125.509L533.264 125.505L532.007 124.248ZM609.382 114.648L608.482 116.181L608.489 116.185L608.494 116.188L609.382 114.648ZM631.261 138.648L629.616 139.324L633.04 138.648H631.261ZM631.261 108.514V106.737H629.482V108.514H631.261ZM538.143 207.715L536.875 208.962L536.885 208.972L536.896 208.983L538.143 207.715ZM615.786 207.715L617.053 208.961L617.059 208.957L617.064 208.952L615.786 207.715ZM615.519 129.581L614.24 130.818L614.245 130.823L614.251 130.828L615.519 129.581ZM538.143 129.848L536.875 128.601L538.143 129.848ZM638.02 108.514V228.515H641.578V108.514H638.02ZM639.799 226.737H631.261V230.293H639.799V226.737ZM633.04 228.515V198.648H629.482V228.515H633.04ZM629.664 197.864C624.841 207.679 617.614 215.422 607.945 221.117L609.751 224.18C620.004 218.142 627.72 209.885 632.857 199.432L629.664 197.864ZM607.945 221.117C598.254 226.825 587.892 229.671 576.831 229.671V233.226C588.537 233.226 599.521 230.205 609.751 224.18L607.945 221.117ZM576.831 229.671C559.868 229.671 545.375 223.722 533.255 211.783L530.758 214.314C543.541 226.908 558.93 233.226 576.831 233.226V229.671ZM533.264 211.792C521.138 199.672 515.108 185.277 515.108 168.515H511.551C511.551 186.242 517.971 201.536 530.748 214.305L533.264 211.792ZM515.108 168.515C515.108 151.753 521.138 137.452 533.255 125.514L530.758 122.982C517.972 135.578 511.551 150.788 511.551 168.515H515.108ZM533.264 125.505C545.385 113.39 559.876 107.359 576.831 107.359V103.803C558.922 103.803 543.529 110.217 530.748 122.991L533.264 125.505ZM576.831 107.359C587.883 107.359 598.424 110.289 608.482 116.181L610.281 113.115C599.706 106.919 588.547 103.803 576.831 103.803V107.359ZM608.494 116.188C618.692 122.062 625.693 129.777 629.616 139.324L632.906 137.972C628.647 127.608 621.061 119.323 610.27 113.107L608.494 116.188ZM633.04 138.648V108.514H629.482V138.648H633.04ZM631.261 110.292H639.799V106.737H631.261V110.292ZM520.089 168.782C520.089 184.199 525.71 197.62 536.875 208.962L539.411 206.468C528.875 195.766 523.647 183.231 523.647 168.782H520.089ZM536.896 208.983C548.243 220.141 561.671 225.76 577.098 225.76V222.204C562.641 222.204 550.099 216.978 539.39 206.448L536.896 208.983ZM577.098 225.76C592.698 225.76 606.049 220.144 617.053 208.961L614.518 206.469C604.177 216.976 591.736 222.204 577.098 222.204V225.76ZM617.064 208.952C628.048 197.607 633.573 184.191 633.573 168.782H630.016C630.016 183.239 624.868 195.778 614.507 206.479L617.064 208.952ZM633.573 168.782C633.573 153.192 627.956 139.681 616.786 128.334L614.251 130.828C624.782 141.526 630.016 154.149 630.016 168.782H633.573ZM616.797 128.345C605.799 116.987 592.536 111.27 577.098 111.27V114.826C591.542 114.826 603.893 120.131 614.24 130.818L616.797 128.345ZM577.098 111.27C561.652 111.27 548.218 117.081 536.875 128.601L539.411 131.095C550.124 120.215 562.66 114.826 577.098 114.826V111.27ZM536.875 128.601C525.71 139.943 520.089 153.364 520.089 168.782H523.647C523.647 154.333 528.875 141.797 539.411 131.095L536.875 128.601ZM122.002 202.56L120.442 203.414L123.781 202.56H122.002ZM105.193 184.959L104.261 186.473L104.27 186.479L104.278 186.484L105.193 184.959ZM59.3013 186.826L60.4779 188.159L60.4806 188.157L59.3013 186.826ZM68.9066 240.96L67.8455 242.387L67.8544 242.394L68.9066 240.96ZM86.783 252.693L85.8741 254.221L85.8981 254.235L85.923 254.249L86.783 252.693ZM106.794 264.96L105.798 266.433L105.821 266.448L105.844 266.463L106.794 264.96ZM124.937 278.827L123.723 280.126L123.746 280.148L123.769 280.167L124.937 278.827ZM138.278 296.693L136.671 297.456L136.679 297.472L136.687 297.488L138.278 296.693ZM126.271 363.094L125.111 361.747L125.105 361.752L125.1 361.756L126.271 363.094ZM32.0864 350.56H30.3076V351.101L30.6082 351.55L32.0864 350.56ZM32.0864 336.16L33.705 335.423L30.3076 336.16H32.0864ZM52.3642 360.961L51.3245 362.403L51.3414 362.415L51.3574 362.426L52.3642 360.961ZM120.668 357.494L121.838 358.833L120.668 357.494ZM128.406 297.493L126.893 298.429L126.898 298.437L126.904 298.445L128.406 297.493ZM111.063 279.36L110.051 280.821L110.063 280.83L110.077 280.839L111.063 279.36ZM88.3839 264.427L89.3329 262.923L88.3839 264.427ZM48.362 233.226L49.8294 232.223L48.362 233.226ZM122.002 188.959H123.781V188.339L123.395 187.854L122.002 188.959ZM123.562 201.705C119.324 193.97 113.502 187.869 106.108 183.435L104.278 186.484C111.115 190.583 116.498 196.215 120.442 203.414L123.562 201.705ZM106.125 183.446C98.8883 178.994 90.7345 176.782 81.7136 176.782V180.337C90.1244 180.337 97.6245 182.391 104.261 186.473L106.125 183.446ZM81.7136 176.782C72.5859 176.782 64.6891 179.681 58.122 185.495L60.4806 188.157C66.3638 182.949 73.4095 180.337 81.7136 180.337V176.782ZM58.1246 185.493C51.6277 191.222 48.4509 199.122 48.4509 208.96H52.0084C52.0084 199.952 54.8793 193.097 60.4779 188.159L58.1246 185.493ZM48.4509 208.96V210.293H52.0084V208.96H48.4509ZM48.4509 210.293C48.4509 222.252 55.1292 232.945 67.8455 242.386L69.9676 239.533C57.7805 230.486 52.0084 220.734 52.0084 210.293H48.4509ZM67.8544 242.394C73.244 246.343 79.2509 250.285 85.8732 254.221L87.692 251.165C81.1524 247.279 75.2425 243.399 69.9578 239.526L67.8544 242.394ZM85.923 254.249C92.7261 258.012 99.3576 262.078 105.798 266.433L107.79 263.487C101.262 259.072 94.5397 254.952 87.643 251.138L85.923 254.249ZM105.844 266.463C112.518 270.676 118.476 275.231 123.723 280.126L126.151 277.527C120.726 272.467 114.588 267.778 107.744 263.457L105.844 266.463ZM123.769 280.167C129.085 284.795 133.388 290.549 136.671 297.456L139.885 295.931C136.408 288.616 131.817 282.459 126.106 277.486L123.769 280.167ZM136.687 297.488C140.112 304.335 141.835 311.882 141.835 320.16H145.393C145.393 311.372 143.559 303.274 139.869 295.899L136.687 297.488ZM141.835 320.16V322.827H145.393V320.16H141.835ZM141.835 322.827C141.835 339.261 136.235 352.168 125.111 361.747L127.432 364.441C139.431 354.109 145.393 340.171 145.393 322.827H141.835ZM125.1 361.756C114.079 371.394 100.369 376.25 83.8481 376.25V379.805C101.123 379.805 115.697 374.705 127.443 364.432L125.1 361.756ZM83.8481 376.25C62.2007 376.25 45.5044 367.385 33.5645 349.571L30.6082 351.55C43.2151 370.359 61.0267 379.805 83.8481 379.805V376.25ZM33.8651 350.56V336.16H30.3076V350.56H33.8651ZM30.4677 336.898C35.2188 347.308 42.1755 355.819 51.3245 362.403L53.4038 359.518C44.7653 353.302 38.2035 345.28 33.7041 335.423L30.4677 336.898ZM51.3574 362.426C60.7839 368.891 72.36 372.072 85.9826 372.072V368.516C72.9239 368.516 62.0877 365.474 53.3709 359.495L51.3574 362.426ZM85.9826 372.072C99.7403 372.072 111.721 367.657 121.838 358.833L119.499 356.154C110.049 364.397 98.9061 368.516 85.9826 368.516V372.072ZM121.838 358.833C132.048 349.928 137.122 338.04 137.122 323.36H133.564C133.564 337.125 128.855 347.993 119.499 356.154L121.838 358.833ZM137.122 323.36V321.76H133.564V323.36H137.122ZM137.122 321.76C137.122 312.545 134.719 304.124 129.908 296.541L126.904 298.445C131.343 305.441 133.564 313.198 133.564 321.76H137.122ZM129.919 296.557C125.167 288.886 119.211 282.652 112.049 277.881L110.077 280.839C116.79 285.313 122.395 291.167 126.893 298.429L129.919 296.557ZM112.075 277.899C105.115 273.082 97.5338 268.09 89.3329 262.923L87.4349 265.931C95.5994 271.075 103.137 276.038 110.051 280.821L112.075 277.899ZM89.3329 262.923C81.7588 258.153 74.2026 253.356 66.6644 248.53L64.7452 251.523C72.2903 256.354 79.8537 261.157 87.4349 265.931L89.3329 262.923ZM66.6644 248.53C59.9274 244.213 54.3199 238.78 49.8303 232.223L46.8936 234.23C51.6544 241.184 57.6079 246.951 64.7452 251.523L66.6644 248.53ZM49.8303 232.223C45.403 225.755 43.2036 218.726 43.2036 211.093H39.6461C39.6461 219.46 42.0714 227.186 46.8945 234.23L49.8294 232.223H49.8303ZM43.2036 211.093V209.226H39.6461V211.093H43.2036ZM43.2036 209.226C43.2036 197.195 47.051 188.238 54.5609 182.066L52.3019 179.319C43.803 186.303 39.6461 196.368 39.6461 209.226H43.2036ZM54.5609 182.066C62.2051 175.784 71.6618 172.604 83.0476 172.604V169.048C70.9539 169.048 60.6665 172.446 52.3019 179.319L54.5609 182.066ZM83.0476 172.604C98.907 172.604 111.364 178.429 120.61 190.065L123.395 187.854C113.431 175.312 99.9173 169.048 83.0476 169.048V172.604ZM120.224 188.959V202.56H123.781V188.959H120.224ZM250.619 368.427H252.397V366.649H250.619V368.427ZM250.619 375.894V377.672H252.397V375.894H250.619ZM218.334 363.361L217.102 364.643L217.11 364.649L217.116 364.656L218.334 363.361ZM204.994 206.026V204.248H203.215V206.026H204.994ZM213.532 206.026H215.31V204.248H213.532V206.026ZM213.532 254.56H211.753V256.338H213.532V254.56ZM250.352 254.56H252.131V252.782H250.352V254.56ZM250.352 262.027V263.804H252.131V262.027H250.352ZM213.532 262.027V260.249H211.753V262.027H213.532ZM224.204 357.76L222.947 359.017L222.955 359.025L222.962 359.033L224.204 357.76ZM248.84 368.427V375.894H252.397V368.427H248.84ZM250.619 374.116C238.425 374.116 228.104 370.099 219.553 362.065L217.116 364.656C226.352 373.333 237.555 377.672 250.619 377.672V374.116ZM219.566 362.078C211.048 353.904 206.772 343.535 206.772 330.827H203.215C203.215 344.431 207.833 355.75 217.102 364.643L219.566 362.078ZM206.772 330.827V206.026H203.215V330.827H206.772ZM204.994 207.804H213.532V204.248H204.994V207.804ZM211.753 206.026V254.56H215.31V206.026H211.753ZM213.532 256.338H250.352V252.782H213.532V256.338ZM248.573 254.56V262.027H252.131V254.56H248.573ZM250.352 260.249H213.532V263.804H250.352V260.249ZM211.753 262.027V330.827H215.31V262.027H211.753ZM211.753 330.827C211.753 342.103 215.47 351.545 222.947 359.017L225.462 356.504C218.709 349.753 215.31 341.24 215.31 330.827H211.753ZM222.962 359.033C230.592 366.473 239.845 370.205 250.619 370.205V366.649C240.76 366.649 232.402 363.271 225.447 356.488L222.962 359.033ZM405.96 254.293V252.515H404.181V254.293H405.96ZM414.498 254.293H416.277V252.515H414.498V254.293ZM414.498 374.294V376.072H416.277V374.294H414.498ZM405.96 374.294H404.181V376.072H405.96V374.294ZM405.96 350.027H407.739L404.37 349.232L405.96 350.027ZM321.914 361.761L323.183 360.514L321.914 361.761ZM306.705 254.293V252.515H304.927V254.293H306.705ZM315.243 254.293H317.022V252.515H315.243V254.293ZM328.05 356.16L326.755 357.379L326.762 357.385L326.768 357.392L328.05 356.16ZM391.819 356.16L390.586 354.88L390.58 354.885L390.574 354.891L391.819 356.16ZM405.96 256.071H414.498V252.515H405.96V256.071ZM412.719 254.293V374.294H416.277V254.293H412.719ZM414.498 372.516H405.96V376.072H414.498V372.516ZM407.739 374.294V350.027H404.181V374.294H407.739ZM404.37 349.232C399.966 358.033 394.053 364.556 386.65 368.894C379.24 373.235 370.227 375.449 359.534 375.449V379.005C370.721 379.005 380.385 376.686 388.45 371.961C396.522 367.232 402.882 360.155 407.551 350.822L404.37 349.232ZM359.534 375.449C345.053 375.449 332.975 370.473 323.183 360.514L320.645 363.007C331.131 373.67 344.134 379.005 359.534 379.005V375.449ZM323.183 360.514C313.378 350.544 308.484 338.461 308.484 324.16H304.927C304.927 339.371 310.172 352.355 320.645 363.007L323.183 360.514ZM308.484 324.16V254.293H304.927V324.16H308.484ZM306.705 256.071H315.243V252.515H306.705V256.071ZM313.465 254.293V324.16H317.022V254.293H313.465ZM313.465 324.16C313.465 336.887 317.912 347.988 326.755 357.379L329.346 354.942C321.113 346.2 317.022 335.967 317.022 324.16H313.465ZM326.768 357.392C335.81 366.798 346.764 371.538 359.534 371.538V367.983C347.759 367.983 337.723 363.657 329.334 354.928L326.768 357.392ZM359.534 371.538C372.301 371.538 383.503 366.802 393.065 357.43L390.574 354.891C381.636 363.652 371.314 367.983 359.534 367.983V371.538ZM393.052 357.441C402.802 348.064 407.739 336.945 407.739 324.16H404.181C404.181 335.909 399.691 346.123 390.586 354.88L393.052 357.441ZM407.739 324.16V254.293H404.181V324.16H407.739ZM600.975 174.293H602.754V172.515H600.975V174.293ZM600.975 374.294V376.072H602.754V374.294H600.975ZM592.437 374.294H590.658V376.072H592.437V374.294ZM592.437 345.227H594.216L590.875 344.376L592.437 345.227ZM569.224 368.694L570.095 370.244L570.106 370.239L570.115 370.233L569.224 368.694ZM492.916 358.827L491.649 360.075L491.658 360.084L491.667 360.093L492.916 358.827ZM492.916 270.027L491.658 268.77L492.916 270.027ZM569.758 260.16L568.867 261.699L568.873 261.702L568.878 261.705L569.758 260.16ZM592.437 283.627L590.841 284.41L594.216 283.627H592.437ZM592.437 174.293V172.515H590.658V174.293H592.437ZM499.053 353.494L497.775 354.73L497.78 354.736L497.784 354.74L499.053 353.494ZM576.428 353.494L577.686 354.751L576.428 353.494ZM576.428 275.627L575.15 276.863L575.161 276.874L575.171 276.884L576.428 275.627ZM499.053 275.36L497.785 274.113L497.78 274.118L497.775 274.124L499.053 275.36ZM599.196 174.293V374.294H602.754V174.293H599.196ZM600.975 372.516H592.437V376.072H600.975V372.516ZM594.216 374.294V345.227H590.658V374.294H594.216ZM590.875 344.376C585.704 353.853 578.205 361.443 568.333 367.155L570.115 370.233C580.522 364.211 588.498 356.157 593.999 346.079L590.875 344.376ZM568.354 367.144C558.457 372.697 548.348 375.449 538.007 375.449V379.005C549.011 379.005 559.715 376.068 570.095 370.244L568.354 367.144ZM538.007 375.449C520.861 375.449 506.281 369.497 494.165 357.561L491.667 360.093C504.454 372.69 519.934 379.005 538.007 379.005V375.449ZM494.183 357.579C482.233 345.463 476.285 331.064 476.285 314.294H472.727C472.727 332.012 479.053 347.303 491.649 360.075L494.183 357.579ZM476.285 314.294C476.285 297.524 482.232 283.22 494.173 271.284L491.658 268.77C479.053 281.367 472.727 296.574 472.727 314.294H476.285ZM494.173 271.284C506.291 259.172 520.87 253.138 538.007 253.138V249.582C519.926 249.582 504.443 255.992 491.658 268.77L494.173 271.284ZM538.007 253.138C548.703 253.138 558.981 255.979 568.867 261.699L570.649 258.621C560.257 252.608 549.368 249.582 538.007 249.582V253.138ZM568.878 261.705C578.914 267.411 586.209 274.981 590.841 284.41L594.034 282.844C589.06 272.716 581.235 264.642 570.638 258.615L568.878 261.705ZM594.216 283.627V174.293H590.658V283.627H594.216ZM592.437 176.07H600.975V172.515H592.437V176.07ZM481.265 314.56C481.265 329.969 486.791 343.386 497.775 354.73L500.331 352.257C489.969 341.557 484.823 329.018 484.823 314.56H481.265ZM497.784 354.74C508.784 365.918 522.046 371.538 537.474 371.538V367.983C523.02 367.983 510.666 362.759 500.321 352.248L497.784 354.74ZM537.474 371.538C553.072 371.538 566.508 365.923 577.686 354.751L575.171 352.237C564.648 362.753 552.114 367.983 537.474 367.983V371.538ZM577.686 354.751C589.032 343.411 594.749 329.988 594.749 314.56H591.192C591.192 328.999 585.881 341.532 575.171 352.237L577.686 354.751ZM594.749 314.56C594.749 299.133 589.032 285.709 577.686 274.37L575.171 276.884C585.881 287.589 591.192 300.121 591.192 314.56H594.749ZM577.706 274.39C566.538 262.861 553.187 257.049 537.74 257.049V260.604C552.177 260.604 564.619 265.992 575.15 276.863L577.706 274.39ZM537.74 257.049C522.304 257.049 508.957 262.764 497.785 274.113L500.321 276.607C510.85 265.911 523.294 260.604 537.74 260.604V257.049ZM497.775 274.124C486.786 285.472 481.265 298.98 481.265 314.56H484.823C484.823 299.918 489.974 287.293 500.331 276.596L497.775 274.124ZM682.443 254.56H684.222V252.782H682.443V254.56ZM682.443 374.294V376.072H684.222V374.294H682.443ZM673.905 374.294H672.126V376.072H673.905V374.294ZM673.905 254.56V252.782H672.126V254.56H673.905ZM680.664 254.56V374.294H684.222V254.56H680.664ZM682.443 372.516H673.905V376.072H682.443V372.516ZM675.684 374.294V254.56H672.126V374.294H675.684ZM673.905 256.338H682.443V252.782H673.905V256.338ZM678.174 223.449C675.838 223.449 674.418 222.903 673.583 222.125C672.771 221.37 672.215 220.119 672.215 218.026H668.658C668.658 220.734 669.391 223.082 671.158 224.728C672.903 226.35 675.351 227.004 678.174 227.004V223.449ZM672.215 218.026C672.215 215.934 672.771 214.682 673.583 213.928C674.418 213.15 675.838 212.604 678.174 212.604V209.048C675.351 209.048 672.903 209.703 671.158 211.325C669.391 212.97 668.658 215.319 668.658 218.026H672.215ZM678.174 212.604C680.509 212.604 681.93 213.15 682.765 213.928C683.577 214.682 684.133 215.934 684.133 218.026H687.69C687.69 215.319 686.956 212.97 685.189 211.325C683.445 209.703 680.997 209.048 678.174 209.048V212.604ZM684.133 218.026C684.133 220.119 683.577 221.37 682.765 222.125C681.93 222.903 680.509 223.449 678.174 223.449V227.004C680.997 227.004 683.445 226.35 685.189 224.728C686.956 223.082 687.69 220.734 687.69 218.026H684.133ZM766.951 358.294L765.667 359.524L765.676 359.533L766.951 358.294ZM767.218 270.027L768.467 271.292L768.471 271.288L768.476 271.284L767.218 270.027ZM856.867 270.027L855.601 271.275L855.61 271.284L855.619 271.292L856.867 270.027ZM857.401 358.294L856.117 357.064L857.401 358.294ZM850.731 275.36L849.453 276.596L849.458 276.602L849.463 276.607L850.731 275.36ZM773.355 275.627L772.088 274.38L773.355 275.627ZM773.355 353.494L772.088 354.741L772.097 354.751L772.108 354.761L773.355 353.494ZM850.997 353.494L852.266 354.74L852.271 354.736L852.276 354.73L850.997 353.494ZM810.976 375.449C794.397 375.449 780.177 369.345 768.228 357.055L765.676 359.533C778.272 372.488 793.402 379.005 810.976 379.005V375.449ZM768.236 357.064C756.262 344.576 750.32 330.167 750.32 313.76H746.763C746.763 331.132 753.094 346.411 765.667 359.524L768.236 357.064ZM750.32 313.76C750.32 297.365 756.342 283.238 768.467 271.292L765.97 268.761C753.193 281.348 746.763 296.377 746.763 313.76H750.32ZM768.476 271.284C780.598 259.169 795.089 253.138 812.043 253.138V249.582C794.134 249.582 778.742 255.995 765.961 268.77L768.476 271.284ZM812.043 253.138C829.18 253.138 843.665 259.171 855.601 271.275L858.135 268.779C845.524 255.993 830.125 249.582 812.043 249.582V253.138ZM855.619 271.292C867.74 283.235 873.766 297.449 873.766 314.027H877.323C877.323 296.471 870.897 281.352 858.116 268.761L855.619 271.292ZM873.766 314.027C873.766 330.44 867.907 344.76 856.117 357.064L858.686 359.523C871.086 346.583 877.323 331.391 877.323 314.027H873.766ZM856.117 357.064C844.351 369.342 830.139 375.449 813.377 375.449V379.005C831.123 379.005 846.26 372.49 858.686 359.523L856.117 357.064ZM813.377 375.449H810.976V379.005H813.377V375.449ZM868.785 314.56C868.785 298.971 863.168 285.46 851.999 274.113L849.463 276.607C859.994 287.305 865.228 299.927 865.228 314.56H868.785ZM852.01 274.124C841.012 262.766 827.747 257.049 812.31 257.049V260.604C826.755 260.604 839.105 265.909 849.453 276.596L852.01 274.124ZM812.31 257.049C796.865 257.049 783.431 262.859 772.088 274.38L774.623 276.874C785.337 265.994 797.872 260.604 812.31 260.604V257.049ZM772.088 274.38C760.922 285.722 755.301 299.142 755.301 314.56H758.858C758.858 300.111 764.087 287.576 774.623 276.874L772.088 274.38ZM755.301 314.56C755.301 329.978 760.922 343.399 772.088 354.741L774.623 352.247C764.087 341.544 758.858 329.009 758.858 314.56H755.301ZM772.108 354.761C783.456 365.92 796.883 371.538 812.31 371.538V367.983C797.854 367.983 785.312 362.757 774.603 352.226L772.108 354.761ZM812.31 371.538C827.909 371.538 841.261 365.922 852.266 354.74L849.729 352.248C839.389 362.754 826.949 367.983 812.31 367.983V371.538ZM852.276 354.73C863.26 343.386 868.785 329.969 868.785 314.56H865.228C865.228 329.018 860.081 341.557 849.719 352.257L852.276 354.73Z" fill="white"/>
</g>
<defs>
<filter id="filter0_d_602_2" x="0.307617" y="0.736206" width="907.576" height="413.78" filterUnits="userSpaceOnUse" color-interpolation-filters="sRGB">
<feFlood flood-opacity="0" result="BackgroundImageFix"/>
<feColorMatrix in="SourceAlpha" type="matrix" values="0 0 0 0 0 0 0 0 0 0 0 0 0 0 0 0 0 0 127 0" result="hardAlpha"/>
<feOffset dy="4"/>
<feGaussianBlur stdDeviation="15"/>
<feColorMatrix type="matrix" values="0 0 0 0 1 0 0 0 0 0 0 0 0 0 0.716049 0 0 0 0.5 0"/>
<feBlend mode="normal" in2="BackgroundImageFix" result="effect1_dropShadow_602_2"/>
<feBlend mode="normal" in="SourceGraphic" in2="effect1_dropShadow_602_2" result="shape"/>
</filter>
<clipPath id="clip0_602_2">
<rect width="847.576" height="353.78" fill="white" transform="translate(30.3076 26.7362)"/>
</clipPath>
<clipPath id="clip1_602_2">
<rect width="847.576" height="353.78" fill="white" transform="translate(30.3076 26.7362)"/>
</clipPath>
</defs>
</svg>
