<svg width="559" height="353" viewBox="0 0 559 353" fill="none" xmlns="http://www.w3.org/2000/svg">
<path d="M293.699 134.442C293.957 139.253 294.189 143.631 294.43 147.992C294.455 148.482 294.481 148.96 294.481 149.473V219.367H282.794V114.366C285.761 115.027 288.99 112.886 291.738 115.699C294.081 118.09 296.171 120.897 298.381 123.51L316.011 144.349C319.481 148.459 322.904 152.633 326.374 156.738C331.939 163.308 337.632 169.685 343.071 176.426C348.085 182.638 352.845 189.214 357.704 195.647C358.22 196.336 358.633 197.185 359.321 197.794C357.721 169.975 359.136 142.316 358.538 114.526H370.303V219.458C368.183 219.458 366.068 219.56 363.965 219.401C363.363 219.361 362.718 218.701 362.228 218.126C359.772 215.245 357.369 212.29 354.926 209.38L335.495 186.156C331.53 181.408 327.617 176.585 323.652 171.837C318.591 165.79 313.418 159.892 308.452 153.697C303.799 147.89 299.37 141.798 294.838 135.825C294.589 135.484 294.305 135.171 293.699 134.442V134.442ZM498.357 219.469C493.829 219.469 489.576 219.515 485.328 219.412C484.808 219.401 484.073 218.729 483.815 218.091C480.753 210.438 477.742 202.749 474.78 195.027C474.299 193.774 473.761 193.364 472.72 193.364C455.49 193.41 438.269 193.398 421.043 193.342C419.667 193.342 419.233 194.309 418.747 195.562L411.652 213.838C409.48 219.464 409.489 219.475 404.742 219.475H397.561C397.458 219.475 397.35 219.435 397.002 219.378C397.311 218.655 397.578 218.063 397.832 217.442C401.349 208.856 404.841 200.254 408.388 191.685C413.669 178.897 419.001 166.143 424.29 153.356C427.631 145.282 430.924 137.169 434.253 129.084C436.115 124.546 437.981 120.009 439.912 115.534C440.06 115.24 440.254 114.992 440.481 114.808C440.708 114.623 440.963 114.505 441.227 114.463C445.268 114.385 449.309 114.385 453.349 114.463C453.589 114.486 453.822 114.58 454.031 114.737C454.24 114.895 454.42 115.113 454.557 115.374C459.89 127.97 465.196 140.585 470.476 153.219L491.417 203.152C493.661 208.475 495.945 213.798 498.357 219.469V219.469ZM446.908 125.531L425.18 180.281H468.76L446.908 125.531V125.531ZM139.049 219.384H65.8588V114.509H78.7416V205.139H139.049V219.39V219.384ZM250.385 134.265C252.664 137.624 253.395 141.701 253.915 145.8C255.377 157.267 254.495 168.54 251.722 179.506C249.603 187.873 246.154 195.542 241.608 201.996C233.727 213.326 224.094 220.443 212.669 223.136C204.112 225.151 195.71 223.865 187.6 219.862C175.982 214.134 167.046 204.193 161.013 189.743C156.154 178.111 154.387 165.603 155.148 152.53C155.75 142.242 158.274 132.643 162.338 123.766C166.294 115.124 171.394 108.047 177.973 102.854C178.555 102.345 179.236 102.068 179.934 102.057C178.355 103.993 176.76 105.894 175.203 107.847C168.289 116.49 164.505 127.239 163.009 139.532C161.474 152.149 162.845 164.202 167.231 175.572C172.133 188.28 179.607 197.458 189.505 203.243C195.366 206.7 201.748 208.328 208.159 208.002C218.264 207.518 227.332 203.112 235.257 194.668C244.12 185.217 249.301 172.93 251.348 158.247C252.165 152.382 251.533 146.529 250.965 140.693C250.754 138.553 250.578 136.406 250.385 134.265V134.265ZM339.455 282.286C337.769 282.218 335.959 282.833 335.056 281.905C334.325 281.147 334.665 278.545 334.51 276.467C334.015 276.638 333.448 276.615 333.099 276.974C327.337 282.838 320.741 283.892 313.78 282.924C310.235 282.47 306.822 280.916 303.816 278.386C297.766 273.279 295.81 263.338 299.529 255.919C302.015 250.955 305.678 248.091 309.961 246.645C315.508 244.771 321.098 244.612 326.576 247.009C328.662 247.92 330.558 249.554 332.553 250.841C333.125 251.205 333.732 251.49 334.669 251.996V249.241C334.669 244.105 334.708 238.97 334.647 233.84C334.63 232.354 335 231.875 336.11 231.904C340.19 232.018 339.433 231.369 339.446 236.174C339.481 250.658 339.459 265.143 339.459 279.633L339.455 282.28V282.286ZM318.398 248.626C315.32 248.416 312.255 249.276 309.505 251.12C305.61 253.682 303.008 257.667 302.815 263.657C302.634 269.464 304.801 273.649 308.43 276.632C314.39 281.529 324.448 281.096 330.188 275.721C336.509 269.8 336.591 258.869 330.326 252.868C326.882 249.571 322.93 248.501 318.402 248.626H318.398ZM464.155 283.345C459.928 283.146 455.8 282.4 451.921 280.071C447.695 277.526 444.383 273.729 443.158 267.585C442.212 262.86 443.235 258.567 445.544 254.832C448.972 249.264 453.697 246.924 458.823 245.853C463.854 244.794 468.898 245.056 473.795 247.032C478.095 248.763 481.888 251.587 484.331 256.876C486.979 262.604 486.197 270.056 482.576 274.793C478.685 279.883 473.907 282.121 468.605 282.838C467.122 283.026 465.643 283.169 464.155 283.351V283.345ZM464.181 248.654C463.505 248.609 462.827 248.609 462.151 248.654C457.769 249.201 453.732 250.829 450.649 255.322C447.17 260.389 447.273 268.513 450.868 273.427C453.697 277.299 457.223 279.121 461.188 279.679C465.81 280.328 470.33 279.918 474.471 276.854C478.134 274.139 480.706 270.29 480.718 264.357C480.727 258.47 478.328 254.485 474.638 251.717C471.478 249.349 468.016 248.444 464.185 248.643L464.181 248.654V248.654ZM67.9529 271.548H72.6399C73.7923 277.481 77.5118 278.819 81.2485 279.747C85.9011 280.908 90.5623 280.407 95.0859 278.54C96.6984 277.874 98.2765 276.735 98.7409 274.298C99.3085 271.309 98.169 268.906 95.5761 268.143C91.8652 267.05 88.0898 266.395 84.3617 265.399C80.6854 264.48 77.0364 263.378 73.4225 262.097C71.0489 261.22 68.8473 259.404 68.8129 255.697C68.7785 251.894 70.9285 249.748 73.2849 248.296C77.6064 245.631 82.2375 244.954 86.9417 245.358C90.9106 245.699 94.8451 246.428 98.3711 249.207C100.336 250.761 101.863 252.754 102.443 256.221C100.964 256.221 99.6138 256.267 98.2722 256.187C97.9755 256.17 97.5154 255.771 97.438 255.435C96.578 251.632 94.2646 250.146 91.6846 249.366C87.1395 248 82.5514 247.914 78.0063 249.463C77.5474 249.623 77.1011 249.84 76.6733 250.112C74.4158 251.535 73.7665 252.907 74.0073 256.027C74.2008 258.607 75.7273 259.74 77.3054 260.229C80.5003 261.214 83.7597 261.801 86.9804 262.615C90.816 263.583 94.6903 264.42 98.47 265.701C99.9148 266.185 101.377 267.466 102.443 268.889C104.576 271.77 104.335 274.959 102.099 277.646C99.9793 280.174 97.3735 281.432 94.6645 282.144C88.7262 283.721 82.7449 283.88 76.8539 281.808C73.4913 280.624 70.305 278.847 68.5592 274.389C68.4076 274.024 68.2851 273.638 68.1937 273.239C68.1077 272.789 68.0647 272.311 67.9529 271.548V271.548ZM218.93 246.149C218.965 247.06 219.008 247.812 219.008 248.569C219.008 255.179 218.973 261.789 219.038 268.4C219.051 270.222 219.236 272.032 219.584 273.791C220.1 276.308 221.411 278.147 223.299 278.842C229.598 281.176 235.786 281.204 241.488 276.262C243.621 274.412 244.799 271.708 244.773 268.132C244.704 261.596 244.799 255.048 244.726 248.506C244.704 246.61 245.208 245.973 246.575 246.132C247.465 246.24 248.368 246.155 249.46 246.155C249.503 247.009 249.568 247.749 249.572 248.484C249.572 258.96 249.538 269.442 249.606 279.923C249.619 281.825 249.262 282.656 247.757 282.411C246.923 282.275 246.072 282.389 244.962 282.389V278.341C244.971 276.889 244.481 276.553 243.578 277.287C242.903 277.839 242.296 278.534 241.604 279.052C234.423 284.404 226.941 284.7 219.39 280.817C216.127 279.143 214.372 275.425 214.299 270.762C214.183 263.167 214.286 255.572 214.252 247.977C214.252 246.599 214.6 246.064 215.641 246.138C216.677 246.218 217.731 246.149 218.93 246.149V246.149ZM159.143 246.172H167.623C168.147 248.814 168.04 249.019 166.191 249.019H159.285C159.242 249.713 159.182 250.254 159.182 250.789C159.173 259.444 159.173 268.092 159.182 276.741C159.182 279.092 159.775 280.106 161.594 280.271C163.594 280.441 165.61 280.31 167.786 280.31C168.22 281.518 167.902 282.531 166.647 282.588C163.744 282.719 160.82 282.969 157.948 282.588C155.484 282.269 154.417 280.168 154.366 276.427C154.28 270.381 154.323 264.334 154.314 258.288V249.059H147.8L147.671 246.138C149.498 246.138 151.171 246.064 152.848 246.166C153.966 246.229 154.357 245.694 154.331 244.23C154.271 241.429 154.314 238.628 154.314 235.69H159.147V246.172H159.143ZM389.709 246.155H393.381C394.594 246.155 394.327 247.396 394.327 248.301C394.344 257.012 394.344 265.718 394.336 274.423V277.156C394.336 282.986 394.336 282.986 389.709 282.172V246.155ZM389.657 237.666V231.955C390.934 231.955 392.147 231.858 393.347 232.012C393.695 232.058 394.233 232.758 394.289 233.225C394.749 237.336 394.516 237.666 391.438 237.654L389.657 237.666Z" fill="white"/>
</svg>
